<?xml version="1.0" standalone="no"?>
<!DOCTYPE svg PUBLIC "-//W3C//DTD SVG 1.1//EN" "http://www.w3.org/Graphics/SVG/1.1/DTD/svg11.dtd" >
<svg xmlns="http://www.w3.org/2000/svg">
<metadata>
This is a custom SVG webfont generated by Font Squirrel.
Copyright   : Copyright 251 2003  Manfred Klein All rights reserved
</metadata>
<defs>
<font id="BorisBlackBloxxDirtyRegular" horiz-adv-x="686" >
<font-face units-per-em="1000" ascent="800" descent="-200" />
<missing-glyph horiz-adv-x="300" />
<glyph unicode=" "  horiz-adv-x="300" />
<glyph unicode="&#x09;" horiz-adv-x="300" />
<glyph unicode="&#xa0;" horiz-adv-x="300" />
<glyph unicode="!" horiz-adv-x="228" d="M52 784h-5q-11 0 -18 -9t-7 -21v-22q-20 -9 -36 -28q-1 -2 0.5 -3t3.5 1q8 8 15.5 14.5t16.5 10.5v-104q-10 -17 -17.5 -35t-12.5 -36q-1 -2 1 -2t3 2q4 15 11 31l15 32v-59l6 -56l-6 -13q-1 -2 1 -3t3 1l3 7l7 -62l-15 -35l-14 -35q-1 -2 1 -3t3 1l12 32l14 32l16 -140 l-8 -15l-7 -16q-1 -2 1 -3t3 1q3 7 6 13t6 13q5 -22 24 -22h56l-14 -17l-14 -18h-54q-10 0 -17 -9t-7 -22v-54q-5 -4 -8.5 -8t-7.5 -8q-2 -1 -1 -2.5t3 0.5q4 3 7 6l7 7v-98q0 -5 2 -11q-5 -2 -10 -3t-10 -3q-2 -1 -1 -3t3 -1q8 4 19 6q8 -15 21 -15h125q10 0 17 9t7 21v157 q0 13 -7 22t-17 9q5 9 9 18l10 21q1 2 -1 3t-3 -1l-10 -21q-5 -11 -10 -20h-61q8 9 14 18l14 17h12q9 0 15.5 7.5t8.5 18.5l4 36l12 24q10 23 17 43.5t11 45.5q0 2 -2 2t-2 -2q-4 -24 -11 -44t-17 -43q-2 -4 -3.5 -7.5t-3.5 -7.5l21 188q11 6 20 12.5t17 17.5q1 2 -0.5 3 t-3.5 -1q-7 -10 -15 -16t-17 -11l4 39v40q16 10 32 23q2 2 1 3.5t-3 0.5q-8 -7 -15 -12t-15 -10v93l9 38q5 18 7 38q0 2 -2 2t-2 -2q-2 -16 -5 -31t-7 -30v43q0 11 -5.5 19t-13.5 10q1 5 2 11t2 11q0 2 -2 2t-2 -2q-1 -5 -1.5 -10.5t-2.5 -10.5h-1h-26l7 16q1 2 -1 3t-3 -1 l-7 -18h-45q2 9 3.5 17.5t1.5 17.5q0 2 -2 2t-2 -2q0 -9 -1.5 -17.5t-3.5 -17.5h-47q3 23 -1 37q-1 2 -3 1t-1 -3q4 -13 1 -35z" />
<glyph unicode="&#x22;" horiz-adv-x="330" d="M134 567v98q17 -8 32.5 -16.5t29.5 -20.5v-98q-11 5 -21 10.5t-21 13.5zM134 486v77l18 -13q11 -8 22 -14l22 -11v-101l-20 22q-9 12 -20 22q-11 11 -22 18zM160 744q-2 2 -3.5 1t-0.5 -3q12 -14 25 -23l26 -18q-5 -3 -8 -9.5t-3 -14.5v-44q-14 12 -29.5 20.5t-32.5 16.5 v7q0 11 -6.5 19.5t-14.5 8.5h-55q-5 2 -8.5 5t-8.5 6q-2 1 -3 -0.5t1 -3.5q3 -2 5.5 -3.5t5.5 -3.5h-7q-9 0 -15 -8.5t-6 -19.5v-37l-3 2q-2 1 -3 -0.5t1 -3.5l5 -3v-89q-5 3 -9 6l-9 7q-2 1 -3 -0.5t1 -3.5q10 -8 20 -14v-94q-7 7 -13 16q-2 2 -3.5 1t-0.5 -3q5 -5 8.5 -10 t8.5 -10v-29q0 -11 6 -19t15 -8h38l28 -26q14 -13 25 -29q2 -2 3.5 -1t0.5 3q-11 15 -24 28t-27 25h26q8 0 14.5 8t6.5 19v69q5 -4 10 -7.5t10 -7.5q11 -11 22 -24l20 -24v-6q0 -11 6 -19t15 -8h70q8 0 14.5 8t6.5 19v199l2 -2q2 -1 3 0.5t-1 3.5l-4 3v61q0 11 -6.5 19.5 t-14.5 8.5h-70q-4 0 -6 -1q-14 10 -27 18t-24 22z" />
<glyph unicode="#" horiz-adv-x="719" d="M186 756l-20 -162h-83q-4 0 -10 -2q13 48 42 91.5t71 72.5zM419 626l-4 -32h-29q16 19 33 32zM327 399l2 18h18q-5 -5 -10 -9t-10 -9zM353 417h42l-6 -48h-66l3 23l1 2q7 6 13 12t13 11zM123 417h23l-6 -48h-61q18 24 44 48zM292 92l11 100h66l-6 -49q-40 -25 -71 -51z M550 177l2 15h17l-10 -8zM576 192h59q13 0 22 9t9 21v117q0 12 -9.5 21t-22.5 9h-62l1 9q26 6 51.5 9t51.5 11q2 1 1 3t-3 1q-24 -8 -49.5 -11t-50.5 -9l4 35h88q13 0 22 9t9 21v117q0 12 -9.5 21t-22.5 9h-46q14 9 27 19l25 19q2 2 1 3.5t-3 0.5q-29 -23 -57 -42h-14 l14 106q15 6 29 13t28 16q2 2 1 3.5t-3 0.5q-13 -9 -27 -16t-28 -13l6 46q2 14 -7.5 24t-23.5 10h-122q-11 0 -19.5 -8t-10.5 -19l-15 -125q-20 -15 -39 -38h-32l21 155q59 32 127.5 48.5t131.5 12.5q2 0 2 2t-2 2q-63 4 -131 -12t-128 -48q0 12 -9 21t-23 9h-103 q42 18 83.5 28.5t83.5 29.5q2 1 1 3t-3 1q-43 -20 -87.5 -31t-86.5 -31h-10q-9 0 -17.5 -6t-11.5 -16q-44 -31 -74.5 -75.5t-43.5 -95.5q-17 -9 -17 -27v-117q0 -12 9.5 -21t22.5 -9h33q-22 -21 -43 -48h-21q-14 0 -22.5 -9t-8.5 -21v-117q0 -12 9 -21t22 -9h53 q-27 -26 -48.5 -54.5t-29.5 -51.5q-1 -2 1 -3t3 1q8 23 30 52.5t49 55.5h9l-19 -158v-7q-14 -11 -25 -23t-19 -26q-1 -2 1 -3t3 1q7 13 17.5 24t23.5 22q3 -9 11 -15.5t19 -6.5h122q11 0 19.5 8t10.5 19l7 60q31 26 71 51l-13 -104q-2 -14 7.5 -24t23.5 -10h123q11 0 19.5 8 t10.5 19l17 144l12 10q7 6 14 11zM688 193q2 2 0.5 3t-2.5 -1q-29 -32 -54 -63l-50 -62l-47 -63l-48 -68q-1 -2 0.5 -3t3.5 1l48 68l47 63l49 62z" />
<glyph unicode="$" horiz-adv-x="703" d="M229 563q-3 4 -3 11q0 17 15 28zM134 238q-32 13 -67 30q-12 6 -23.5 2t-16.5 -14q7 43 15 84l16 84q8 -11 18 -21.5t21 -19.5q25 -21 69 -39q-8 -29 -16 -55zM170 342q22 -9 48.5 -17.5t57.5 -16.5v-109q-16 2 -32 5.5t-33 8.5q-39 11 -74 24l16 50q9 26 17 55zM246 604 q6 3 13.5 4.5t16.5 3.5v-78q-13 3 -23 8h1q-14 5 -23 16l7 24zM419 568v34q6 -2 10 -3l-3 -8zM486 481q-15 5 -32 9t-35 9v56l11 34l3 9l8 -2q4 -1 9 -2q39 -9 71 -21l-12 -28l-11 -28q-8 -18 -12 -36zM427 201q-4 -2 -8 -2v76q14 -4 21 -7l-6 -33q-3 -17 -7 -34zM444 267 l8 -3q4 -2 6 -4q16 -10 16 -22q0 -19 -24 -29h1q-7 -4 -19 -7l6 32zM582 439q-19 11 -41.5 21.5t-50.5 19.5q5 18 12 35q6 14 11.5 28.5t11.5 28.5q38 -14 68 -28q9 -4 16 -3l-13 -51zM601 72q80 65 80 182q0 98 -67 161q-6 6 -13.5 11.5t-15.5 10.5q8 26 15 52l14 52 q11 2 17 11t5 23l-3 40q6 20 14.5 39t24.5 39q1 2 -0.5 3t-3.5 -1q-14 -18 -22 -35t-14 -35l-8 98q-1 6 -6.5 14t-11.5 11l-4 2l29 58q14 28 31 57q1 2 -0.5 3t-3.5 -1q-17 -29 -31 -57l-29 -58q-19 8 -43.5 15t-54.5 13l17 43q7 19 15 46q1 2 -1 3t-3 -1q-8 -28 -15 -47 l-17 -43l-5 1q-19 4 -37 6.5t-35 4.5v50q0 13 -8.5 22t-21.5 9h-83q-13 0 -21.5 -9t-8.5 -22v-49q-19 -2 -36.5 -5.5t-34.5 -8.5q12 15 26 28.5t27 27.5t24 29.5t18 33.5q1 2 -1 3t-3 -1q-11 -31 -33 -53l-44 -46l-10 -12l-10 -12q-51 -15 -87 -41q-90 -65 -90 -189 q0 -70 33 -119l-19 -98q-9 -48 -16 -99q-2 -15 -4 -39t-6 -49t-9.5 -47.5t-15.5 -33.5q-2 -2 -0.5 -3t2.5 1q10 11 16.5 33.5t10 47.5t6 49.5t4.5 40.5v2l13 -155q1 -7 6 -15t11 -11q10 -4 22 -8q-8 -27 -14 -56l-14 -63q-7 -35 -19 -70.5t-15 -69.5v-40q0 -2 2 -2t2 2v40 q5 33 15.5 69t18.5 71l14 62q6 29 14 56q32 -10 92 -24q28 -6 53.5 -10t50.5 -6v-12q-5 -17 -9.5 -36t-10.5 -39q-10 -37 -16.5 -72t-23.5 -70q-1 -2 1 -3t3 1q17 35 23.5 70.5t16.5 71.5q5 17 8.5 32t7.5 29v-36q0 -13 8.5 -22t21.5 -9h83q13 0 21.5 9t8.5 22v65 q53 6 97 21q-5 -23 -11.5 -45t-16.5 -42q-1 -2 1 -3t3 1q10 20 16.5 43t11.5 48q38 14 67 34q2 2 5 3.5t5 3.5q0 -45 0.5 -90.5t0.5 -94.5q0 -2 2 -2t2 2q0 51 -0.5 96.5t-0.5 91.5z" />
<glyph unicode="%" horiz-adv-x="1248" d="M1025 80q-6 -32 -21.5 -47t-44.5 -15q-38 0 -52.5 28.5t-14.5 90.5q0 55 11 83l33 -30l33 -29q17 -17 30.5 -37.5t25.5 -43.5zM904 224q16 35 58 35q38 0 52.5 -30.5t14.5 -93.5q0 -27 -3 -48q-11 21 -24.5 40t-30.5 36q-15 16 -33 31zM722 588l-82 -97 q-22 23 -42.5 48.5t-44.5 43.5q-2 49 -19.5 88t-48.5 68q11 -5 20 -10t18 -11l101 -65q48 -30 98 -65zM981 373q-5 1 -11 1h-11q-88 0 -153 -37q-23 28 -54 55l89 105l70 -61zM252 457q-15 9 -22.5 29t-9.5 51q8 -16 14.5 -31.5t11.5 -31.5q2 -5 3 -9t3 -8zM506 334 l-100 -117q-16 31 -36 60l-42 58q83 7 142 54q8 -14 17 -28zM473 392l5 4q77 64 75 174v8q23 -18 43 -43t41 -47l-128 -151l-19 27q-9 14 -17 28zM295 625q-2 1 -3 -0.5t1 -3.5q18 -14 33.5 -29.5t29.5 -31.5q-1 -57 -16.5 -84.5t-53.5 -27.5q-17 0 -29 6q-2 5 -3.5 10.5 t-3.5 11.5q-5 17 -12.5 35t-18.5 35v23q0 63 14.5 92t56.5 29q36 0 51 -30t15 -93v-1l-29 30q-15 15 -32 29zM712 845q-2 1 -3 -1t1 -3q48 -17 92.5 -28.5t89.5 -25.5l-82 -97l-39 22q-20 11 -42 21l-79 36l-81 39q-2 1 -3 -1t1 -3l81 -39l79 -36q22 -10 42 -21l38 -21 l-82 -96q-50 35 -98 65l-102 66q-11 7 -23.5 13.5t-26.5 11.5q-50 41 -125 53q-14 8 -25.5 17t-19.5 20q-2 2 -3.5 1t-0.5 -3q16 -20 39 -33q-26 3 -54 3q-113 0 -185 -58q-17 6 -30 15q-2 1 -3 -0.5t1 -3.5q14 -8 28 -14l-1 -1q-8 -6 -14 -13l-13 -14l-6 4l-8 6 q-2 1 -3 -0.5t1 -3.5q4 -2 7 -4.5t7 -4.5q-45 -59 -45 -143q0 -63 23.5 -110.5t66.5 -77.5l-16 -96q-9 -47 -14 -99q-3 -30 -7.5 -54.5t-10.5 -47t-13.5 -45t-17.5 -46.5q-5 -12 -6 -26t-8 -25q-1 -2 0.5 -3t3.5 1q7 11 8 25t6 26q10 24 17.5 46.5t13.5 45.5t10.5 48t7.5 55 q5 51 14 98l16 94q36 -24 79 -35q8 -34 12.5 -68.5t4.5 -69.5q0 -23 -3.5 -42.5t-8.5 -37.5l-10 -36q-6 -18 -10 -39q-11 -55 -18.5 -97.5t-21.5 -88.5q-1 -2 1 -3t3 1q7 24 12 45.5l10 43.5l9 47l9 52q4 20 10 38l10 36q5 19 8.5 38.5t3.5 42.5q0 35 -4.5 69t-12.5 68 q39 -10 89 -10h18q9 0 17 1l43 -59q21 -29 37 -61l-225 -265q-14 -17 -5.5 -34t29.5 -17h115q5 0 13 4t10 8l114 134l31 -95q15 -47 22 -97q0 -2 2 -2t2 2q-8 51 -23 99l-31 96l135 157q41 -75 68 -163q15 -50 36.5 -97.5t31.5 -98.5q1 -2 2 -2q2 0 2 2q-10 52 -31.5 100 t-36.5 98q-27 87 -70 165l155 181q15 -13 28 -26.5t25 -27.5q-8 -5 -16.5 -11t-16.5 -13q-74 -65 -74 -173q0 -110 74 -173t191 -63q94 0 159 41q12 -14 21.5 -29t17.5 -33q1 -2 3 -1t1 3q-16 34 -40 62q14 8 29 21q75 64 75 172q0 57 -19 99t-56 74q-64 55 -163 62l-72 64 l-72 63l88 103q12 -8 24 -17l25 -19l54 -42q29 -22 57.5 -47t55 -52t47.5 -54q2 -2 3.5 -1t0.5 3q-22 27 -49 54t-55.5 52.5t-57.5 48.5l-54 42l-24 18q-12 9 -24 17l106 124q45 -20 86.5 -47.5t64.5 -60.5q2 -2 3.5 -1t0.5 3q-23 34 -66 61.5t-87 47.5l19 22q14 17 6 33.5 t-30 16.5l-116 1q-5 0 -12.5 -3.5t-10.5 -7.5l-4 -5q-45 14 -90 26t-93 29z" />
<glyph unicode="&#x26;" horiz-adv-x="986" d="M384 621q0 10 9 15t22 5q14 0 23 -6t9 -19q0 -32 -18 -48q-6 -6 -9 -8q-36 33 -36 61zM344 177q-26 2 -45.5 17.5t-19.5 38.5q0 11 4 19q14 -20 29 -39t32 -36zM284 256q4 8 9.5 16t13.5 16h-1q12 10 26 20t32 19l102 -112q-11 -7 -23 -12h1q-55 -26 -95 -26l-33 39 q-17 19 -32 40zM27 427q0 2 -2 2t-2 -2q2 -26 9 -48t18 -42q-28 -55 -28 -119q0 -99 80 -165q76 -62 218 -65q53 -26 108 -46l109 -41q2 -1 3 1t-1 3q-51 20 -105 39t-105 44h5q57 0 109 11t100 31q14 6 30 14t34 19l49 -53q3 -3 10.5 -6.5t11.5 -3.5h254q10 0 18 5t11 12.5 t1.5 16.5t-8.5 17l-147 159l11 11q6 6 11 12h17q2 0 2 2t-2 2h-13l33 39q30 36 50 71t34 70l-29 42h-186q-7 0 -15.5 -5.5t-12.5 -10.5q-25 -44 -49 -72l-72 78q10 9 19.5 18.5t18.5 20.5q24 31 36 58l14 -7l14 -6q53 -23 111 -34t119 -5q2 0 2 2t-2 2q-61 -6 -118.5 5 t-109.5 34l-14 6l-14 6q12 31 12 60q0 94 -82 144q-77 46 -183 46q-11 0 -20.5 -0.5t-19.5 -1.5q-12 28 -12 61q0 2 -2 2t-2 -2q0 -33 12 -61q-38 -4 -69.5 -13t-57.5 -25q-10 20 -19 41.5t-17 48.5q-1 2 -3 1t-1 -3q8 -27 17.5 -48.5t19.5 -41.5q-38 -24 -58.5 -60.5 t-20.5 -87.5q0 -66 47 -124q3 -3 4.5 -6t4.5 -6l-20 -9q-9 -5 -17 -10q-26 55 -49 112.5t-40 112.5l-24 80q-11 37 -11 84q0 2 -2 2t-2 -2q0 -47 11 -84l24 -82q17 -55 40 -112t49 -113q-70 -38 -98 -76q-6 -8 -11 -17t-10 -17q-10 19 -16.5 39.5t-8.5 45.5zM538 834 q-1 2 -3 1t-1 -3q6 -21 19 -35.5t29 -26t34 -20.5l35 -18q22 -11 43.5 -23.5t44 -23.5t45.5 -18t49 -7q11 0 19 3.5t18 5.5q2 1 2 3t-2 1q-10 -2 -18.5 -5.5t-18.5 -3.5q-25 0 -48.5 7t-45.5 18t-43.5 23.5t-42.5 23.5q-17 9 -35 17.5t-33.5 19.5t-28 25.5t-18.5 35.5z" />
<glyph unicode="'" horiz-adv-x="156" d="M149 437q2 1 1 3t-3 1l-13 -7v50l18 6q2 1 1 3t-3 1q-4 -2 -8 -2.5t-8 -2.5v62q8 4 16.5 7t16.5 7q2 1 1 3t-3 1l-31 -13v66q5 4 10 7l11 6q2 2 1 3.5t-3 0.5q-5 -3 -9.5 -6t-9.5 -6v50v5l21 9q2 1 1 3t-3 1q-5 -2 -10 -4.5t-10 -4.5q-5 19 -20 19h-70q-9 0 -15 -8.5 t-6 -19.5v-41l-36 -12q-18 -5 -34 -16q-2 -2 -1 -3.5t3 -0.5q16 11 33 16l35 11v-64q-18 -8 -37 -15l-38 -14q-2 -1 -1 -3t3 -1q20 7 38 14t35 15v-55l-48 -21q-2 -1 -1 -3t3 -1l46 20v-66q-14 -8 -34 -16q-2 -1 -1 -3t3 -1q8 4 16 7.5t16 7.5v-20q0 -11 6 -19t15 -8h6 q-17 -11 -35 -21l-38 -21q-2 -2 -1 -3.5t3 -0.5q22 12 41 24l37 22h57q8 0 14.5 8t6.5 19v18q4 2 7.5 3.5t7.5 3.5z" />
<glyph unicode="(" horiz-adv-x="347" d="M20 209q0 2 -2 2t-2 -2q2 -42 18.5 -76.5t39.5 -64.5q4 -8 7 -15t7 -14q68 -133 204 -164q13 -3 23 5.5t10 24.5v119q0 11 -6.5 19.5t-16.5 10.5q-53 12 -77 81q5 -3 10 -5.5t10 -5.5q2 -1 3 1t-1 3l-12 6q-6 3 -12 7q-13 42 -18.5 91t-5.5 108h1v8q31 -36 68.5 -72 t75.5 -60q2 -1 3 0.5t-1 3.5q-38 24 -76.5 61t-69.5 73q1 51 5.5 94t15.5 80l33 -42l31 -39q2 -2 3.5 -1t0.5 3l-33 41q-17 20 -34 43q2 5 4 11q21 62 64 79q16 -20 35 -38q1 -2 2.5 -1t-0.5 3q-8 10 -17 19l-16 18l9 3q7 2 13.5 9.5t8.5 16.5q5 -7 9 -13.5t9 -12.5 q2 -2 3.5 -1t0.5 3q-5 8 -11 15.5t-11 15.5v116q0 16 -10 24.5t-24 5.5q-9 -2 -18 -4.5t-18 -6.5q-6 29 -5 55q0 2 -2 2t-2 -2q-1 -26 5 -56q-23 -9 -47 -23q-8 30 -8 60q0 2 -2 2t-2 -2q0 -32 8 -62q-39 -25 -68 -60q-2 12 -3.5 23.5t-1.5 23.5q0 2 -2 2t-2 -2q0 -26 6 -50 q-23 -28 -42 -65q-8 -15 -14.5 -30t-12.5 -32q-6 21 -9.5 43t-4.5 47q0 2 -2 2t-2 -2q1 -26 5 -50t11 -46q-31 -89 -35 -189q-20 41 -29 84q-1 2 -2 2q-2 0 -2 -2q5 -26 13.5 -48.5t19.5 -44.5q-1 -8 -1 -17v-18q0 -146 46 -257q-20 28 -33 58.5t-15 67.5zM45 -11 q-1 2 -2.5 1t0.5 -3q25 -26 53 -52t59.5 -47t66.5 -35t74 -15q2 0 2 2t-2 2q-38 1 -72.5 14.5t-66 34.5t-59.5 46.5t-53 51.5z" />
<glyph unicode=")" horiz-adv-x="346" d="M338 187q2 2 1 3.5t-3 0.5q-8 -7 -15 -12l-16 -10q19 77 19 171v25q0 13 -1 25q12 6 28 13q2 1 1 3t-3 1l-27 -12q-5 76 -24 144l30 19q15 9 32 22q2 2 1 3.5t-3 0.5q-17 -14 -32 -23l-29 -18q-17 55 -40 99l1 -1l-15 27q20 18 38 36.5t32 42.5q1 2 -0.5 3t-3.5 -1 q-13 -23 -31 -41l-37 -37q-26 42 -60 72l32 23l33 22q2 2 1 3.5t-3 0.5q-17 -11 -33 -23l-33 -24q-52 44 -123 61q-14 3 -23.5 -5.5t-9.5 -24.5v-119q0 -22 19 -29q-14 -15 -27 -31l-27 -34q-1 -2 0.5 -3t3.5 1q25 34 54 66q52 -13 75 -83q2 -5 4 -15l-35 -57l-35 -61 q-1 -2 0.5 -3t3.5 1q17 32 33.5 60t34.5 55q13 -50 18 -111l-18 -23l-20 -26q-15 -20 -24 -38.5t-15.5 -38t-12.5 -40t-14 -42.5q-1 -2 1 -3t3 1q8 22 13.5 42.5t12.5 40t16 38t24 38.5l17 24l18 22q1 -17 1.5 -33.5t0.5 -34.5q0 -43 -3 -80q-20 -20 -38 -40l-34 -42 q-8 -11 -14 -21.5t-11 -21.5q-5 -10 -9.5 -20t-11.5 -19q-1 -2 0.5 -3t3.5 1l5 10l6 9l15 32q8 16 20 31l32 39l35 38q-6 -62 -23 -117q-22 -70 -76 -82q-9 -2 -15.5 -10.5t-6.5 -19.5v-119q0 -19 13 -27q-1 -2 0.5 -3t3.5 1q6 -3 16 -1q135 31 203 163h-1q31 60 47 125 l17 11q9 5 17 13zM314 53q2 2 0.5 3t-2.5 -1l-49 -53q-24 -25 -44.5 -50.5t-38.5 -53.5t-34 -62q-1 -2 1 -3t3 1q16 34 34 62t38 53.5t43 50.5z" />
<glyph unicode="*" horiz-adv-x="598" d="M103 636l65 -78l-111 20h-1q11 16 22.5 30t24.5 28zM321 697l-22 -61l-11 33l16 14zM448 561l-17 -3l71 85l-29 -42zM468 364q-5 6 -11.5 13t-14.5 17q-4 4 -7 6.5t-5 6.5l44 -8q-1 -5 -1.5 -10t-2.5 -10zM540 607q1 2 -1 3t-3 -1q-3 -9 -6.5 -17.5t-6.5 -16.5l-70 -13 l32 49l36 52q1 2 -0.5 3t-3.5 -1l-8 -12q5 11 1.5 21t-14.5 16l-20 11l24 27q1 2 -0.5 3t-3.5 -1l-12 -14q-6 -6 -11 -13l-80 46q8 5 16 9t17 8q2 1 1 3t-3 1q-9 -5 -18 -9.5t-17 -9.5l-10 6q-13 8 -25 3t-17 -19l-13 -37l-19 -15q-10 -8 -19 -16l-24 68q-4 13 -16 18 q26 19 47 31.5t51 28.5q2 1 1 3t-3 1q-30 -16 -51 -29t-47 -31l-3 -2q-11 2 -21 -4l-117 -67q-13 -8 -15.5 -21t7.5 -24l5 -6q-13 -14 -25 -29l-24 -31q-11 0 -20 -8t-9 -21v-16l-24 -42l-25 -45q-1 -2 1 -3t3 1q11 23 23 43l22 39v-111q0 -13 9 -21t20 -8l-27 -40 q-14 -20 -25 -38q-1 -2 0.5 -3t3.5 1q11 18 25 38l28 42h1l111 20q-2 -4 -5 -6.5t-6 -6.5q-16 -18 -25 -29l-14 -17l-11 -13l-12 -15q-9 -11 -6.5 -24.5t14.5 -20.5l27 -15q-4 -6 -8 -13l-7 -13q-11 -20 -22 -36.5t-20.5 -33t-18 -35t-14.5 -41.5q-1 -2 1 -2t3 2q6 22 14 40 t18 34l21 33q11 17 22 37l7 13l7 13l87 -50q13 -8 25 -3t17 19l37 105l22 -60q-2 -8 -3.5 -16t-3.5 -16v-48q0 -2 2 -2t2 2v48q2 6 2.5 12.5t2.5 12.5l14 -38q5 -14 17 -19t25 3l68 39q-5 -25 -9.5 -51.5t-10.5 -55.5q0 -2 1 -2q2 0 3 2q6 29 11 56.5t9 52.5l45 26 q12 7 14.5 20.5t-6.5 24.5l-17 20l-16 20l3 18q2 8 4 20l64 -11q14 -2 24 6.5t10 22.5v134q0 14 -10 22t-24 6l-14 -3l6 16z" />
<glyph unicode="+" horiz-adv-x="620" d="M468 388h-59v64l30 -32zM42 399q-1 2 -3 1t-1 -3l5 -10q-9 -3 -15 -11t-6 -18h1v-138q0 -12 9 -21t21 -9h81q3 -9 6 -21q7 -24 15 -58t13.5 -71.5t7.5 -75t-2 -68.5q0 -2 2 -2t2 2q4 31 2 68.5t-7.5 75t-13.5 72t-15 59.5l-6 19h75v-160q0 -13 8.5 -21.5t20.5 -8.5h123 l17 -27l14 -21l13 -20l13 -22q2 -2 3.5 -1t0.5 3q-14 24 -26 42l-30 46h10q13 0 21.5 8.5t8.5 21.5v160h46l54 -62l61 -71q23 -27 40 -54l35 -57q2 -2 3.5 -1t0.5 3l-36 57q-16 27 -39 54l-60 70l-54 61h108q12 0 20.5 9t8.5 21v138q0 12 -9 21t-21 9h-94l-2 1l-63 69v87 q0 13 -8.5 21.5t-21.5 8.5h-67q-17 25 -30 51q-1 2 -3 1t-1 -3l14 -25l16 -24h-67q-12 0 -20.5 -8.5t-8.5 -21.5v-79l-33 39q-16 18 -39 41q-1 2 -2.5 0.5t0.5 -2.5q23 -24 39 -44l35 -40v-72h-97q-14 24 -20 48q-1 2 -3 2t-1 -2q3 -14 8 -25.5t11 -22.5h-58h-5z" />
<glyph unicode="," horiz-adv-x="214" d="M206 115q1 2 -0.5 3t-3.5 -1q-2 -5 -5 -8.5t-5 -8.5v71q0 11 -7 19t-17 8h-25q5 14 9 27.5t9 27.5q1 2 -1 3t-3 -1q-5 -15 -9 -29t-9 -28h-59q7 20 11.5 39.5t5.5 43.5q0 2 -2 2t-2 -2q-1 -24 -6 -43.5t-11 -39.5h-30q-10 0 -17 -8t-7 -19v-141q0 -4 1 -5l-25 -77 q-13 -39 -31 -85q-1 -2 1 -3t3 1l30 82q13 38 24 75q7 -15 21 -15h26l-30 -87q-4 -11 1 -22q-8 -16 -17 -30l-17 -27q-12 -17 -22.5 -34t-18.5 -36q-1 -2 1 -3t3 1q9 22 19 37q14 23 28.5 44t25.5 44q7 -11 20 -11h20l-18 -35q-9 -17 -19 -34q-1 -2 0.5 -3t3.5 1 q10 17 19 34l18 37h37q6 0 13 5t9 12l44 127v69q4 6 7 11.5t7 11.5z" />
<glyph unicode="-" horiz-adv-x="402" d="M386 384q1 2 -0.5 3t-3.5 -1l-7 -9q-8 10 -23 10h-25q5 8 8.5 15t8.5 15q1 2 -1 3t-3 -1q-5 -8 -9 -16t-9 -16h-62l10 16l9 17q1 2 -1 3t-3 -1q-8 -17 -20 -35h-85l28 29q13 14 26 31q1 2 -0.5 3t-3.5 -1q-13 -17 -27 -32l-29 -30h-72l28 39l26 35q1 2 -0.5 3t-3.5 -1 q-12 -18 -26 -37l-29 -39h-37q-11 0 -19.5 -6.5t-8.5 -15.5v-98q0 -3 1 -5q-2 -6 -2 -8t1 -2q2 0 3 2v2q9 -12 25 -12h25q-5 -11 -11 -23t-14 -25q-1 -2 0.5 -3t3.5 1q8 14 14 26l12 24h70q-11 -17 -21 -34.5t-18 -37.5q-1 -2 1 -3t3 1q8 21 18.5 39t21.5 35h88 q-3 -6 -5.5 -11.5t-5.5 -11.5q-1 -2 1 -3t3 1q2 7 5 13l6 12h47l-1 -2q-5 -12 -10 -22.5t-13 -20.5q-1 -2 0.5 -3t3.5 1q8 10 13 21l10 22l1 4h54q12 0 20 6.5t8 16.5v98q0 3 -2 9z" />
<glyph unicode="." horiz-adv-x="251" d="M211 171q1 2 -1 3t-3 -1l-15 -36v34q0 11 -7 18t-17 7h-5q3 5 5.5 10.5t4.5 10.5q1 2 -1 3t-3 -1q-2 -6 -4.5 -12t-5.5 -11h-61l22 29l21 29q1 2 -0.5 3t-3.5 -1l-22 -30l-22 -30h-47q-10 0 -17 -7t-7 -18v-82l-6 -9l-5 -9q-18 -32 -39 -66t-26 -72q0 -2 2 -2t2 2 q5 37 25 71l40 65l7 12v-56q0 -17 16 -24q-4 -8 -9 -16l-10 -18q-1 -2 0.5 -3t3.5 1q5 9 9.5 18t9.5 17h4h68l-20 -34l-20 -35q-1 -2 0.5 -3t3.5 1l20 36q10 18 21 35h49q10 0 17 7t7 18v103l10 22z" />
<glyph unicode="/" horiz-adv-x="612" d="M61 221q-1 2 -3 2t-1 -2q5 -23 12 -38t15 -34l-58 -117q-8 -17 0 -30.5t26 -13.5h94q11 -35 17 -71t1 -74q0 -2 2 -2t2 2q5 38 -1 74t-17 71h38q7 0 15 5t11 12l37 75q2 -15 3.5 -29.5t3.5 -28.5q5 -32 11 -60t20 -60q1 -2 3 -1t1 3q-14 32 -20 59t-11 59l-4 32l-4 32 l55 110l29 -56q10 -20 18 -34l15 -26q7 -11 13 -23l15 -28q9 -20 16.5 -42t12 -43t7 -39t2.5 -30q0 -2 2 -2t2 2q0 12 -2.5 30.5t-7 39.5t-12 43.5t-16.5 42.5l-15 28q-6 12 -13 23l-15 26q-8 14 -18 34l-16 30q-7 15 -15 29l70 140q20 -35 36 -68.5t28 -69t20.5 -75 t13.5 -86.5q0 -2 2 -2t2 2q-5 48 -13.5 87.5t-21 75.5t-28.5 70t-37 70l59 120l17 -27l17 -25q12 -18 19.5 -34t13.5 -32l12 -33q6 -17 15 -37q1 -2 3 -1t1 3q-9 20 -15 36l-12 33q-7 17 -14.5 32.5t-18.5 34.5l-36 54l56 112q13 -18 27.5 -35.5t31.5 -32.5q2 -2 3 -0.5 t-1 2.5q-17 16 -31 33l-28 37l84 170q8 17 0 30.5t-26 13.5h-137q-7 0 -14.5 -5t-11.5 -12l-34 -68q-32 20 -61 41t-60 50q-2 2 -3 0.5t1 -2.5q30 -29 59.5 -50.5t62.5 -42.5l-40 -80q-19 23 -32 45t-13 56q0 2 -2 2t-2 -2q0 -35 13.5 -58t33.5 -47l-49 -98q-14 25 -25 50.5 t-16 51.5q-1 2 -3 2q-1 0 -1 -2q5 -28 17 -54.5t26 -52.5l-56 -114q-11 26 -21 55l-20 60q-1 2 -3 1t-1 -3l21 -62q10 -29 21 -55l-57 -117q-19 31 -31.5 64.5t-12.5 74.5q0 2 -2 2t-2 -2q0 -42 13 -76.5t32 -66.5l-64 -131l-14 33q-6 14 -11 35z" />
<glyph unicode="0" horiz-adv-x="714" d="M283 503q3 37 9 56q7 27 65 27q30 0 48 -8l-20 -12l-53 -32zM280 322q-1 16 -1 33v38q0 63 3 105l50 31l55 33l22 14q11 -9 13 -17q5 -15 8 -39.5t5 -58.5q-20 -15 -39 -32l-37 -33l-39 -36zM359 200h-2q-56 0 -65 27q-8 29 -11 90l80 77l37 32q18 16 37 30q1 -14 1 -30 v-33q0 -81 -6 -127q-18 -14 -36 -31t-35 -35zM429 260q-3 -22 -7 -33q-9 -26 -58 -27q16 17 32 31zM710 170q2 1 2 3t-2 1q-15 -3 -28.5 -6t-25.5 -7q36 90 36 232v27q0 13 -1 26q5 4 10 7.5t10 7.5q2 2 1 3.5t-3 0.5q-5 -4 -9.5 -7t-9.5 -7q-2 43 -8.5 80.5t-16.5 69.5 q2 2 1 3.5t-3 0.5q-16 50 -45 88l28 10l27 10q2 1 1 3t-3 1q-25 -8 -55 -21l-1 1v-1q-28 37 -69 61l22 11l22 10q2 1 1 3t-3 1l-24 -12q-11 -6 -23 -11q-71 40 -184 40q-44 0 -83 -6q36 14 74 26l83 24q2 1 1 3t-3 1l-92 -27q-43 -14 -83 -31q-101 -23 -155 -92 q-10 -12 -19 -28l-8 -8l-7 -9q-13 -14 -28 -27l-30 -27q-14 -13 -26.5 -28t-20.5 -33q-1 -2 1 -3t3 1q7 17 19.5 32t27 29t29.5 27t27 27l5 5q-15 -29 -25 -63t-17 -75l-18 -12l-17 -13q-15 -12 -26 -28t-20 -33.5t-17 -36t-16 -34.5q-1 -2 1 -3t3 1q8 16 15.5 34t16.5 35.5 t20 33.5t25 27q8 7 16 12l17 11q-4 -27 -6 -56.5t-2 -61.5q0 -31 1.5 -60t5.5 -55l-41 -51q-20 -25 -37 -54l-4 -8l-3 -9l-3 -9q-2 -6 -4.5 -12t-5.5 -10.5t-6 -5.5q-2 -1 -1 -3t3 -1q5 2 8.5 8.5t6.5 14.5t5.5 16.5t7.5 16.5q16 28 35 52l40 50q17 -109 62 -174l-4 -7 l-18 -30q-9 -16 -19.5 -31.5t-23 -28t-27.5 -19.5q-2 -1 -1 -3t3 -1q19 9 34 27t29 39l30 51l4 -6q43 -58 119 -82l-22 -33q-10 -16 -18 -34q-1 -2 1 -3t3 1q8 18 18 34l22 33q57 -18 135 -18q43 0 81 6l-8 -14q-3 -6 -6 -13q-8 -17 -17 -34t-20 -34q-1 -2 0.5 -3t3.5 1 q10 16 20 34l16 32l16 32q113 18 172 95v-1q22 27 39 67q13 4 27 7.5t29 6.5zM227 827q2 2 0.5 3t-2.5 -1q-11 -11 -24.5 -18t-28 -12t-29.5 -8.5t-29 -8.5q-25 -9 -43.5 -22t-38.5 -29q-2 -2 -1 -3.5t3 -0.5q20 17 38.5 30t43.5 21q15 5 30 8.5t29 8.5t27.5 12.5t24.5 19.5 z" />
<glyph unicode="1" horiz-adv-x="436" d="M95 191v-8v3v5zM95 221q-3 18 -6 40t-5.5 45t-4 45t-1.5 39v43q0 22 1 43q41 14 77 31q-2 -24 -5.5 -49t-10.5 -54q-9 -39 -20 -81t-20 -80q-2 -5 -2.5 -10.5t-2.5 -11.5zM434 89q1 2 -0.5 3t-3.5 -1q-5 -8 -9 -15l-7 -16v95q4 8 7 15t6 15q1 2 -1 3t-3 -1 q-2 -6 -4.5 -11.5t-4.5 -11.5v152q4 9 7.5 18t7.5 17q1 2 -1 3t-3 -1l-11 -27v116l12 21l13 21q1 2 -0.5 3t-3.5 -1q-11 -20 -21 -36v136l17 20q9 9 19 18q2 1 1 2.5t-3 -0.5q-9 -8 -18 -17l-16 -17v162q0 5 -1 8.5t-3 7.5l8 23l9 22q1 2 -1 3t-3 -1l-8 -21l-8 -22 q-8 10 -21 10h-21l6 19q3 9 5 20q1 2 -1 2t-3 -2q-2 -10 -5 -19l-6 -20h-111q2 11 3 23t2 26q0 2 -2 2t-2 -2q-1 -14 -2 -26t-3 -23h-11q-19 -19 -35.5 -33.5t-31.5 -24.5q3 37 12 80q4 16 9 28.5t8 29.5q0 2 -2 2t-2 -2q-3 -17 -8 -29t-9 -29q-5 -21 -8 -41.5t-5 -40.5 q-2 -2 -3.5 -2.5t-3.5 -1.5q-12 -6 -27.5 -11.5t-34.5 -10.5q1 8 1.5 16.5t2.5 17.5q2 20 5 32.5t7 32.5q0 2 -2 2q-1 0 -2 -2l-7 -32l-5 -33q-2 -9 -2.5 -18t-1.5 -17l-22 -6q-11 -3 -23 -5q-9 -2 -16 -10t-7 -19v-157q0 -16 11 -25.5t25 -4.5q5 2 8.5 2.5t8.5 2.5 q-1 -21 -1 -42v-43q0 -18 2 -42t5 -48l6 -48q3 -23 6 -41v-3q0 -3 -0.5 -6t-0.5 -6q-3 0 -3 -2q1 -2 1 -5q0 -2 1 -4q-4 -39 -6 -79q-2 -37 -6 -72.5t-12 -66.5q-3 -11 -4 -19t-3 -16q-1 -5 -1.5 -10.5t-2.5 -10.5v3l-1 2q-1 5 -4 2t1 -4q0 -3 -0.5 -6t-0.5 -6v-1 q0 -2 2 -2.5t3 1.5q7 16 8.5 32.5t6.5 32.5q8 32 12 68t6 73q1 16 1.5 32.5t2.5 33.5q3 -4 5 0v2q2 10 1.5 16.5t-2.5 17.5q2 9 3.5 17.5t3.5 17.5q9 38 20 80t20 81q7 29 10.5 54.5t5.5 50.5q5 2 9 5l9 5v-101q-6 -39 -9 -74t-5 -70.5t-2.5 -73.5t-0.5 -83q0 -9 -0.5 -20 t-2 -21.5t-4 -19.5t-6.5 -13q-2 -1 -1 -2.5t3 0.5q5 4 8 13t4.5 20t2 22.5t0.5 20.5q0 40 0.5 75t2 67t4 63.5t6.5 65.5v-287l-4 -10q-4 -10 -9 -24l-11 -28q-5 -15 -11.5 -27.5t-13.5 -20.5q-2 -2 -0.5 -3t2.5 1q8 8 14.5 20.5t12.5 27t11 28.5l9 24v1v-60q0 -13 9 -22 l-16 -22l-15 -24q-1 -2 0.5 -3t3.5 1q7 12 15 23l16 22q7 -5 15 -5h73l-8 -15q-3 -7 -8 -15q-14 -23 -26 -38.5t-25 -38.5q-5 -9 -9 -19t-8 -18q-8 -19 -16 -23q-2 -2 -1 -3.5t3 -0.5q5 3 9.5 10t8.5 15l8 19q4 9 9 18q13 23 25 38.5t26 38.5q5 8 8.5 16t7.5 16h103l-22 -55 q-10 -28 -21 -63q-1 -2 1 -3t3 1q11 35 21.5 64t21.5 56q11 2 17.5 10.5t6.5 19.5v21l10 19z" />
<glyph unicode="2" horiz-adv-x="676" d="M212 313l-60 -56q0 8 0.5 16t0.5 16q2 70 2.5 125t2.5 111q6 5 13 10t15 10q16 11 31.5 18.5t30.5 12.5l-2 -12q-11 -74 -18 -133zM283 379l-66 -61l15 116q7 58 18 130l2 14q29 8 53 8q5 0 10.5 -0.5t10.5 -1.5l-12 -50q-6 -24 -12 -52t-10 -53zM330 583q52 -11 52 -65 q0 -26 -20 -52q-29 -38 -52 -61h1l-23 -22q3 23 7.5 47.5t10.5 51.5t12 51zM500 222h-81l23 22q11 10 23 23v-1q20 20 47 50l-6 -47zM558 222h-54q3 25 6.5 49.5t6.5 49.5l28 32l30 36l6 7q-6 -43 -11.5 -87t-11.5 -87zM112 0h66q-2 -23 -4.5 -44t-7.5 -40q-1 -2 1 -3t3 1 q5 20 7.5 41.5t4.5 44.5h41l-15 -46q-8 -23 -15 -49q-1 -2 1 -3t3 1q7 26 14.5 50t15.5 47h81l-2 -5l-12 -37q-7 -19 -10 -38q0 -2 2 -2t2 2q1 8 3.5 16t4.5 18l8 23l8 23h58q-5 -26 -8 -52t-9 -57q0 -2 1 -2q2 0 3 2q6 30 9 56t8 53h87q-2 -5 -3 -8.5t-3 -7.5 q-6 -15 -11 -29t-9 -30q-1 -2 1 -2t3 2q4 15 9 29l10 28l4 9l3 9h64q-2 -14 -4.5 -26t-7.5 -23q-1 -2 1 -3t3 1q5 11 7.5 24t4.5 27h91q12 0 21 9t9 21v161q0 13 -9 22t-21 9h-62q7 45 12 90l12 90q62 82 62 172q0 55 -22 98q2 15 2.5 30t1.5 32q0 2 -2 2t-2 -2 q-1 -14 -1.5 -28t-2.5 -28q-11 19 -27 36l4 14l4 16q1 2 -1 2t-3 -2q-2 -7 -3.5 -13.5t-3.5 -13.5q-6 7 -13 13t-15 11l-4 3q4 10 7 20t7 19q1 2 -1 3t-3 -1q-3 -10 -6.5 -19.5t-6.5 -19.5l-16 10q-9 5 -19 9l14 40q1 2 -1 3t-3 -1q-3 -11 -6.5 -20.5t-6.5 -19.5 q-56 25 -129 30l15 33q1 2 -1 3t-3 -1l-7 -17l-8 -18q-7 1 -14 1h-13q-18 0 -35.5 -1.5t-34.5 -3.5l2 9q0 2 -2 2q-1 0 -2 -2l-2 -10q-53 -8 -102 -27q3 13 6 30q0 2 -2 2t-2 -2q-2 -9 -3 -16.5t-3 -15.5l-6 -2q-53 -22 -86 -41l-4 26q-2 13 -2 29q0 2 -2 2t-2 -2 q0 -17 2 -30.5t5 -26.5q-17 -10 -28 -21q-3 -2 -6 -9.5t-3 -12.5v-185q0 -11 6 -18.5t14 -10.5t17.5 -0.5t15.5 11.5q6 8 12 14q0 -38 -2 -75l-4 -72q0 -2 2 -2t2 2l4 74q2 38 2 77q7 8 17 16l20 16q-2 -55 -2 -110q0 -54 -2 -123q0 -10 -0.5 -19t-1.5 -17l-37 -35 q2 13 3 27t1 29q0 2 -2 2t-2 -2q0 -17 -1.5 -31.5t-3.5 -28.5l-73 -68q-3 -3 -6.5 -10.5t-3.5 -11.5v-94q0 -12 9 -21t21 -9h12q-3 -23 -5.5 -46.5t-6.5 -43.5q0 -2 1 -2q2 0 3 2q4 20 6.5 43t5.5 47h40q-1 -6 -1.5 -12t-0.5 -12q0 -21 1 -39t3 -33q0 -2 2 -2t2 2 q-2 15 -3 33t-1 39q0 6 0.5 12t1.5 12z" />
<glyph unicode="3" horiz-adv-x="687" d="M16 165q-2 1 -3 -0.5t1 -3.5l9 -7q4 -4 8 -9l-8 -19q-3 -8 -1.5 -18.5t8.5 -16.5q6 -6 16.5 -13t25.5 -16q2 -7 3 -13.5t2 -14.5q5 -36 4.5 -75t4.5 -77q0 -2 2 -2t2 2q-5 39 -5 78q0 38 -4 74q-1 7 -1.5 13.5t-2.5 12.5q14 -8 30 -15l36 -17q6 -3 12 -5.5t12 -4.5 q2 -7 3.5 -14.5t3.5 -15.5q5 -31 5.5 -62.5t10.5 -62.5q1 -2 3 -1t1 3q-10 30 -10.5 61t-5.5 62q-2 8 -3 14.5t-3 13.5q77 -28 172 -28h16q9 0 17 1l34 -33q17 -16 34 -34q15 -17 25.5 -34.5t30.5 -31.5q2 -1 3 0.5t-1 3.5q-19 13 -30 30.5t-26 33.5q-16 18 -32 33l-33 32 q106 6 173 45q26 -23 49 -49l47 -53q1 -2 2.5 -1t-0.5 3l-46 53q-23 26 -49 49q52 32 79 84.5t27 127.5q0 14 -1.5 27.5t-3.5 25.5h15q2 0 2 2t-2 2h-16q-29 134 -193 169l29 27q4 -2 14 -6q34 -14 69 -22l70 -17q2 -1 2 1t-2 3l-70 17q-34 8 -67 22q-4 2 -7 2.5t-6 2.5 l113 106q2 2 5.5 9.5t3.5 12.5v37q14 1 35 -2q2 0 2 2t-2 2q-20 3 -36 2v82q0 12 -9 21t-21 9h-180q40 17 77 30t85 13q28 0 49 -1t46 -3q2 0 2 2t-2 2q-25 2 -46 3t-49 1q-51 0 -90 -14.5t-82 -32.5h-79q4 2 7.5 2.5t7.5 2.5q19 7 37.5 16t37 17t37.5 14.5t41 8.5q2 0 2 2 t-2 2q-22 -2 -41.5 -8.5t-38 -14.5t-37 -17t-38.5 -16q-7 -3 -14 -5l-12 -4h-221q-12 0 -21 -9t-9 -21v-25l-10 -2l-10 -2q-2 -1 -2 -3q0 -1 2 -1l11 2l10 2v-103l-16 -4l-15 -4q-2 -1 -2 -3q0 -1 2 -1q8 2 15.5 3.5t15.5 3.5v-15q0 -13 8.5 -21.5t21.5 -8.5h129l-85 -22 q-43 -11 -88 -21q-2 -1 -2 -3t2 -1q50 11 97 23l91 24h121l-86 -67l-16 -5q-26 -9 -50 -16.5t-49 -12.5t-52 -8t-58 -4q-2 0 -2 -2t2 -2q31 1 58.5 4t52.5 8t49.5 12.5t50.5 16.5l4 2l-26 -20q-2 -2 -5.5 -9.5t-3.5 -11.5v-80q-17 1 -36 1t-37.5 1t-36.5 4t-33 10 q-2 1 -3 -1t1 -3q16 -7 34 -10t37 -4t38 -1t37 -1v-18q0 -13 8 -22t21 -9q108 -3 137 -25q26 -20 26 -44q0 -23 -19.5 -35t-51.5 -12h-11q-32 25 -67 42l-54 25l-51 22q-25 12 -50 26t-52 34q-2 1 -3 -0.5t1 -3.5q27 -20 52 -33.5t51 -25.5q25 -12 50.5 -23t53.5 -25 q35 -17 62 -38q-64 3 -114 28l-53 28q-21 10 -32 17q-11 8 -24 4t-19 -18l-10 -25l-16 14l-15 15q-1 2 -2.5 1t0.5 -3q15 -17 31 -31l-16 -39q-3 7 -6 13t-6 14q-1 2 -3 1t-1 -3q3 -8 7 -15l7 -15l-19 -46q-4 4 -8 7.5t-9 8.5z" />
<glyph unicode="4" horiz-adv-x="741" d="M236 332h-25l26 32q-1 -6 -1 -12v-12v-8zM241 369l121 149v-186h-122v8v15q0 7 1 14zM735 521q2 1 1 3t-3 1q-53 -26 -79 -78t-26 -111v-4h-12v318l20 34l21 34q12 21 27.5 40t23.5 42q1 2 -1 3t-3 -1q-8 -23 -23 -42.5t-28 -39.5l-19 -32l-18 -30v96q0 12 -9 21t-21 9 h-44l18 48q1 2 -1 3t-3 -1q-5 -13 -9 -25.5t-9 -24.5h-112l19 28q10 15 18 30q1 2 -1 3t-3 -1q-8 -16 -17.5 -31t-20.5 -29h-23q-5 0 -13 -3.5t-11 -7.5l-270 -337q4 38 9.5 76.5t7.5 76.5q2 26 5.5 51t14.5 45q12 22 36.5 42t54.5 37t61 29.5t55 20.5q2 1 1 3t-3 1 q-24 -8 -55 -20.5t-61 -30t-55.5 -38t-37.5 -42.5q-11 -21 -14.5 -46.5t-5.5 -51.5q-2 -40 -8 -79.5t-10 -79.5l-77 -96v-126q-13 31 -22.5 62.5t-9.5 71.5q0 29 7 56t17 53l18 53q10 27 14 55q5 36 6.5 74.5t8.5 73.5q6 35 22 65t50 50q2 2 1 3.5t-3 0.5q-35 -21 -51 -52 t-23 -66q-7 -36 -8.5 -74t-6.5 -75q-4 -28 -14 -55l-19 -53q-9 -26 -16 -53t-7 -56q0 -36 8 -65.5t19 -57.5q2 -5 4.5 -10.5t4.5 -11.5v-47q0 -11 8 -19.5t19 -10.5q1 -3 1.5 -6.5t1.5 -6.5q5 -26 9.5 -54t11.5 -56t17 -54t25 -48q2 -2 3.5 -1t0.5 3q-16 21 -26 47t-16.5 54 t-11 56t-9.5 53q-1 5 -3 13h86q8 -20 16.5 -37t18.5 -31q22 -29 36 -62t38 -61q8 -8 17 -19.5t17 -17.5q6 -5 9.5 -4t5 5t1.5 9v9q0 2 -2 2t-2 -2q1 -15 -2 -18q-2 -2 -7.5 2.5t-12.5 11.5l-12 14q-6 7 -8 10q-24 29 -38.5 61.5t-35.5 61.5q-11 14 -19 30.5t-16 35.5h182 l3 -7q11 -23 14 -46.5t8 -46.5q5 -22 10.5 -39.5t11.5 -34.5l14 -32l13 -34q1 -2 3 -1t1 3l-14 33l-13 33q-7 17 -12 34t-10 38q-5 25 -8 48.5t-14 46.5l-2 5h32v-90q0 -12 9 -21t21 -9h114q14 -37 32 -73t38 -54q2 -2 3 -0.5t-1 2.5q-19 18 -36.5 53t-31.5 72h76 q11 0 19.5 7.5t10.5 18.5l3 -7q19 -37 34.5 -64.5t35.5 -57.5q2 -2 3.5 -1t0.5 3q-20 30 -35.5 57.5t-34.5 64.5q-4 7 -7 14v85l40 1q11 -25 25 -49l19 -34q10 -17 20 -39q1 -2 3 -1t1 3q-11 22 -21 39l-18 34q-7 11 -13 22t-11 25h28q13 0 21.5 9t8.5 21v151q0 12 -8.5 21 t-21.5 9h-57v4q0 28 6.5 56t19.5 53t32 44.5t45 31.5z" />
<glyph unicode="5" horiz-adv-x="718" d="M361 526q-20 0 -41 -1.5t-41 -6.5l8 64h64q3 -14 5.5 -28t4.5 -28zM337 196h-5q-35 0 -68 5.5t-67 18.5l-27 11q1 2 1 5t1 6q3 23 4.5 50.5t5.5 53.5l46 -29q4 -3 12.5 -4t13.5 1q40 15 96 15h4l-8 -66q-4 -32 -9 -67zM358 329q38 -2 60.5 -20t22.5 -45q0 -30 -27.5 -48 t-72.5 -20q5 35 9 68zM468 517q-47 9 -102 9h-1q-2 14 -4.5 28t-5.5 28h112q2 -16 2 -32t-1 -33zM569 481q-43 24 -97 35q1 17 1 33q0 17 -2 33h121q-2 -27 -9 -50.5t-14 -50.5zM687 328q-12 50 -41 88t-73 63q4 14 7.5 27.5t7.5 27.5q3 12 5 23.5t3 24.5h30q12 0 21 9t9 21 v36q19 -57 27.5 -116t8.5 -121q0 -23 -1.5 -43t-3.5 -40zM547 846q-1 2 -2.5 1t-0.5 -3l22 -30l22 -29h-111q-23 13 -44.5 28t-38.5 40q-1 2 -3 1t0 -3q17 -24 36.5 -39t41.5 -27h-106l-24 33l-29 35q-1 2 -3 1t0 -3l28 -34l23 -32h-87q-9 17 -22 31.5t-19 34.5q-1 2 -3 1 t-1 -3q7 -20 19 -33.5t22 -30.5h-81l-27 41q-14 20 -21 44q-1 2 -3 1t-1 -3q7 -23 20 -43l27 -40h-31q-19 0 -27 -17q-17 21 -42 37l-57 35q-2 1 -3 -0.5t1 -3.5l50 -30q26 -16 44 -36q4 -4 6 -7q-1 -1 -1 -2t-1 -3l-36 -330q0 -16 13 -27q-7 -27 -12 -50.5l-10 -46.5 l-12 -46q-6 -23 -15 -51q-13 -39 -21 -75l-18 -78q-1 -3 -3 -15t-5 -26l-5 -24q-3 -11 -5 -14q-2 -1 -1.5 -2.5t2.5 -1.5q2 1 3.5 5t2.5 6q5 18 8 36t7 36q9 42 17.5 77.5t21.5 73.5q9 28 15 51.5t11 46.5l10 45q5 23 12 50l78 -49q-3 -27 -5 -55t-5 -52q-1 -2 -1 -5 q0 -2 -1 -5l-30 13q-12 4 -16 5q-12 8 -24.5 3.5t-17.5 -18.5l-55 -147q-4 -11 1 -22.5t15 -16.5q14 -6 37 -14.5t57 -18.5q-2 -31 -7 -60t-15 -49q-1 -2 0.5 -3t2.5 1q11 21 16 50t7 59l16 -4q71 -20 157 -21l-8 -39q-3 -19 -5 -42q-1 -2 1 -2t3 2q2 23 5.5 42t7.5 38h30 q35 0 65.5 3t58.5 8l-6 -57q-3 -28 -5 -56q0 -2 2 -2t2 2q2 28 5 56.5t7 57.5q16 3 31 7.5t29 9.5q4 -14 7 -28l6 -28l4 -27l4 -25q3 -12 7 -22.5t12 -16.5q2 -1 3.5 0.5t-0.5 3.5q-7 5 -11 14t-7 21q-2 12 -4 26l-4 26l-6 29q-3 14 -8 28q69 27 108 75q-8 -48 -10.5 -102.5 t-5.5 -101.5q-1 -2 1 -2t3 2q4 48 6.5 104.5t10.5 105.5q46 61 46 154q0 17 -1.5 32.5t-3.5 30.5l4 46q2 23 2 49q0 66 -9.5 128t-30.5 121v95q0 12 -9.5 21t-21.5 9h-32q-11 15 -23 29.5t-23 31.5z" />
<glyph unicode="6" horiz-adv-x="707" d="M393 518h-1q-70 0 -124 -18q3 16 6.5 29.5t8.5 26.5q24 56 95 56q14 0 27 -0.5t25 -1.5q-8 -23 -18 -46t-19 -46zM315 178q-28 7 -37 25h1q-9 17 -16 82q4 15 9.5 24.5t13.5 15.5h-1q25 17 59 19q-10 -42 -17 -81.5t-12 -84.5zM348 344h5q45 1 67.5 -21.5t22.5 -65.5 q0 -39 -23.5 -61t-65.5 -22q-20 0 -35 3q5 46 12 85.5t17 81.5zM434 610q20 -2 36 -5.5t30 -8.5l32 -11l32 -13q-4 -22 -7 -43t-7 -42q-62 29 -153 31q9 23 19 46t18 45v1zM174 -53v12v-12zM11 -92q-2 0 -2.5 -1.5t1.5 -2.5q5 -2 6 5.5t2 9.5q4 23 4.5 45.5t2.5 45.5 q3 40 10 83l13 89q21 -62 57 -103q29 -32 68 -53q0 -12 1 -23.5t1 -23.5h-1l-1 -2v-1l-1 -2q-1 -5 -2 -14t0 -14q2 -5 4 -5q1 -15 1 -29q0 -15 1 -28q0 -2 2 -2t2 2q-1 14 -1.5 28.5t-0.5 30.5l1 1q2 2 2 7v7q-1 17 -2.5 33t-1.5 33q51 -26 118 -33q-1 -8 -1.5 -17t-1.5 -18 q-2 -17 1 -37t-3 -36q-1 -2 1 -3t3 1q6 17 3 37t-1 38q1 9 1.5 18t1.5 17q25 -3 55 -3q23 0 44 1.5t41 3.5q-6 -28 -8.5 -52t2.5 -39q1 -2 2.5 -1t1.5 3q-5 14 -2.5 38t8.5 52q65 9 113 33q-2 -9 -2 -19v-18q0 -31 3 -63.5t13 -57.5q1 -2 3 -1t1 3q-10 23 -13 55.5t-3 63.5 v19q0 10 2 20q61 32 93 87.5t32 135.5q0 111 -60 180l15 60l17 68q7 29 17.5 56t15.5 57q0 2 -2 2t-2 -2q-5 -29 -15.5 -56.5t-17.5 -56.5l-17 -66q-7 -30 -15 -59q-27 30 -67 50l6 42l8 43q6 -2 12 -5l12 -6q17 -8 29.5 0.5t12.5 26.5v145q0 7 -5 15t-10 11l-4 2l-4 2 q6 16 12.5 31.5t11.5 35.5q0 2 -2 2t-2 -2q-5 -18 -11 -34l-13 -31q-20 8 -47 15.5t-61 12.5q2 10 3 19l2 20q0 2 -2 2t-2 -2l-2 -20q-1 -9 -3 -19q-26 4 -55 6t-60 2q5 14 7.5 28t3.5 28q0 2 -2 2t-2 -2q-1 -14 -4 -28t-8 -28q-86 0 -153 -27l28 34q14 18 25 38q2 2 0 3 t-3 -1q-13 -21 -27.5 -40t-30.5 -37q-53 -23 -94 -62q-98 -92 -98 -321q0 -114 23 -195l-14 -93q-7 -46 -10 -88q0 -5 -1 -20t-2 -32t-3 -32t-4 -18zM141 844q0 2 -2 3t-2 -1q-3 -12 -9.5 -20t-13.5 -18q-9 -12 -16 -27.5t-12 -33.5l-9 -34q-5 -17 -8 -32q-2 -8 -2 -13 q-1 -6 -1 -17t-5 -14q-2 -2 -1 -3.5t3 -0.5q4 3 5 8.5t2 12.5t1 13q0 7 2 14l15 57q7 28 21 56q8 14 17.5 23.5t14.5 26.5z" />
<glyph unicode="7" horiz-adv-x="696" d="M345 469q-46 -70 -83 -134q-19 -32 -36 -65l-35 -68q1 83 9 156t21 153q3 22 6 48h114l2 -45zM345 559h64l-31 -42l-29 -43l-2 43zM116 823q1 2 -1 3t-3 -1q-10 -20 -16 -41h-37q-12 0 -21 -9t-9 -21v-165v-1q-1 -4 -3 -14q-17 -90 -26 -175t-9 -181q0 -33 2.5 -62 t6.5 -57t9 -55.5t9 -57.5q2 -17 2.5 -32.5t1.5 -29.5t2.5 -27.5t5.5 -27.5q1 -2 3 -1t1 3q-5 13 -6 26l-2 27q-1 14 -1.5 29.5t-2.5 32.5q-4 30 -9 57.5t-9 55.5t-6.5 57t-2.5 62q0 96 9 181t26 175l1 5q3 -9 11 -14.5t17 -5.5h53q-2 -26 -3.5 -52.5t-1.5 -52.5 q0 -24 3 -41.5t3 -41.5q2 -82 1 -161t-1 -159q0 -32 1 -59l4 -60q0 -8 1 -15.5t2 -13.5l1 -10v-3q0 -3 2 -3t2 2v1v3l-1 10q-1 6 -2 13.5t-1 15.5l-4 60q-1 27 -1 59q0 80 1 159t-1 161q0 24 -3 41.5t-3 41.5q0 26 1.5 52.5t3.5 52.5h107q-2 -12 -3 -24.5t-3 -23.5 q-14 -81 -22 -156.5t-8 -161.5q-18 -37 -34 -75l-33 -76q-7 -17 2 -29.5t26 -12.5h59q6 -42 18.5 -80.5t36.5 -67.5q2 -2 3.5 -1t0.5 3q-25 29 -37 67t-18 79h162q8 0 13 4q6 -31 15.5 -61.5t23.5 -47.5q2 -2 3.5 -1t0.5 3q-14 17 -23.5 47.5t-15.5 61.5q9 6 12 16 q22 77 47.5 148.5t55.5 139.5q2 -11 3.5 -22t3.5 -22q7 -43 18 -78.5t16 -80.5q2 -15 2.5 -22.5t2.5 -18.5q3 -20 7 -50.5t11 -62t17.5 -58.5t27.5 -40q2 -1 3 0.5t-1 3.5q-16 12 -26.5 38.5t-17 57.5t-10.5 61.5t-7 49.5q-2 11 -2.5 18.5t-2.5 22.5q-6 45 -16.5 80.5 t-17.5 78.5q-2 14 -4 26l-4 25q5 9 8.5 18t8.5 18q23 50 47.5 94t49.5 83l18 -54q5 -15 10 -28l10 -25l9 -24q5 -11 7 -23q1 -2 2 -2q2 0 2 2q-3 14 -7 25.5t-9 23.5l-10 25q-5 13 -10 28l-9 28l-10 28q28 44 56 79v32q7 -17 13 -34t11 -35q1 -2 3 -1t1 3q-5 20 -12 39 l-16 39v98q0 12 -9 21t-21 9h-20q-6 22 -9 47q0 2 -2 2t-2 -2q3 -25 9 -47h-109q-5 16 -9 33l-8 35q-1 2 -3 2q-1 0 -1 -2q4 -19 8 -35.5t9 -32.5h-91q-5 19 -9 42q-1 2 -3 2q-1 0 -1 -2q2 -12 4.5 -22t4.5 -20h-75q2 13 5 26l5 31q0 2 -2 2t-2 -2l-5 -31q-3 -13 -5 -26h-88 q1 8 2 17t1 18q0 2 -2 2t-2 -2q0 -9 -1 -18t-2 -17h-92l8 23l8 23q1 2 -1 3t-3 -1l-8 -23l-8 -25h-52q3 10 7 19.5t9 19.5z" />
<glyph unicode="8" horiz-adv-x="719" d="M359 607q32 0 51 -12.5t19 -35.5t-19 -35t-51 -12q-33 0 -52 12t-19 35q0 24 19.5 36t51.5 12zM407 325q12 -4 22 -14q-5 4 -10.5 7.5t-11.5 6.5zM310 187q-31 12 -40 41l20 -20zM268 236q-1 5 -1.5 10t-0.5 10q0 77 93 77q16 0 31 -3l25 -14l24 -16q12 -18 12 -44 q0 -38 -23.5 -57.5t-67.5 -19.5q-23 0 -41 5l-25 26zM2 237q-2 2 -3.5 1t-0.5 -3q9 -12 16 -24.5t13 -25.5q19 -89 96 -140l21 -28q10 -14 18 -30q12 -23 24.5 -44.5t19.5 -47.5q1 -2 1.5 -8t2 -12.5t4 -11.5t6.5 -5q8 -1 9.5 7.5t4.5 13.5q1 2 -0.5 3t-3.5 -1q-2 -4 -2 -7 q-1 -2 -2 -7.5t-6 -4.5q-2 0 -4 6.5t-3 8.5q-2 7 -2.5 12.5t-0.5 7.5q-7 25 -19 47l-25 45q-8 14 -16 26t-17 24q61 -37 149 -47q2 -8 3 -13q6 -25 11 -50.5t22 -45.5q2 -2 3.5 -1t0.5 3q-12 14 -17 29t-9 32q-2 11 -4.5 23t-5.5 23q17 -2 35.5 -3t37.5 -1q63 0 118 11 l57 -65q27 -33 48 -71q2 -2 3.5 -1t0.5 3q-21 38 -48 70l-56 65q89 18 144 68q21 -24 40 -49.5t28 -51.5q1 -2 3 -1t1 3q-10 26 -28.5 51.5t-40.5 50.5q27 27 43 59l14 -24l12 -23q2 -2 3.5 -1t0.5 3l-14 25l-14 24q23 49 23 113q0 38 -11 73q2 -2 2.5 -4t2.5 -4 q9 -14 16 -29t18 -27q2 -2 3.5 -1t0.5 3q-11 12 -18.5 27t-15.5 29q-6 9 -14 17q-14 33 -37 56h1q-12 13 -25.5 23.5t-27.5 19.5l-2 3q38 27 57 65t19 81v10q0 5 -1 10q15 -17 26.5 -33.5t17.5 -33.5q1 -2 3 -1t1 3q-6 17 -19 35t-30 36q-9 85 -90 138q-86 56 -215 56h-17 q-8 0 -16 -1q-25 10 -50 22t-51 29q-2 1 -3 -0.5t1 -3.5q24 -16 48 -27l46 -21q-38 -2 -70.5 -10t-60.5 -20l-60 36l-59 37q-2 1 -3 -0.5t1 -3.5l58 -36q26 -17 58 -35q-11 -5 -20.5 -10.5t-18.5 -11.5q-47 -32 -69 -74q-24 20 -43 44q-2 2 -3.5 1t-0.5 -3q23 -26 45 -45 q-19 -38 -19 -86q-8 6 -17 12l-18 10q-2 1 -3 -0.5t1 -3.5q10 -5 19 -11l18 -12q1 -40 18.5 -77.5t56.5 -65.5l-23 -15q-11 -8 -20 -17l-27 25q-14 11 -32 21q-2 1 -3 -0.5t1 -3.5q18 -10 31.5 -21t26.5 -24q-28 -27 -44 -66l-7 8q-4 3 -9 6q-2 2 -3 0.5t1 -2.5l16 -16 q-13 -38 -13 -87q0 -22 3 -41q-5 10 -10.5 19.5t-12.5 18.5zM350 874q-2 1 -3 -1t1 -3l105 -49q47 -23 90 -49t83 -59t84 -79q1 -2 2.5 -1t-0.5 3q-44 46 -84 79.5t-83 60t-90 49.5zM26 96q-1 2 -3 2t-1 -2l9 -42q4 -23 11 -46.5t15.5 -44.5t20.5 -36q2 -2 3.5 -1t0.5 3 q-12 15 -20.5 36t-15.5 44t-11.5 46t-8.5 41z" />
<glyph unicode="9" horiz-adv-x="707" d="M170 205q-14 5 -26.5 10.5t-26.5 12.5q-15 6 -25 2q2 8 3 13q5 20 7 43l4 46q31 -26 71 -41q-2 -22 -3.5 -43.5t-3.5 -42.5zM306 451q-41 20 -41 78q0 47 35 69q5 -36 5.5 -73t0.5 -74zM272 177q-19 2 -34.5 5t-29.5 8h1l-18 6l-17 7q4 43 6 87q49 -18 111 -21l-6 -33 q-3 -15 -7 -32q-3 -12 -6 -27zM437 493q-8 -26 -21 -33q-30 -18 -62 -18q-25 0 -44 8q0 38 -1 75.5t-6 74.5q21 12 51 12q60 0 74 -29l3 -9q6 -39 6 -81zM395 192q-25 -17 -65 -17q-14 0 -27.5 0.5t-26.5 1.5l6 27q4 16 7 32l6 32h21q51 0 93 9q-2 -7 -2.5 -13.5t-2.5 -13.5 q-2 -15 -4.5 -29.5t-4.5 -28.5zM414 278q5 2 11 3t11 3q-2 -13 -4.5 -24.5t-6.5 -23.5q-8 -27 -26 -41q2 14 4.5 27.5t4.5 27.5q2 7 3 14t3 14zM439 536l2 -12q1 -6 2 -14l-2 -6q0 8 -0.5 16t-1.5 16zM588 721q-46 45 -116 63q-10 18 -21 35l-21 34q-2 2 -3.5 1t-0.5 -3 l21 -32l20 -33q-49 13 -113 13h-17q-17 28 -27 56q-1 2 -3 1t-1 -3q10 -26 26 -54q-54 -1 -101 -12q-7 16 -11 33.5t-4 37.5q0 2 -2 2t-2 -2q0 -20 4 -38t11 -34q-38 -9 -69 -24q-11 22 -20 43.5t-11 50.5q0 2 -2 2t-2 -2q2 -29 11.5 -51.5t20.5 -43.5q-38 -18 -65 -45 q-2 12 -4.5 23.5t-5.5 22.5q-5 20 -11 39t-8 39q0 2 -2 2t-2 -2q2 -20 8 -40t11 -40l6 -23q3 -12 5 -24q-27 -27 -44 -66l-17 83q-8 41 -8 86q0 2 -2 2t-2 -2q0 -40 6 -76t14 -71q2 -7 3 -14t3 -15q-18 -47 -18 -106q0 -67 22 -117l-6 -22q-2 -11 -6 -22q-8 -24 -21 -44.5 t-19 -44.5q-1 -2 1 -2t3 2q5 17 13.5 32t16.5 31q13 26 21 63q19 -44 55 -75q-1 -25 -3.5 -48t-7.5 -44q-2 -10 -4 -15q-13 -8 -13 -27v-22l-37 -118q-19 -58 -26 -121q0 -2 2 -2t2 2q6 59 24 114l35 112v-110q0 -6 5.5 -14.5t10.5 -11.5q13 -7 35 -15q-9 -31 -20 -60.5 t-27 -56.5q-1 -2 0.5 -3t3.5 1q16 27 27 57t19 61q19 -6 42.5 -10.5t50.5 -8.5q-13 -34 -27 -66t-30 -58q-1 -2 0.5 -3t3.5 1q16 26 30 58.5t27 67.5q48 -6 104 -6h14q7 0 14 1q-12 -39 -33 -79l-20 -35q-9 -15 -20 -31q-1 -2 0.5 -3t3.5 1q11 16 20 31l20 35q21 40 33 81 q29 2 55.5 6.5t50.5 12.5q-8 -33 -21.5 -67t-21.5 -65q-1 -2 1 -3t3 1q8 32 21.5 66.5t22.5 69.5q67 23 116 69q18 16 33 39q-2 -6 -2.5 -12.5t-2.5 -12.5q-5 -23 -14.5 -48.5t-21.5 -52.5l-23 -52l-23 -48q-1 -2 1 -3t3 1q10 23 22.5 48.5t23.5 51.5q12 27 21.5 53.5 t14.5 49.5l6 33q59 94 59 274q0 214 -83 306l-4 4l-3 3l-28 64q-13 30 -27 69q-1 2 -3 1t-1 -3q13 -36 25 -65z" />
<glyph unicode=":" horiz-adv-x="214" d="M98 196h-28q1 5 1.5 10.5t0.5 11.5q2 36 5.5 74.5t7.5 77.5h34l-8 -75q-4 -36 -9 -71l-2 -14q-1 -6 -2 -14zM163 196h-61l2 14l2 14q5 34 9 71l8 75h45h1q-1 -45 -3 -87.5t-3 -86.5zM164 586q-1 2 -3 2q-1 0 -1 -2q1 -5 1.5 -10t1.5 -10h-25v32q0 2 -2 2t-2 -2v-32h-41 q-1 20 -4.5 36.5t-12.5 36.5q-1 2 -3 1t-1 -3q9 -20 12.5 -36t4.5 -35h-43q-10 0 -17 -7t-7 -18v-146q0 -11 7 -18t17 -7h35q-4 -39 -7.5 -77.5t-5.5 -74.5q0 -6 -0.5 -11.5t-1.5 -10.5h-20q-10 0 -17 -7t-7 -18v-146q0 -11 7 -18t17 -7h30q0 -10 0.5 -19.5t1.5 -18.5 q0 -2 2 -2t2 2q-1 10 -1.5 19t-0.5 19h73q-4 -26 -7 -49t-2 -51q0 -2 2 -2t2 2q-1 28 2 51t7 49h11q10 0 17 7t7 18v146q0 11 -7 18t-17 7h-1q1 44 3 86.5t3 87.5q8 2 13.5 9t5.5 16v146q0 11 -7 18t-17 7h-1q-1 5 -1.5 10t-1.5 10z" />
<glyph unicode=";" horiz-adv-x="214" d="M111 217h-35q1 37 1.5 74.5t2.5 76.5v2h38q0 -43 -2 -80.5t-5 -72.5zM156 217h-41q3 35 5 72.5t2 80.5h45q-2 -41 -4.5 -78t-6.5 -75zM149 -81l43 123v148q0 11 -7 19t-17 8h-8q4 38 6.5 75t4.5 78q9 2 15 8.5t6 16.5v146q0 11 -7 18t-17 7h-5q-2 20 -3 40.5t-2 43.5 q0 2 -2 2t-2 -2q1 -23 2 -43.5t3 -40.5h-51q-4 25 -7.5 50t-6.5 50q0 2 -2 2t-2 -2q3 -26 6.5 -50.5t6.5 -49.5h-27q-5 22 -12 37q-1 2 -3 1t-1 -3q7 -15 12 -35h-26q-10 0 -17 -7t-7 -18v-146q0 -11 7 -18t17 -7h30v-2q-2 -39 -2.5 -76.5t-1.5 -74.5h-26q-10 0 -17 -8 t-7 -19v-141q0 -11 7 -19t17 -8h26l-30 -87q-5 -14 2 -25.5t21 -11.5h3q-3 -19 -7.5 -36.5t-12.5 -34.5q-1 -2 1 -3t3 1q8 17 12.5 35t7.5 38h25q1 -7 1.5 -13.5t1.5 -12.5q0 -2 2 -2t2 2q-1 7 -1.5 13t-1.5 13h25q11 0 20 12v-18q0 -2 2 -2t2 2v14q0 6 -1 13z" />
<glyph unicode="&#x3c;" horiz-adv-x="617" d="M396 269l-46 19l56 23l-6 -21zM446 249l-46 19q2 11 4.5 22t5.5 22l60 25l-13 -45q-6 -22 -11 -43zM465 241l-15 6q5 22 11 45l13 47l34 13q-2 -5 -5 -10.5t-5 -10.5q-10 -23 -18 -45zM116 514q0 2 -2 2q-1 0 -2 -2q-5 -29 -13 -59l-17 -63l-41 -16q-8 -2 -13.5 -11 t-5.5 -17v-120q0 -10 9 -21l-9 -42q-6 -26 -13 -53q-7 -29 -15.5 -54.5t-17.5 -40.5q-1 -2 0.5 -3t3.5 1q9 15 17 41t16 55q7 26 12 51l9 42q2 -2 3.5 -2.5t3.5 -1.5l72 -29q-1 -10 -1 -20v-19v-48q0 -2 2 -2t2 2v48v18q0 10 1 20l58 -24q-3 -26 -6.5 -46t-5.5 -46 q-1 -1 -1 -3v-9q0 -2 1 -1h1h1q1 -1 1 0v1v5v4q2 26 6 47l7 47l107 -43q-8 -43 -24 -77q-1 -2 1 -3t3 1q15 35 24 77l11 -4q-7 -38 -12.5 -79t-10.5 -89q0 -2 2 -2t2 2q9 93 22 166l90 -36l-24 -69q-1 -2 1 -3t3 1l13 36q6 17 11 34l8 -3l-22 -64q-12 -32 -20 -63 q-1 -2 1 -3t3 1q8 32 19 64l23 63l145 -58q16 -6 28 2.5t12 25.5v146q0 8 -5.5 17t-13.5 11l-107 44q7 23 15 44.5t18 44.5l6 13q2 6 5 12l63 26q8 2 13.5 11t5.5 17v147q0 10 -7 21q1 9 1.5 18.5t0.5 19.5q0 2 -2 2t-2 -2v-18q0 -8 -1 -17q-13 12 -30 4l-14 -6q3 24 3 49 q0 2 -2 2t-2 -2q0 -26 -3 -50l-57 -23l15 45q7 22 11 46q0 2 -2 2t-2 -2q-4 -24 -11 -47l-16 -46l-79 -32q13 47 29.5 95t16.5 98q0 2 -2 2t-2 -2q0 -26 -5 -50.5t-12 -48.5t-15.5 -48t-14.5 -48l-78 -32q2 39 4.5 77t2.5 80q0 2 -2 2t-2 -2q0 -42 -2.5 -81t-4.5 -77 l-89 -36l1 3q3 19 5 38.5t2 42.5q0 2 -2 2t-2 -2q0 -23 -2 -42.5t-5 -37.5l-1 -6l-73 -29q2 23 3.5 46t1.5 46q0 15 -0.5 22.5t-3.5 22.5q-1 2 -3 2q-1 0 -1 -2q3 -15 3.5 -22.5t0.5 -22.5q0 -23 -1.5 -46.5t-3.5 -47.5l-53 -21l17 61q8 30 13 59z" />
<glyph unicode="=" horiz-adv-x="620" d="M167 171h-70l-15 54l-12 52h96v-55q0 -26 1 -51zM261 171h-90q-1 25 -1 51v55h90v-52q0 -26 1 -54zM337 171h-72q-1 28 -1 54v52h64q1 -29 3.5 -55t5.5 -51zM432 171h-91q-3 25 -5.5 51t-3.5 55h82q2 -17 4.5 -34t5.5 -35q2 -10 4 -19zM503 171h-67l-4 18q-2 9 -4 19 q-3 18 -5.5 35t-4.5 34h62l8 -43q3 -20 8 -38q2 -7 3.5 -13t3.5 -12zM474 508q0 2 -2 2t-2 -2q-1 -20 -1.5 -35t-0.5 -35v-7h-64q-1 25 -1.5 51t-0.5 54q0 2 -2 2t-2 -2q0 -28 0.5 -54t1.5 -51h-66v5q0 2 -2 2t-2 -2v-5h-64v41q0 2 -2 2t-2 -2v-41h-88q1 25 1.5 50.5 t0.5 52.5q0 2 -2 2t-2 -2q0 -27 -0.5 -52.5t-1.5 -50.5h-118h-3q-1 11 -1 21v22q0 26 3.5 48t8.5 46q1 2 -1 2t-3 -2q-5 -24 -8.5 -46t-3.5 -48v-22q0 -11 1 -22q-10 -2 -16.5 -8t-6.5 -14l1 -108q0 -9 9 -16t21 -7h13l12 -52l15 -54h-41q-12 0 -21 -6.5t-9 -16.5v-108 q0 -9 9.5 -16t21.5 -7h80l10 -39l13 -46q5 -20 7.5 -44t7 -48t12.5 -45t24 -36q2 -2 3 -0.5t-1 2.5q-15 15 -23 36t-12 45t-6.5 47.5t-7.5 42.5q-7 28 -13 47l-10 38h42q1 -6 1.5 -12.5t1.5 -12.5l4 -28q2 -9 4 -15q2 -7 4.5 -13t5.5 -20q2 -8 4 -29.5t7 -41.5q1 -7 4 -15 t7 -13t10 -4.5t14 12.5q1 2 -0.5 3t-3.5 -1q-6 -9 -10 -10t-6 1q-6 6 -11 28q-5 20 -7 41t-4 29l-6 21q-2 7 -4 13t-3.5 14.5t-4.5 27.5q-1 7 -1.5 13t-1.5 12h90l6 -46q3 -24 5 -49q1 -11 1 -22q0 -12 2 -23q2 -10 6.5 -18t16.5 -11q2 -1 2 1t-2 3q-16 4 -19 26 q-2 11 -2 22t-1 22q-2 26 -5 49l-6 46h79q2 -22 5 -46.5t7 -49t9.5 -46.5t14.5 -40q1 -2 3 -1t1 3q-9 17 -14.5 39t-9.5 46t-7 48.5t-5 46.5h108q4 -35 6.5 -69t9.5 -68q1 -2 2 -2q2 0 2 2q-7 35 -9.5 68.5t-6.5 68.5h65q3 -21 5 -42.5t4 -46.5q0 -2 2 -2t2 2q-2 25 -4 46 l-4 43h27q12 0 20.5 7t8.5 16v108q0 10 -9 16.5t-21 6.5h-61q-2 6 -3.5 12.5t-3.5 12.5q-5 19 -8 39l-8 42h85q12 0 20.5 7t8.5 16v108q0 10 -9 16.5t-21 6.5h-96v7q0 20 0.5 35t1.5 35z" />
<glyph unicode="&#x3e;" horiz-adv-x="620" d="M177 251l-127 -52q8 29 14.5 55t14.5 52q5 14 8.5 26.5t8.5 25.5l105 -42l-12 -33zM249 279l-67 -26q6 15 11.5 30.5t11.5 30.5l49 -20zM258 293l12 -5l-16 -7zM582 434q0 2 -2 2t-2 -2q0 -14 -0.5 -28.5t-1.5 -28.5l-41 17l3 42q0 2 -2 2t-2 -2l-3 -41l-61 25 q1 21 1.5 44t0.5 48q0 2 -2 2t-2 -2q0 -25 -0.5 -47.5t-1.5 -43.5l-53 22l7 37q3 16 8.5 31.5t7.5 34.5q0 2 -2 2t-2 -2q-2 -19 -7.5 -34.5t-8.5 -31.5l-7 -36l-72 29q11 24 25 49l28 53q1 2 -0.5 3t-3.5 -1l-28 -53l-25 -49l-55 22l16 35l14 35q1 2 -1 3t-3 -1 q-6 -17 -14 -35l-16 -36l-103 42q22 44 50 81t55 78q1 2 -0.5 3t-3.5 -1q-27 -41 -54.5 -78t-50.5 -82l-104 42q-15 6 -28 -2.5t-13 -25.5v-147q0 -8 6 -17t14 -11l50 -20q-5 -14 -8 -26l-8 -27q-8 -26 -15 -53l-16 -57l-3 -1q-8 -2 -14 -11t-6 -17v-60l-10 -37l-30 -109 q-16 -57 -30 -112q-1 -2 1 -2t3 2l30 111l30 108l6 23v-70q0 -17 13 -25.5t29 -2.5l15 6q-20 -39 -37.5 -79.5t-17.5 -72.5q0 -2 2 -2t2 2q0 32 18.5 73.5t38.5 80.5l97 39l-6 -35q-7 -35 -15 -69t-19 -60q-1 -2 1 -3t3 1q11 27 19 61t15 69q2 10 3 19t3 19l154 61 q-5 -17 -9 -35l-9 -41q-2 -11 -4 -25.5t-5 -29.5t-6.5 -29t-8.5 -23q-1 -2 0.5 -3t3.5 1q5 9 8.5 23t6.5 29.5t5 30.5t4 26q5 23 9.5 41.5t9.5 36.5l95 38l-2 -26q-2 -28 -5.5 -62t-4.5 -64q0 -2 2 -2t2 2q1 30 4.5 64t5.5 62q1 7 1.5 14t0.5 14l75 29q-1 -9 -1 -18v-19 q0 -17 -1 -38l-3 -44q-2 -22 -1.5 -43t5.5 -36q1 -2 3 -1t1 3q-5 15 -5.5 35.5t1.5 42.5l3 43q1 21 1 38v19q0 10 1 20l42 17q0 -41 0.5 -75.5t-3.5 -72.5q0 -2 2 -2t2 2q4 38 3.5 73t-0.5 77l11 4q6 2 12 11t6 17v120q0 8 -5.5 16t-12.5 11q1 15 1.5 29.5t0.5 29.5z" />
<glyph unicode="?" horiz-adv-x="583" d="M147 398q-4 40 -11 76.5t-19 78.5l11 6q5 4 11 7q3 -41 5.5 -82t2.5 -86zM272 477l-12 -8l-13 -9q-19 -16 -33 -31t-24 -31q-1 51 -2.5 96t0.5 94l7 3q27 11 49 16.5t40 5.5q5 0 15 -2q-3 -34 -9 -67t-18 -65v-2zM303 609q12 -5 18 -14q17 -19 17 -40q0 -12 -7 -23 t-18 -21l-16 -14l-20 -15q12 32 17.5 63.5t8.5 63.5zM185 221q1 8 1.5 16t1.5 16q3 -1 8 -1h6q-5 -8 -9 -16zM261 218h-72h-1q10 19 19 34h76q-5 -9 -11 -17.5t-11 -16.5zM294 218h-28l11 17q5 8 10 17h29l-11 -17zM159 15l1 9q0 -1 0.5 -2t0.5 -3zM340 218h-42q6 8 11.5 17 t11.5 17h14q11 0 19.5 9t8.5 20l2 22q1 9 4 16.5t10.5 16.5t20 19.5t32.5 24.5q-27 -42 -48 -80zM20 748q0 2 -2 2t-2 -2q-2 -42 -6 -78.5t-4 -81.5q0 -44 1.5 -81.5t4.5 -73.5t7.5 -71.5t10.5 -75.5t22.5 -77t25.5 -75q11 -48 17.5 -94t16.5 -91q-2 -14 -4.5 -28t-7.5 -28 q-1 -2 1 -3t3 1l5 24q3 12 5 23q2 -5 4 -15q1 -2 3 -1t1 3l-6 24q3 18 5.5 38t6.5 43l2 12l2 12q-2 -16 -2.5 -31.5t-1.5 -30.5q0 -2 2 -2t2 2q2 29 3.5 59.5t4.5 62.5q5 44 8.5 88.5t3.5 86.5q0 11 -0.5 22t-0.5 21q1 67 -1.5 123.5t-6.5 112.5q10 5 20 9l21 10 q-2 -51 -0.5 -97t2.5 -98q-21 -35 -21 -73v-37q0 -9 5.5 -16.5t13.5 -11.5q-2 -10 -3.5 -19.5t-3.5 -19.5q-8 -4 -13 -11t-5 -17v-55q-2 -6 -3.5 -12t-3.5 -11q-1 -2 1 -3t3 1l3 10v-62l-1 -10l-8 -14q-3 -6 -8 -14q-1 -2 0.5 -3t3.5 1l5 9l6 10l-3 -27q-4 -9 -7 -17.5 t-5 -17.5q-1 -2 1 -2t3 2l4 12l4 12v-8q0 -2 2 -2t2 2v17q2 3 3 5.5t2 4.5q10 -15 27 -15h22q-12 -18 -18 -31l-14 -26q-7 -13 -18 -24q-1 -2 0.5 -3t3.5 1q5 6 9 12t9 12q9 15 16 30t17 29h87l-20 -22l-25 -24t-24.5 -20t-16.5 -8q-2 0 -2 -2t2 -2q6 0 18.5 9t26.5 21.5 t26 25.5l20 22h32q12 0 20.5 9t8.5 21v62l21 38l20 39q23 46 43 91.5t40 84.5q19 38 42 72.5t36 75.5q1 2 -1 3t-3 -1q-12 -41 -35.5 -76t-42.5 -72q-20 -40 -40 -85t-43 -91l-18 -36q-9 -18 -19 -35v87q0 11 -7 20t-18 11l44 83q22 39 50 83q22 14 41.5 31.5t37.5 38.5 q33 37 40 89q5 8 8 15t6 15q1 2 -1 3t-3 -1q-3 -11 -9 -22q1 6 1 11v12q0 52 -27 96q8 26 14.5 52t10.5 58q0 2 -2 2t-2 -2q-4 -30 -10 -55.5t-14 -49.5q-12 16 -27 33q12 28 22 57t7 59q0 2 -2 2t-2 -2q3 -29 -6.5 -57.5t-21.5 -55.5l-7 6q-3 4 -7 7q-25 22 -54 35 q9 21 17.5 43t16.5 45q1 2 -1 3t-3 -1q-8 -24 -16.5 -46t-17.5 -42q-47 20 -107 24q2 14 3.5 28t1.5 29q0 2 -2 2t-2 -2q0 -15 -1.5 -29t-3.5 -28q-7 1 -13 1h-13h-1q-39 0 -84 -13q5 30 13 57.5t19 56.5q1 2 -1 3t-3 -1q-11 -29 -19 -57.5t-13 -59.5q-11 -2 -22 -5.5 t-22 -7.5q-7 -2 -14 -5l-13 -4q-3 54 -3 116q0 2 -2 2t-2 -2q0 -63 3 -118q-16 -5 -30 -11t-27 -11q-2 11 -3 23.5t-1 25.5q0 11 0.5 18.5t1.5 18.5q0 2 -2 2t-2 -2q-1 -11 -1.5 -18.5t-0.5 -18.5q0 -14 1 -26.5t3 -24.5q-8 -4 -15 -7t-14 -7q-8 -5 -12.5 -16t-1.5 -21 l37 -114q5 -15 18 -19.5t26 3.5q6 4 10 6q8 -29 14 -55t10 -52t6.5 -53.5t2.5 -58.5q1 -11 0.5 -23t-1.5 -25l-4 -84q-2 -42 -6 -86q-2 -22 -5.5 -43t-6.5 -41l-5 -37q-3 -17 -5 -33q-9 43 -15 86t-17 88q-9 39 -25.5 76t-22.5 76q-6 40 -10.5 75.5t-7.5 71.5t-4.5 73.5 t-1.5 81.5q0 45 4 81.5t6 78.5z" />
<glyph unicode="@" horiz-adv-x="929" d="M196 171q-17 51 -17 108q0 94 46 169l-2 -55q-1 -27 -3 -53q-5 -50 -11 -90.5t-13 -78.5zM220 120q-13 22 -21 43q7 40 13.5 82.5t11.5 94.5q2 28 3.5 56.5t1.5 57.5q18 27 40 49q9 9 18 16l18 16q-8 -23 -12 -43l-9 -46q-4 -18 -7.5 -36.5t-7.5 -37.5q-32 -64 -32 -135 q0 -8 0.5 -14.5t1.5 -13.5l-9 -46zM361 262q-1 4 -1 12q0 36 36 71q5 5 9.5 9t9.5 7l-16 -29l-17 -31q-5 -10 -10.5 -19.5t-10.5 -19.5zM493 490q-3 1 -6 1t-6 1l17 40l17 42l8 19q31 -3 54 -10l-46 -52q-11 -11 -20 -22zM228 106q-1 3 -5 9q5 20 9 40l8 41q3 -20 9 -38 q-12 -25 -21 -52zM641 473h-36l-12 -48q-15 34 -55 51q-19 8 -40 13l16 19l19 21l48 53q55 -16 101 -54l-6 -10l-8 -9zM403 170q-9 6 -17 14q-22 22 -25 71q7 11 13 22l12 22l19 35l16 31q26 16 58 16q39 0 61 -25q4 -4 6 -7l-69 -86zM303 29l-15 12q-8 6 -16 14 q-23 22 -41 47v1h1q4 14 8.5 26.5t10.5 23.5q8 -22 21 -38q-2 -5 -4 -8.5t-4 -7.5q-1 -2 1 -3t3 1q3 7 7 14l8 -10q3 -4 8 -8q9 -8 18.5 -15t19.5 -13l-6 -8q-5 -8 -10 -15zM699 437l7 36h-60q7 8 13 16.5t13 17.5q3 5 6.5 9.5t6.5 9.5l2 -2q28 -25 45 -49l-16 -20zM482 165 q-15 -7 -36 -7q-22 0 -39 10l73 93l68 85q14 -20 14 -49q0 -25 -11 -50l-35 -42zM346 0q-11 6 -20.5 12t-19.5 14q5 7 10.5 14t10.5 15l5 8q25 -13 51 -17q-10 -11 -19 -23zM545 233q-4 -7 -7 -13t-8 -13q-19 -26 -39 -38l27 31zM645 188v3l52 238l18 21q9 10 20 21 q34 -50 34 -113q0 -14 -1 -27t-3 -26l-57 -58l-57 -54zM376 -14l-13 6q-7 3 -14 7l20 23l18 23q8 -1 14.5 -1.5t14.5 -0.5q36 0 64 19q30 20 43 38q2 -6 2 -8l-34 -28q-17 -14 -36 -26q-20 -14 -40.5 -25.5t-38.5 -26.5zM764 298q-7 -46 -32 -88q-36 -62 -71 -62l-11 9 q-7 9 -7 20q0 3 1 5l9 9q28 24 56 51t55 56zM454 -32q-37 3 -73 17q17 14 37 26l39 23q19 12 36 26l34 28q8 -25 21 -35q15 -10 29 -12l-40 -27q-19 -13 -44 -26l-19 -10zM391 483q-59 -18 -96 -69q-5 -8 -10 -15t-10 -15q3 16 6.5 31.5t6.5 30.5q6 27 10 47t12 46 q63 47 139 54l-28 -55zM454 594q8 0 14.5 0.5t14.5 0.5q9 0 18 -0.5t18 -1.5l-8 -18q-9 -20 -17 -41l-17 -42q-5 1 -9 1h-8q-32 0 -64 -8l30 54zM235 -47q11 -8 23 -15l23 -14l-3 -3l-28 -27q-14 -13 -29 -29q-2 -1 -0.5 -2.5t2.5 0.5l30 28l28 28l3 3q56 -29 121 -41 l-39 -3q-2 0 -2 -2t2 -2l27 2q13 1 26 3q18 -2 36 -3.5t37 -1.5q108 0 199 56q89 55 118 109q34 15 71 21q2 0 2 2t-2 2q-38 -6 -72 -21h-94q-26 -29 -90 -53q-59 -20 -125 -23l13 6q7 4 15 7q43 19 89 35l90 32q45 16 89.5 33.5t87.5 39.5q2 1 1 3t-3 1 q-43 -22 -87.5 -39.5t-89.5 -33.5l-90 -32q-46 -16 -89 -35l-19 -9l-17 -8h-10h-17q8 5 16.5 8.5t16.5 8.5q26 14 46 27l42 29l1 1q99 0 188 93q17 17 29.5 34t23.5 36q20 9 41 16t44 12q2 1 2 2q0 2 -2 2q-22 -5 -42 -11.5t-40 -14.5q34 64 34 143q0 24 -3 48q11 14 23 26 l22 26q1 2 -0.5 3t-3.5 -1l-20 -24l-22 -25q-12 72 -60 135q28 31 50 64q1 2 -0.5 3t-3.5 -1q-10 -16 -22 -32l-27 -31q-8 11 -18 21l-22 22q-3 4 -6.5 7t-7.5 6q2 3 5 6t6 7q27 32 57.5 60.5t54.5 63.5q1 2 -0.5 3t-3.5 -1q-23 -35 -54 -63.5t-58 -60.5q-2 -3 -5 -6t-5 -6 q-42 34 -88 53q27 29 55 56t58 52q2 2 1 3.5t-3 0.5q-31 -26 -59 -54l-56 -56q-20 8 -40 13.5t-43 9.5q13 25 27 48q10 16 23.5 34.5t24.5 35.5q1 2 -0.5 3t-3.5 -1q-11 -17 -24.5 -35.5t-23.5 -34.5q-7 -11 -13 -23l-14 -26q-30 4 -64 6q5 13 9 26l8 25q1 2 -1 3t-3 -1 l-8 -27q-4 -13 -9 -26h-8q-64 0 -118 -16l39 81q1 2 -1 3t-3 -1l-21 -43q-10 -21 -19 -42q-66 -19 -123 -62q0 7 1 13.5t2 14.5q5 37 18.5 71t21.5 71q1 2 -1 2t-3 -2q-8 -36 -21.5 -70.5t-18.5 -71.5q-2 -8 -2.5 -16t-1.5 -16q-24 -18 -44 -39q-28 -28 -52 -63l-10 118 l-10 116q0 2 -2 2t-2 -2l10 -119l10 -120q-65 -97 -65 -213q0 -153 106 -273q1 -12 1 -24v-25q0 -19 -1.5 -41t-2 -44.5t1.5 -44t10 -39.5q2 -2 3 -2q2 0 2.5 5.5t1.5 7.5q1 1 3 4t-2 2t-5 -4.5t-1 -6.5q-11 27 -10.5 60t2.5 65q1 -10 1 -19q0 -10 1 -21q0 -2 2 -2t2 2 q-1 20 -1.5 35.5t-0.5 36.5v24q0 11 1 22l5 -5l23 -21q11 -11 23 -20q-8 -23 -18.5 -43t-15.5 -45q-1 -2 1 -2t3 2q5 24 15 43.5t18 41.5z" />
<glyph unicode="A" horiz-adv-x="1054" d="M535 465l90 -174h-186zM315 718l9 -3q19 -5 37 -11l35 -10l-5 -10q-20 8 -38 16zM312 -37q-45 7 -89 15t-95 22h124q15 -10 30 -19zM902 0h96q-6 -2 -15 -2h-20q-16 0 -31.5 0.5t-29.5 1.5zM766 19l1 -2v-1q-8 2 -16 3l-15 2zM662 48q-2 0 -2.5 -1.5t1.5 -2.5 q26 -5 49 -7t48 -3l6 -11q-11 1 -20.5 1.5t-19.5 1.5q-4 0 -2 -3q-35 5 -71.5 8.5t-80.5 3.5q-2 0 -2 -2t2 -2q60 0 107.5 -6t93.5 -13q10 -12 23 -12h63q48 -6 106 -6q18 0 29.5 1t19.5 5h16q13 0 21 6q27 1 52.5 4t47.5 12q2 1 1.5 3t-2.5 1q-20 -8 -44.5 -11.5 t-49.5 -4.5q5 7 6 16t-4 18l-33 61l23 -12l24 -12q22 -11 46.5 -20.5t47.5 -19.5q23 -9 43.5 -19t35.5 -22q2 -1 3.5 0.5t-0.5 3.5q-16 12 -37 22t-44 19l-47 20q-24 9 -47 20l-25 13q-13 6 -26 14l-182 340l63 -16l69 -18l102 -25l91 -22l90 -20l104 -23q35 -8 74 -16 t80 -15t81 -11.5t77 -4.5q2 0 2.5 1.5t-1.5 2.5l-19 4q-8 1 -19 2q-2 0 -2.5 -2t1.5 -2q5 0 8 -0.5t7 -1.5q-72 3 -145 18l-143 29l-104 23l-90 20l-90 22l-103 25l-71 19l-65 16l-48 90q46 -10 94.5 -15.5t107.5 -5.5q9 0 26.5 2.5t24.5 9.5q2 1 0.5 2.5t-3.5 -0.5 q-5 -5 -21.5 -7.5t-26.5 -2.5q-60 0 -109 5.5t-96 16.5l-30 57l35 -7l206 -37q93 -17 182.5 -28t184 -17t209.5 -6h21q14 0 28.5 0.5t27 2t17.5 4.5q2 4 -1 4q-17 1 -25 3t-21 2q-10 0 -16.5 -1t-16.5 -1q-2 0 -2 -2t2 -2q10 0 16.5 1t16.5 1q12 0 19 -1t18 -3 q-8 -2 -18.5 -2.5t-22.5 -1.5h-43q-115 0 -209 6t-183.5 17t-182.5 28l-206 37l-39 7l-21 40q16 -2 32 -2.5t36 -1.5q29 -1 53 -2t47 -2.5t47 -2.5t53 -2q54 -2 105.5 -6t102.5 -6q-9 -2 -21 -3q-2 0 -1.5 -2t2.5 -2q17 2 27.5 4t27.5 2q2 0 2 2t-2 2q-60 0 -120 5.5 t-123 7.5q-29 1 -53 2t-46.5 2.5t-46.5 2.5t-54 2q-20 1 -37 1.5t-33 2.5l-59 110q-4 7 -12 12t-15 5h-177q-6 0 -14.5 -5t-12.5 -11l-31 -54l-12 23l-13 24l-21 39l-18 35l-19 35l-23 38q-1 2 -3 1t0 -3l23 -38l19 -35l18 -35q9 -18 21 -39l13 -25l13 -24l-7 -13l-35 11 l-38 11q-8 2 -17 4.5t-18 5.5l-18 8q-10 5 -19 10.5t-20 11.5q-11 5 -23 9.5t-26 6.5q-2 0 -2.5 -2t1.5 -2q25 -3 48 -16l17 -9l16 -10q-47 14 -94 31t-81 45q-2 1 -3.5 -0.5t0.5 -3.5q20 -16 44.5 -28t51 -22t53.5 -18l54 -15l51 -22l49 -22l-11 -19h-95q-20 0 -53 -3.5 t-68 -4.5t-65.5 2.5t-45.5 17.5q-2 2 -3.5 0.5t0.5 -2.5q15 -15 46 -19t66.5 -3t69 4.5t53.5 3.5h93l-33 -58q-14 7 -37 13l-44 13q-21 6 -41 10t-41.5 5.5t-46.5 -0.5q-2 0 -1.5 -2t2.5 -2q25 2 46 0.5t41 -5t40 -10t44 -13.5q19 -6 36 -12l-309 -543l-28 23q-13 11 -25 23 q-2 2 -3.5 0.5t0.5 -2.5q27 -27 54 -47l-3 -6q-3 -5 -3 -9q-7 4 -14.5 7t-15.5 8q-2 1 -2.5 -1t1.5 -3l30 -15q-2 -13 7 -22.5t25 -9.5h56q53 -29 108 -49.5t108 -37.5q21 -7 39 -11.5t35 -9.5l35 -10q17 -6 38 -16q2 -1 2.5 1t-1.5 3q-38 17 -73 26q-17 5 -35 9.5t-39 11.5 q-50 16 -101 35t-100 44q54 -14 100.5 -22.5t93.5 -15.5l27 -15l25 -15q2 -1 3 1t-1 3q-11 5 -21.5 11t-21.5 13q42 -7 86.5 -13.5t98.5 -17.5q2 0 2.5 1.5t-1.5 2.5q-57 11 -104 18t-92 15l-30 19l-32 19h2q8 0 16 5t12 12l51 98h375l40 -77q-24 1 -47 3t-47 7zM711 -40 q-2 -1 -1.5 -3t2.5 -1q42 10 88 13t94 4q48 0 93.5 -0.5t86.5 2.5q31 2 56.5 11.5t44.5 26.5q2 1 0.5 2.5t-3.5 -0.5q-17 -16 -42.5 -25t-56.5 -11q-40 -3 -85.5 -2.5t-93.5 0.5q-48 -1 -94.5 -4t-88.5 -13z" />
<glyph unicode="B" horiz-adv-x="751" d="M361 328q42 0 68 -20.5t26 -55.5q0 -33 -27.5 -53t-69.5 -20h-69v149h72zM351 605q39 0 61.5 -19t22.5 -45q0 -23 -23.5 -42t-61.5 -19h-61v125h62zM143 784h-70q5 2 13 6q14 -2 28 -3t29 -3zM-9 725q-2 1 -3 -1t1 -3l33 -9v-652q-11 5 -19 10q-2 1 -3 -0.5t1 -3.5 q5 -3 10.5 -5.5t10.5 -5.5v-25q0 -12 9 -21t21 -9h98q39 -27 81 -48.5t87 -29.5q2 0 2 2q0 1 -2 2q-42 8 -82.5 28t-78.5 46h129q4 -1 8 -1.5t8 -1.5l40 -9q18 -4 35 -8.5t35 -8.5t40 -8q65 -12 119 -19t105 -12l107 -11q55 -6 121 -15q2 0 2 2t-2 2q-66 9 -121 15l-107 11 q-51 5 -105 12t-119 19q-42 8 -73 16t-72 17h155h18q9 0 18 1q5 -2 10.5 -3.5t10.5 -3.5q2 -1 3 1t-1 3q-4 1 -7 2t-7 2q25 3 47 9q64 -17 124 -36.5t129 -30.5q2 0 2 2t-2 2q-66 10 -125 29t-121 36q53 15 91 46q77 63 77 164q0 91 -50 149q-27 31 -79 52q51 26 75 68 t24 97q0 45 -18.5 79.5t-53.5 62.5q-34 26 -76.5 39.5t-94.5 13.5h-221q3 1 6 1t5 1t2 3t-2 1q-14 -3 -25.5 -3.5t-29.5 -0.5h-4q37 16 75 29q2 1 1 3t-3 1q-20 -7 -40 -15l-44 -18q-22 1 -42 3l-41 4q59 26 119 29.5t130 3.5h39l25 -2q12 -1 20 -3q2 -1 3 1t-1 3 q-8 2 -20 3l-26 2h-40q-36 0 -69.5 -0.5t-65 -3.5t-62 -10.5t-60.5 -21.5l-74 10q-38 5 -80 5q-2 0 -2 -2t2 -2q41 0 77 -4.5t71 -9.5q-10 -4 -14 -7h-13q-11 0 -19.5 -8t-10.5 -19l-5 -4q-2 -2 -1 -3.5t3 -0.5l3 3v-11h-4q-31 5 -63 8.5t-65 3.5q-2 0 -2 -2t2 -2 q29 0 56.5 -2.5t54.5 -7.5q-2 -1 -1.5 -2t2.5 -1h8q4 0 8 1l4 -1v-20q-8 2 -15.5 4.5t-15.5 4.5zM-56 78q-1 2 -2.5 0.5t0.5 -2.5q62 -63 128.5 -105t136.5 -80q2 -1 3 0.5t-1 3.5q-70 38 -136.5 80t-128.5 103z" />
<glyph unicode="C" horiz-adv-x="871" d="M725 217l-1 -1v12zM719 345q0 2 -2 2t-2 -2q3 -19 4.5 -38t2.5 -39q-1 -14 -1.5 -27t-0.5 -26q-8 -2 -17 -4l-19 -6h2q-72 -18 -149 -18q-112 0 -176 54q-30 26 -46.5 62.5t-16.5 82.5h1q0 105 62.5 162t174.5 57q64 0 129 -18q-4 -39 -8.5 -75.5t-13.5 -78.5q-1 -2 1 -2 t3 2q9 41 13.5 77.5t8.5 75.5h2q8 -2 16 -4.5t16 -4.5q-9 -16 -18 -30l-20 -29q-1 -2 0.5 -3t3.5 1q10 14 19.5 29t18.5 31q7 -2 13 -3.5t12 -3.5l-1 -24q0 -11 -0.5 -25.5t-1.5 -30t-3.5 -29.5t-7.5 -23q-1 -2 0.5 -3t3.5 1q6 10 8.5 24t3 29.5t0.5 30.5t1 26l1 23 q8 -3 15.5 -5.5t15.5 -4.5q-3 -31 -7.5 -64t-10.5 -71q0 -2 2 -2t2 2q6 38 10.5 70.5t7.5 63.5q3 -2 6.5 -2.5t6.5 -2.5q6 -2 10 -2q2 -23 3.5 -45.5t1.5 -46.5q0 -2 2 -2t2 2q0 24 -1.5 46.5t-3.5 45.5q11 1 19 10t7 23l-11 147q-1 8 -7 15.5t-13 10.5q1 6 1.5 12.5 t2.5 13.5q7 31 12 63q0 2 -2 2t-2 -2l-1 -8q-2 0 -2 -2q-2 -14 -4.5 -27t-4.5 -25q-2 -7 -3.5 -13t-3.5 -12q-4 2 -8 2.5t-8 2.5q-1 14 -2 29.5t-5 33.5q-1 2 -3 2q-1 0 -1 -2q3 -18 4.5 -33t2.5 -29q-6 2 -11.5 3t-11.5 3q1 23 1 44v43q0 2 -2 2t-2 -2v-43q0 -21 -1 -43 q-8 2 -15 3.5t-15 3.5q5 15 9 29.5t7 30.5q0 2 -2 2q-1 0 -2 -2q-3 -15 -7 -30t-9 -29q-45 9 -99 14.5t-117 5.5q-111 0 -198 -27.5t-147 -80.5t-91 -131t-31 -180q0 -190 131 -292q125 -100 346 -100q64 0 122.5 5.5t110.5 16.5l2 -33q2 -29 0.5 -43t-2.5 -14q-2 -1 -1 -3 t3 -1q2 2 4 17.5t0 43.5l-2 34q10 2 19 4.5t18 4.5l2 -21l2 -22v-25v-16q0 -2 2 -2t2 2v41l-2 22l-2 22q11 3 22 6.5t22 7.5q0 -15 -1 -28.5t-5 -22.5q-1 -2 1 -3t3 1q4 10 5 24t1 31h1q8 3 14 11.5t6 16.5l3 150q0 14 -8 22t-20 9q1 26 1 50v49q0 2 -2 2t-2 -2v-49 q0 -24 -1 -50q-4 0 -10 -2q-9 -4 -19 -7t-21 -7q2 36 4.5 70.5t6.5 72.5q0 2 -2 2t-2 -2q-4 -38 -6.5 -73t-4.5 -72q-8 -2 -16.5 -5t-17.5 -5q-1 12 -1.5 24.5t-1.5 25.5l8 79q4 39 4 76q0 2 -2 2t-2 -2q0 -31 -3 -63l-6 -66q-2 14 -3 26.5t-3 24.5z" />
<glyph unicode="D" horiz-adv-x="913" d="M619 391q0 -76 -37 -114.5t-109 -38.5h-168v308h176q68 0 103 -39t35 -116zM-23 748q24 -3 45 -9v-8q-16 3 -28 9q-5 2 -8.5 4t-8.5 4zM-68 148q-2 1 -3 -0.5t1 -3.5q22 -13 45 -23l47 -19v-39h-7h-59q-2 0 -2 -2t2 -2h59h7v-24q-35 11 -65.5 23t-62.5 27q-2 1 -3 -1 t1 -3q32 -15 62.5 -27t65.5 -23h2v-1q0 -12 9 -21t22 -9h72q57 -15 115 -24.5t118 -9.5q2 0 2 2t-2 2q-56 0 -110 8t-107 22h152q32 -7 63.5 -12.5t64.5 -9.5q2 0 2 2t-2 2q-55 6 -109 18h181q175 0 286 110q112 111 112 282q0 175 -111 283q-112 109 -291 109h-360 q-67 28 -130 28q-13 0 -21.5 -2.5t-15.5 -6.5l-15 -9q-7 -4 -17 -7q-2 -1 -1 -3t3 -1q10 3 17 7.5t14 8.5t15.5 6.5t20.5 2.5q29 0 59 -6.5t60 -17.5h-65q-13 0 -22 -9t-9 -21v-11q-12 3 -24.5 5.5t-26.5 4.5h-1q-11 6 -21 13t-21 12q-2 1 -3 -1t1 -3q18 -8 33 -19t33 -19 q15 -6 30 -9v-6q-35 12 -67.5 18t-58.5 1q-2 -1 -2 -3q0 -1 2 -1q26 5 58.5 -1t67.5 -18v-75h-6l-10 2q-20 4 -39.5 7.5t-38.5 10.5q-2 1 -3 -1t1 -3q14 -5 27 -8l27 -6q-12 0 -23 -0.5t-20 -2.5q-2 -1 -2 -3t2 -1q15 3 35 3q19 0 41 -2l9 -1v-531l-46 20q-22 9 -44 22z M-132 26q-2 0 -2 -2t2 -2l35 -6q16 -2 31 -5t30 -7l35 -7q81 -19 162 -30t169 -11q2 0 2 2t-2 2q-88 0 -169 11t-162 30l-34 7q-15 4 -30 7t-32 5z" />
<glyph unicode="E" horiz-adv-x="714" d="M606 489q-8 8 -20 8h-287v80h308q0 -13 -0.5 -25.5t-0.5 -25.5v-37zM682 765q-2 -40 -5 -79l-6 -82q-3 -34 -9 -65v57q3 4 3 12v52q0 28 4.5 54.5t12.5 50.5zM110 740h-1h2h-1zM-2 758h-1h-4h5zM22 36v-6v-1h-9q-17 6 -35 10t-38 6q-2 0 -2 -2t2 -2q16 -2 29.5 -4.5 t27.5 -6.5q-14 1 -29 1.5t-31 0.5q-2 0 -2 -2t2 -2q17 0 33.5 -0.5t32.5 -1.5q-17 -1 -33 -3.5t-34 -9.5q-2 -1 -1 -3t3 -1q22 9 42 11t41 2l2 -1q3 -9 11 -15t18 -6h18l12 -6q2 -1 3 1t-1 3l-5 2h537q-8 -18 -17 -33.5t-20 -24.5q-2 -2 -1 -3.5t3 -0.5q12 11 22 27t18 35h4 q-2 -15 -3.5 -30t-3.5 -30q0 -2 2 -2t2 2q2 14 3.5 29t3.5 31h33q13 0 21.5 9t8.5 21v127l2 3q1 -18 1.5 -36.5t1.5 -36.5q2 -46 -0.5 -89.5t-12.5 -81.5q-1 -2 1 -3t3 1q11 39 13 83t0 90q-1 20 -1.5 40.5t-2.5 40.5l12 26q5 13 10 28q2 -72 5.5 -143t-6.5 -143q0 -2 2 -2 t2 2q6 41 6.5 82t-1 82t-3.5 82t-2 82q0 2 -2 2t-2 -2v-30q-5 -16 -10 -29.5t-11 -27.5q-3 48 -3 93q0 2 -2 2t-2 -2q0 -24 1 -50l2 -51l-1 -3v10q0 13 -8.5 22t-21.5 9h-3q5 19 11 37t12 38q1 2 -1 3t-3 -1q-6 -21 -12 -39.5t-11 -37.5h-356v84l287 1q12 0 21 9t9 22v144 q0 10 -6 18v41q0 12 0.5 25t0.5 26h23q-6 -38 -11 -75t-5 -76v-43q0 -2 2 -2t2 2v43q0 39 5 76t11 75q13 2 20 12v-39q0 -18 -1 -36q-3 -17 -5.5 -35t-2.5 -37q0 -2 2 -2t2 2q0 12 1 24t3 24q3 0 3 2q0 5 0.5 11t0.5 11l8 45q4 22 6 45q3 47 6 89t5 87l10 21q4 11 11 21 q1 2 -0.5 3t-3.5 -1q-9 -15 -16 -32q1 15 1 30v32q0 2 -2 2t-2 -2q0 -19 -0.5 -37.5t-1.5 -36.5q-6 -18 -10 -37.5t-7 -40.5v35q2 3 3.5 6.5t3.5 6.5q1 2 -0.5 3t-3.5 -1l-3 -6v8q0 12 -9 21t-21 9h-8q1 11 1 21v21q0 2 -2 2t-2 -2v-21q0 -10 -1 -21h-571q-7 0 -13 -3 q-19 1 -38 1q-18 0 -36 2q-2 0 -2 -2t2 -2q17 -2 34 -2t34 -1q-6 -6 -8 -10q-16 2 -31.5 3.5t-31.5 1.5q-2 0 -2 -2t2 -2q16 0 31 -1.5t30 -3.5v-1q-18 1 -36 0h-1v-1q-8 0 -14.5 -1t-15.5 -1q-2 0 -2 -2t2 -2q11 0 19 1.5t18 1.5h4h1h1q6 1 12 0.5t11 -1.5v-3v-9 q-7 1 -14 1h-14q-30 0 -50 -4.5t-36 -20.5q-2 -1 -1 -2.5t3 0.5q16 14 35 18.5t49 4.5h14q7 0 14 -1v-15q-19 4 -43 4q-11 0 -18 -0.5t-18 -1.5q-2 0 -2 -2t2 -2q11 1 18 1.5t18 0.5q24 0 43 -4v-649l-29 4q-15 2 -31 2q-2 0 -2 -2t2 -2q16 0 31 -2l29 -4v-29q-29 6 -56 14 l-56 19q-2 1 -3 -1t1 -3l58 -19q27 -8 56 -14z" />
<glyph unicode="F" horiz-adv-x="719" d="M687 809v-17q0 -8 1 -16l-9 6l4 14zM289 -8q-24 1 -46 3t-42 5h55l16 -4zM274 0l1 1q20 -3 41 -5t43 -2q14 0 23 3q5 1 9.5 2t10.5 1q2 0 2 2t-2 2q-7 -1 -11 -1.5t-9 -1.5q-9 -3 -23 -3q-39 0 -76 6q16 8 16 26v26q31 -4 61.5 -9t56.5 -10q2 0 2 1q0 2 -2 3 q-26 5 -56.5 10t-61.5 9v217h271q12 0 21 9t9 21l1 145q0 13 -9 21.5t-21 8.5h-272v95h344q-3 -38 -3 -76q0 -2 2 -2t2 2q0 38 3 76h5v-32v-28q0 -14 1 -29t3 -33q0 -2 2 -2t2 2q-2 18 -3 33t-1 29v28v32h11q11 0 19 7t10 18l3 -54q1 -14 2.5 -26t3.5 -23t2 -22 q0 -10 -4 -21q-1 -2 1 -3t3 1q7 23 2 47t-6 47q-1 29 -3.5 56.5t-2.5 55.5v40q6 -53 13.5 -104t7.5 -107q0 -2 2 -2t2 2q0 33 -4 64l-8 62l-9 61q-4 30 -4 62v16q0 4 -2 10q-1 10 -1 20v20q0 2 -3 2v11q0 1 -1 2q9 24 13 57q0 2 -2 2t-2 -2q-2 -17 -5 -30t-7 -26l-6 -18 q-3 -9 -6 -19q-2 0 -3 0.5t-3 0.5q3 33 3 67q0 2 -2 2t-2 -2q0 -34 -3 -67h-612q-15 0 -25 -13l-62 20q-31 11 -66 21q-2 1 -3 -1t1 -3q36 -10 66 -20.5t62 -19.5q-4 -5 -4 -14v-8q-24 6 -44 15q-21 8 -42 17t-45 16q-2 1 -3 -1t1 -3q24 -6 46 -15l42 -18q11 -5 22 -9l23 -7 v-13l-51 27q-26 14 -56 20q-2 0 -2 -2q0 -1 2 -2q22 -4 43 -15l28 -14l28 -14q-12 2 -22 5l-21 6l-45 16q-22 8 -48 14q-2 1 -2 -1t2 -3q26 -6 47.5 -14t44.5 -15q12 -5 25 -8.5t27 -5.5v-679l-54 14q-27 7 -59 13q-2 0 -2 -2q0 -1 2 -2q32 -6 59 -13l54 -14v-9q0 -12 9 -21 t22 -9h124q29 -5 60 -8.5t67 -3.5q17 -5 35 -11t37 -11q2 -1 3 1t-1 3l-33 10l-32 10q0 2 -2 2h-6l-15 4zM-66 -15q-2 0 -2 -2t2 -2h84q17 0 33.5 -1t32.5 -3q16 -3 31 -9q36 -11 71.5 -24t73.5 -25q23 -7 40.5 -14.5t42.5 -7.5q2 0 2 2t-2 2q-24 0 -41.5 7.5t-39.5 14.5 q-39 12 -74.5 25t-71.5 24l-8 3l55 -6q27 -3 55 -3q25 0 47.5 1t45.5 5q2 0 2 2t-2 2q-23 -4 -45.5 -5t-47.5 -1q-34 0 -66.5 4t-66.5 7q-29 8 -60.5 12.5t-66.5 4.5q-10 0 -17 -0.5t-17 -2.5q-2 0 -2 -2t2 -2q10 2 17 2.5t17 0.5q27 0 52 -2.5t48 -7.5q-10 0 -19.5 0.5 t-20.5 0.5h-84z" />
<glyph unicode="G" horiz-adv-x="944" d="M843 754q-2 2 -5 2h-1q1 7 1 14v15q2 -8 3 -15zM838 804q-1 2 -3 2t-1 -2l2 -10q-2 0 -2 -2v-35l-10 3l6 34q3 18 8 35q1 2 -1 2t-3 -2q-5 -17 -8 -34l-6 -34q-54 14 -133.5 26t-176.5 12q-218 0 -353 -112q-135 -114 -135 -309q0 -199 131 -294.5t378 -95.5 q109 0 202.5 14t166.5 37q9 3 15.5 11.5t6.5 17.5v351q0 13 -9 21.5t-22 8.5h-320q-13 0 -22 -8.5t-9 -21.5v-133q0 -13 9 -22t22 -9h105v-50q-47 -18 -137 -18q-113 0 -177 54q-63 54 -63 146q0 98 69 158q70 60 190 60q38 0 75.5 -4t74.5 -11q26 -5 48.5 -10t42.5 -10 l-3 -34v-53q0 -2 2 -2t2 2v53l3 33q8 -2 16 -4.5t16 -4.5q2 -17 3.5 -34t1.5 -37q0 -2 2 -2t2 2q0 19 -1.5 36t-3.5 34q9 -3 17 0q0 -20 -1 -39t-3 -37q0 -2 2 -2t2 2q2 18 3 37.5t1 39.5l2 1q-3 -36 -3 -69q0 -2 2 -2t2 2q0 34 3 72q13 9 11 28l-6 46l1 16q3 42 2.5 85 t-8.5 84q-1 2 -3 2q-1 0 -1 -2q8 -40 8.5 -80.5t-1.5 -82.5l-9 71q-2 11 -12 20q-2 14 -4.5 27t-5.5 26z" />
<glyph unicode="H" horiz-adv-x="862" d="M242 753h-1h2h-1zM382 746h-5q-37 0 -74 3v4l23 2q11 1 23 3q16 -8 33 -12zM500 746q14 5 28.5 7t29.5 3v-2v-17q-15 2 -29.5 4.5t-28.5 4.5zM545 57q-2 0 -2 -2t2 -2q-20 2 -40 4.5t-43 4.5q26 2 49 2q24 0 47 -1v-8q-3 1 -6 1t-7 1zM650 0h103q31 -7 60.5 -14.5 t58.5 -19.5q2 -1 3 1t-1 3q-26 11 -51.5 17.5t-51.5 12.5h38q11 0 19 6.5t11 15.5q8 0 19 0.5t16 2.5q2 1 1 3t-3 1q-5 -2 -14.5 -2.5t-17.5 -0.5v4v34q18 1 36 1.5t38 0.5q2 0 2 2t-2 2q-20 0 -38 -0.5t-36 -1.5v684h2q2 0 2 2t-2 2h-2q0 2 -0.5 3.5t-0.5 3.5q34 6 62 23 q2 0 3.5 1.5t3.5 2.5q2 2 1 3.5t-3 0.5q-29 -19 -69 -27l-1 1q0 1 -1 2l2 1q2 2 1 3.5t-3 0.5l-3 -2q-8 11 -23 11h-126q-41 11 -81.5 20.5t-85.5 9.5q-16 0 -27.5 -4.5t-22.5 -12.5q-2 -2 -1 -3.5t3 -0.5q11 8 22.5 12.5t25.5 4.5q42 0 79 -8t74 -18h-80q-11 0 -19.5 -6.5 t-10.5 -17.5q-18 -1 -35 -4t-32 -9q-29 6 -57.5 13t-56.5 15q-2 1 -3 -1t1 -3q27 -8 54.5 -14.5t54.5 -11.5q-6 -4 -9 -5q-2 -2 -1 -3.5t3 -0.5q7 4 14 7q17 -3 33 -5.5t33 -4.5v-230h-255v242q37 -3 74 -3q5 0 9 0.5t8 0.5q19 -4 37.5 -5t38.5 -5q2 0 2 1q0 2 -2 3 q-16 3 -31.5 4.5t-31.5 3.5q3 0 5.5 0.5t4.5 0.5t2 2t-2 2q-6 -1 -11.5 -1.5t-11.5 -1.5q-2 1 -5 1.5t-5 1.5q-15 4 -27 9l14 2q2 0 2 2t-2 2l-22 -3q-8 3 -15 6l-14 6q-26 11 -49.5 22t-47.5 19.5t-49.5 13.5t-55.5 5q-2 0 -2 -2t2 -2q41 0 74.5 -9t64.5 -23q21 -9 42 -19 t42 -18q-10 -2 -19 -3t-19 -1q-2 11 -10.5 19t-20.5 8h-163q-10 2 -19 5t-18 5q-27 7 -52 17t-49.5 18.5t-50.5 14.5t-55 6q-2 0 -2 -2t2 -2q29 0 54.5 -6t50 -14.5t49 -18.5t51.5 -17q6 -2 11.5 -3t11.5 -3h-27q-30 7 -59 15l-60 16q-2 1 -3 -1t1 -3l53 -14q25 -7 51 -13 q-18 -2 -25 -20q-24 5 -45 13t-38 20q-2 1 -3 -0.5t1 -3.5q35 -23 84 -32q-1 -3 -1 -7v-706l-16 8l-18 7q-26 11 -44 20.5t-44 20.5q-2 1 -3 -1t1 -3q26 -11 44 -20.5t44 -20.5l36 -15v-5v-6q-25 0 -49 -1t-46 -6q-2 -1 -2 -3t2 -1q23 5 47 6t48 1q1 -12 9.5 -20.5 t20.5 -8.5h81l31 -12l86 -33l85 -33q43 -16 87 -29t89 -21q2 0 2 2q0 1 -2 2q-45 8 -88.5 21t-86.5 29l-85 33l-85 33l-22 8h16l108 -21q53 -10 111 -29q2 -1 3 1t-1 3q-54 17 -102 27l-99 19h92q10 0 17.5 5.5t11.5 13.5q13 -2 25.5 -3.5t25.5 -3.5q41 -6 70.5 -14.5 t66.5 -16.5q2 -1 2 1t-2 3q-37 8 -66.5 16.5t-70.5 14.5q-24 4 -50 6q1 3 1 8v267h255v-230q-32 1 -65.5 0t-71.5 -4h-25q-2 0 -2 -3h-2q-2 0 -2 -2t2 -2l30 3h27q30 -5 57 -9l52 -8v-12q0 -12 9 -21t22 -9h51q0 -3 2 -3q35 -4 70.5 -14t70.5 -22q21 -8 42 -15l39 -14 q-81 1 -157.5 20.5t-153.5 42.5q-37 11 -69.5 23t-68.5 23q-2 1 -3 -1t1 -3q36 -11 69 -23t69 -23q79 -23 157.5 -43t161.5 -20h6l20 -6q9 -3 17 -6q2 -1 3 1t-1 3l-13 4l-14 4l12 2q5 1 11 4q2 1 1 3t-3 1q-8 -4 -15 -5t-17 -1l-45 16l-47 17q-34 11 -68 20.5t-67 14.5z M470 834q-2 0 -2 -2t2 -2q31 -5 59 -11t56 -11t56.5 -8.5t60.5 -3.5q28 0 52 2t46.5 5t44.5 6.5t47 5.5q2 0 2 2t-2 2q-25 -2 -47 -5.5t-44.5 -6.5t-46.5 -5t-52 -2q-32 0 -60.5 3.5t-56.5 8.5t-55.5 11t-59.5 11zM-193 45q-2 1 -3 -1t1 -3q32 -14 55.5 -22.5t56.5 -18.5 q61 -19 112 -33t100 -25t101 -21t116 -21q2 0 2 2t-2 2q-64 11 -116 21t-100.5 21t-99 25t-111.5 33q-33 10 -56.5 18.5t-55.5 22.5z" />
<glyph unicode="I" horiz-adv-x="282" d="M260 748v6q0 6 -1 8q14 -5 28 -9.5t28 -9.5q-13 -1 -27 -1.5t-28 -0.5v7zM133 790h35q5 -2 11 -3t11 -3h-40zM169 -24q-53 9 -102 24h19q8 0 15.5 -0.5t15.5 -1.5l23 -10q11 -5 24 -10zM230 -2q-6 -1 -12.5 0.5t-12.5 1.5h21zM278 -24q-68 3 -128 21q14 -1 27 -1h28 q8 0 15.5 -1.5t15.5 0.5l21 -10zM305 -33q-5 -1 -10 -1h-9q-25 0 -49.5 2t-47.5 5q-15 5 -23 9l-20 8q-10 3 -19 8l8 -1q36 -11 74 -18t80 -7q9 -4 16 -5zM240 -3q3 1 4 4q1 0 1 2q15 8 15 27v683q62 -14 120 -14q2 0 2 2t-2 2q-30 0 -60 4t-60 10v20q35 0 65 3l36 -12 q18 -5 38 -10q2 -1 2 1t-2 3q-17 4 -32 9l-32 10q7 0 12.5 0.5t10.5 1.5q2 0 2 2t-2 2q-14 -2 -33 -3q-17 5 -34 11l-34 12q-7 17 -23 17h-29q-9 3 -18 5.5t-19 4.5h-46l-86 33l-89 35q-2 1 -3 -1t1 -3l87 -35l84 -31q0 -2 2 -2h3l17 -6h-89l-8 3q-17 6 -32 12l-31 13 q-15 6 -31 10t-35 6q-2 0 -2 -2t2 -2q19 -2 34.5 -6t30.5 -10l30 -13q15 -6 32 -12h2q-15 -7 -18 -22q-23 5 -45.5 11.5t-45.5 14.5q-2 1 -3 -1t1 -3q24 -8 46.5 -14.5t45.5 -11.5v-3v-700q-4 2 -8 4.5t-8 4.5l-37 25q-2 1 -3 -0.5t1 -3.5l6 -4q-11 6 -23 11l-25 10 q-2 1 -3 -1t1 -3q23 -8 43 -18l38 -19q5 -3 9 -6t9 -5v-19q0 -10 5 -18l-11 4q-20 7 -37.5 17t-37.5 18q-2 1 -3 -1t1 -3q20 -7 37 -17t37 -17q-11 1 -20 1.5t-19 1.5h-47q-2 0 -2 -2t2 -2h47l29 -4l32 -4q8 -4 13 -4h5q32 -10 66 -18t69 -13q28 -11 62 -21t58 -7q2 0 2 2 t-2 2q-20 -2 -48.5 5t-54.5 17q20 -2 40.5 -3.5t40.5 -1.5h15q7 0 14 2q36 -11 71 -11q2 0 2 2t-2 2q-29 0 -61 8q14 3 22 7q2 2 1 3.5t-3 0.5q-12 -7 -30 -8q-5 2 -10 3t-10 3q0 2 -2 2h-3l-25 10q-12 5 -25 11zM235 0h2h-1h-1z" />
<glyph unicode="J" horiz-adv-x="623" d="M264 805q18 0 34.5 0.5t32.5 0.5q21 -2 40.5 -5.5t38.5 -8.5h-52q-16 0 -25 -14q-36 10 -69 27zM568 769h-1h1zM78 300q-1 2 -3 4l-2 1l3 12q1 2 1 4t1 4v-25zM78 352v-13q-2 -5 -3 -10.5t-3 -11.5l-2 -9q-1 1 -2 1.5t-2 1.5l6 20zM85 375q1 2 -1 3t-3 -1l-2 -8 q-1 -1 -1 -2v-1l-8 -27l-8 -26q-6 2 -11 2v52q0 2 -2 2t-2 -2v-53q-11 -2 -18.5 -11.5t-5.5 -23.5l10 -81q-5 -19 -9 -39l-8 -42q-3 -17 -4 -34t-6 -34q-1 13 -1.5 26t-0.5 27q0 78 7 149l15 150q0 2 -2 2t-2 -2l-15 -150q-7 -71 -7 -149q0 -32 3 -62q-3 -9 -9 -18 q-1 -2 0.5 -3t3.5 1l6 12q8 -62 25.5 -118.5t39.5 -118.5q5 -14 12 -27.5t10 -27.5q2 -5 1.5 -10t1.5 -10v-1q0 -1 1 0l1 1l-2 -2q2 -2 3 -1t1 3v1q0 8 -1 12.5t-2 12.5q0 2 -2 2q-4 13 -9.5 24.5t-10.5 24.5q-23 63 -40.5 121t-25.5 121q8 19 8.5 38.5t4.5 39.5 q4 18 7 35.5t7 34.5l3 -24q-5 -25 -8.5 -52t-3.5 -56v-47q0 -2 2 -2t2 2v47q0 26 2.5 49.5t7.5 46.5l8 -65q1 -15 2 -38t1 -46q0 -28 -2.5 -48t-10.5 -22q-2 -1 -2 -3t2 -1q11 3 14 25.5t3 48.5v22q0 11 -1 22q2 -5 6 -10.5t8 -7.5q1 -2 6 -3q-5 -13 -10 -22q-1 -2 1 -3t3 1 l5 11l4 11l3 -1q1 -19 2.5 -37t1.5 -37q0 2 -0.5 4.5t-0.5 5.5q0 2 -2 2t-2 -2q1 -10 2 -16t1 -18q0 -2 2 -2t2 2q4 23 2 48l-4 48q12 -5 31 -11.5t45 -14.5q75 -24 145 -24q131 0 213 76q84 79 84 201v497q37 -11 77 -20t72 -22q2 -1 3 1t-1 3q-33 13 -73.5 22.5 t-77.5 20.5v12v1q38 -8 75.5 -17t77.5 -9q2 0 2 2t-2 2q-40 0 -77.5 9t-75.5 17q11 2 20.5 3.5t20.5 1.5q2 0 2 2t-2 2q-17 0 -32 -3q-2 -1 -5 -1t-6 -1q-3 13 -17 20h10q2 0 2 2t-2 2q-9 0 -18.5 -0.5t-18.5 -1.5h-129q-35 9 -70 15q45 1 87 4l84 5q42 2 87.5 3.5t99.5 1.5 q2 0 2 2t-2 2q-57 0 -105 -2l-94 -4q-45 -2 -89.5 -5t-94.5 -4q-9 1 -17.5 1.5t-17.5 0.5q-2 0 -2 -3h-37q-9 5 -20 13q-2 1 -3 -0.5t1 -3.5q4 -2 7 -4.5t7 -4.5h-6q-2 0 -2 -2t2 -2h13q33 -18 75 -31q-3 -6 -3 -12q-20 -1 -39.5 1.5t-38.5 14.5q-2 1 -3 -0.5t1 -3.5 q19 -12 39 -14.5t41 -1.5v-33l-34 10l-36 9h-72q-2 0 -2 -2t2 -2h72q17 -5 35 -9.5t35 -9.5v-402q0 -86 -94 -86q-51 0 -95 25l-7 4q-3 1 -6 3q4 25 8.5 49t10.5 46q1 2 -1 3t-3 -1q-6 -23 -10.5 -46.5t-8.5 -48.5q-13 8 -23 15.5t-17 14.5v41l8 25q3 12 5 26q0 2 -2 2 t-2 -2q-1 -10 -3.5 -19.5t-5.5 -18.5v15zM632 805v-1q44 0 77.5 -6t68.5 -21q2 -1 3 1t-1 3q-36 15 -70 20.5t-78 2.5h4l3 1q1 0 0 2l1 2h-1q-35 2 -73 -1t-71 -8q-2 0 -2 -2t2 -2q32 5 67.5 7.5t69.5 1.5z" />
<glyph unicode="K" horiz-adv-x="947" d="M613 792h-1h1zM643 784h-5q-4 2 -7.5 2.5t-7.5 2.5h2q5 -2 9 -2.5t9 -2.5zM828 746h-7l1 2zM19 30h3h-3zM904 76h-1v-1l-13 1l-357 348l246 271q28 -3 58 -3q14 0 21 1.5t18 2.5q2 0 2 2t-2 2q-11 -1 -18 -2.5t-21 -1.5t-27 0.5t-27 1.5l26 29q30 -6 61 -3q2 0 2 2t-2 2 q-28 -3 -58 3l2 2q4 4 6 9h8q4 0 8 1h1q6 -2 13 -4l14 -3q2 -1 2 1t-2 3q-25 7 -41 12q9 -1 18.5 -1.5t19.5 -1.5q2 0 2 2t-2 2l-39 3q-1 11 -9.5 19.5t-22.5 8.5h-135l-18 6l75 6q37 3 75.5 5.5t80 4.5t89.5 2q2 0 2 2t-2 2q-49 0 -92 -2t-82 -5l-78 -6l-79 -6q-5 2 -9 2.5 t-9 1.5q-5 0 -2 -3l-39 9q-2 0 -2 -2q0 -1 2 -2q16 -3 33 -8h-3l-14 3h-84q-2 0 -2 -2t2 -2h77q-53 -3 -115 -3q-2 0 -2 -2t2 -2q38 0 71 1t65 3l16 -3h-55q-4 0 -12 -3.5t-11 -6.5l-19 -22q-23 7 -42.5 14t-45.5 15q-2 1 -3 -1t1 -3l46 -15l41 -13l-214 -244v216 q16 2 29.5 7t24.5 12q2 2 1 3.5t-3 0.5q-10 -7 -21 -11t-24 -7l9 3q3 2 7 4q2 1 1 3t-3 1q-9 -5 -21 -9v6q12 2 21.5 6t19.5 9q2 2 1 3.5t-3 0.5q-19 -11 -39 -15v16q0 6 -1 8h7h42q21 0 39 3q2 0 2 2t-2 2q-18 -3 -39 -3h-42l-9 1q-4 7 -10 11q25 -1 48 -1.5t46 -2.5 q2 0 2 2t-2 2q-24 2 -50 3l-52 2q-2 0 -4.5 0.5t-4.5 0.5h-43q-58 0 -115.5 3t-111.5 10q-26 3 -45 6l-45 9q-2 0 -2 -2q0 -1 2 -2l45 -9q19 -3 45 -6t54 -5l57 -4h-58q-17 0 -25 -15l-46 12l-46 13q-2 1 -3 -1t1 -3l46 -13q23 -6 46 -11q-3 -6 -3 -12v-1h-73q-2 0 -2 -2 t2 -2h73v-6q-6 1 -13 1h-13q-2 0 -2 -2t2 -2h13q7 0 13 -1v-14q-10 1 -19 1.5t-19 1.5h-35q-2 0 -2 -2t2 -2h35q9 -2 18.5 -2.5t19.5 -2.5v-685h-25q-21 5 -40 12.5t-42 7.5q-2 0 -2 -2t2 -2q19 0 34 -5l33 -10h-83q-2 0 -2 -2t2 -2h50q24 0 48 -1q4 0 12 -2l14 -2 q0 -3 2 -9q-30 2 -59 1t-55 -11q-2 -1 -1 -3t3 -1q25 10 54.5 11t60.5 -1q8 -13 24 -13h40q51 -10 100.5 -16t104.5 -6q26 0 49 0.5t46 2.5q2 0 2 2t-2 2q-23 -2 -46 -2.5t-49 -0.5q-50 0 -94 5t-89 13h127q27 0 54 -2t53 -2q13 0 29 6.5t17 11.5q0 2 -2 2q-1 0 -2 -2 t-15 -8t-27 -6q-17 0 -34.5 0.5t-34.5 1.5q20 7 20 28v18q23 5 42.5 12.5t42.5 14.5q2 1 1 3t-3 1q-22 -7 -41.5 -14.5t-41.5 -12.5v251l259 -252h-100q-2 0 -2 -2t2 -2h104l27 -26q-17 1 -34 1.5t-35 0.5q-2 0 -2 -2t2 -2q38 0 74 -3l8 -8q1 -1 2.5 -1.5t3.5 -1.5 q-20 -1 -39 -1h-36q-2 0 -2 -2t2 -2q20 0 41.5 0.5t43.5 0.5q3 -1 6 -1h200h69q8 0 14 3q44 -8 87 -15t88 -7q2 0 2 2t-2 2q-44 0 -86 6.5t-84 14.5q4 1 6 5q10 2 19 4.5t18 6.5q2 1 1 3t-3 1l-6 -3q0 4 -3 3l-10 -4l-11 -4q3 6 1 16l64 -11q34 -6 66 -11q2 0 2 2t-2 2 q-32 5 -66.5 12.5t-64.5 9.5q-2 8 -9 14l-20 20l16 -1q18 -3 34 -7l30 -8l30 -7q15 -3 34 -5q2 0 2 2t-2 2q-31 3 -53.5 9.5t-48.5 12.5l14 -1q27 -1 47.5 -2.5t20.5 -3.5q1 -2 3 -1t1 3t-12.5 3.5t-28.5 3t-36.5 2.5t-35.5 1z" />
<glyph unicode="L" horiz-adv-x="730" d="M404 733q-14 -3 -33 -3h-17q-1 1 -2 1q-14 0 -26.5 0.5t-25.5 1.5v8q25 -3 50.5 -5t53.5 -3zM708 138v5l1 2zM663 -33v33h4l-2 -16zM15 746h1q4 2 6 2v-2h-7zM320 777q-18 5 -35.5 9t-37.5 4q-38 0 -80 -3t-85 -3h-30q-4 0 -10 -2q-17 0 -33 -0.5t-32 -0.5q-2 0 -2 -1 q-9 -1 -16.5 -2t-15.5 -3q-2 -1 -2 -3t2 -1l19 3q9 2 20 2h25q12 0 24 -1q-2 -2 -3 -3.5t-3 -3.5q-8 2 -16.5 3t-17.5 1q-7 0 -21 -1t-22 -6q-2 -2 -1 -3.5t3 -0.5q7 5 20.5 6t20.5 1q8 0 16.5 -1t16.5 -3q-2 -6 -2 -8h-32q-2 0 -2 -2t2 -2h31q-2 -1 -4 -1q-1 0 -3 -1 t-1.5 -2.5t1.5 -1.5h-6q-35 0 -58.5 2.5t-49.5 16.5q-2 1 -3 -1t1 -3q14 -7 26 -10.5t25 -5.5t27 -2.5t32 -0.5h14v-11h-141q-2 0 -2 -2t2 -2h141v-687l-58 4l-58 4q-2 0 -2 -2t2 -2l58 -4l58 -4v-6v-2q-16 2 -32 3t-33 1q-11 0 -18.5 -1.5t-18.5 -4.5q-2 -1 -1 -3t3 -1 q9 3 16.5 4.5t18.5 1.5q17 0 32 -1t29 -3q-26 -3 -53 -5.5t-56 -2.5q-2 0 -2 -2t2 -2q31 0 58 3l57 6q3 -11 13 -16q-14 -2 -31 -2t-33.5 -1t-30.5 -4t-22 -10q-2 -2 -1 -3.5t3 -0.5q9 7 23.5 9.5t32 3.5t35 1.5t31.5 2.5q2 0 4.5 -0.5t4.5 -0.5h605l-6 -21l-6 -20 q-1 -2 1 -3t3 1l9 30v-44q0 -1 1 -2q-2 -17 -3 -33.5t-1 -33.5q0 -2 2 -2t2 2q0 31 3.5 63t7.5 63h7q7 0 15 4q-2 -17 -4.5 -34.5t-4.5 -36.5q0 -2 2 -2t2 2q2 20 5 38.5t5 36.5q8 8 9 15q1 -11 1.5 -22.5t0.5 -23.5q0 -2 2 -2t2 2q0 20 -1.5 39t-3.5 37v43q2 17 3 33t3 32 q8 24 14 47l13 43q1 2 -1 3t-3 -1l-10 -36l-12 -38q2 28 3 56.5t1 59.5q0 2 -2 2t-2 -2q0 -35 -1.5 -68t-3.5 -65l-2 -6v46q0 10 -6 17.5t-15 10.5q1 24 1.5 47t2.5 46q0 2 -2 2t-2 -2q-2 -22 -2.5 -45t-1.5 -47q0 1 -2 1q-3 25 -3 54q0 2 -2 2t-2 -2q0 -27 3 -54h-20v63 q0 2 -2 2t-2 -2v-63h-354l1 495q18 -1 35 -1h36q14 0 30 2.5t18 5.5q1 2 -0.5 3t-2.5 -1q-1 1 -2 1q-27 0 -51 2l-47 4h23q2 0 2 2t-2 2h-39v7q0 3 -2 9l12 5q5 3 10 5q23 -8 45.5 -14t51.5 -4q2 0 2 2t-2 2q-25 -2 -45 3t-39 11l-7 2q18 5 37 6.5t42 1.5q2 0 2 2t-2 2 q-24 0 -45 -1.5t-40 -8.5zM297 767q-9 17 -28 17h-102q21 1 41 1.5t39 0.5q13 0 23.5 -1.5t21.5 -3.5q6 -2 11.5 -3t10.5 -3q-8 -3 -17 -8z" />
<glyph unicode="M" horiz-adv-x="1149" d="M794 37h38q18 -2 33 -3v-4v-1q-18 1 -36 2.5t-35 5.5zM-20 750q10 2 20.5 2.5t21.5 1.5v-8l-21 2zM22 742v-17q-48 10 -100 12q11 4 21 6.5t21 4.5q15 -2 29.5 -3t28.5 -3zM1160 767h-36q-2 2 -2.5 3.5t-2.5 3.5zM1228 723l-18 -1q-19 3 -40 5.5t-43 5.5v3q29 -2 51 -6 t50 -7zM1127 740v14q0 5 -1 8q14 -2 28.5 -3t30.5 -1q2 0 2 2t-2 2q-9 0 -17.5 0.5t-16.5 0.5q9 1 18 0.5t19 -0.5q27 -3 54.5 -5.5t58.5 -2.5q2 0 2 2t-2 2q-22 0 -42 1.5t-40 3.5h22q11 0 22 1q2 0 2 2t-2 2q-19 -1 -37.5 -1.5t-37.5 -0.5l-75 12q-8 5 -17 5h-20h-215 q-7 0 -15 -4.5t-12 -10.5l-259 -425l-262 425q-3 6 -11.5 10.5t-14.5 4.5h-234q-17 0 -27 -15q-18 1 -39 3q-35 1 -68 1.5t-65 16.5q-2 1 -3 -1t1 -3q33 -16 67 -16q33 0 68 -2q10 -1 19 -1t18 -2q-1 -2 -1 -4q0 -1 -1 -3q-29 -1 -58 -6l-23 2q-12 1 -26 2q-2 0 -2 -2t2 -2 l36 -3q-18 -4 -40 -12h-15q-2 0 -2 -2t2 -2q33 0 64.5 -2.5t61.5 -9.5v-626l-26 3q-2 0 -2 -2t2 -2l26 -3v-25q-25 3 -48.5 8.5t-45.5 13.5q-2 1 -3 -1t1 -3q22 -8 46 -13.5t50 -8.5v-32q0 -4 1 -6q-9 0 -17 0.5t-16 1.5h-38q-2 0 -2 -2t2 -2h38q8 -1 16.5 -1.5t17.5 -0.5 q5 -11 14 -16h-19q-16 0 -27 -0.5t-27 -2.5q-2 0 -2 -2t2 -2q16 2 27 2.5t27 0.5q41 0 81 -3.5t79 -7.5t78 -7.5t79 -3.5q14 0 21 1t12 4q4 2 6.5 5.5t5.5 5.5q2 2 1 3.5t-3 0.5q-3 -3 -6 -6.5t-6 -5.5t-10 -3t-21 -1q-59 0 -115 6.5t-114 11.5h146q11 0 20 7t11 18 q35 -7 69.5 -12t70.5 -7q2 0 2 2t-2 2q-33 2 -64.5 6.5t-63.5 10.5q14 2 27 5.5t27 8.5q2 1 1 3t-3 1l-32 -9q-15 -5 -32 -7v1v34l61 -6l69 -8q2 0 2 2t-2 2l-68 8l-62 6v352l216 -403q4 -7 12 -12t15 -5h94q7 0 15 5t12 12l217 404v-363l-24 10l-23 8q-2 1 -3 -1t1 -3 l24 -8l25 -10v-16q-15 1 -33 3h-53q-23 6 -39 16q-2 1 -3 -1t1 -3q14 -8 28 -12h-27q-2 0 -2 -2t2 -2h39q21 -6 43 -8.5t45 -3.5q2 -11 10.5 -18t19.5 -7h200q4 0 12 2q20 -1 39.5 -1.5t40.5 -0.5q2 0 2 2t-2 2q-20 0 -38 0.5t-36 1.5q12 8 13 20q12 2 22 4.5t18 6.5 q2 1 1 3t-3 1q-8 -4 -17.5 -6.5t-20.5 -4.5v8q17 1 32.5 2.5t20.5 3.5q2 1 1 3t-3 1q-4 -2 -19 -3.5t-32 -2.5v686q22 -4 42.5 -6.5t40.5 -3.5l106 3q2 0 2 2t-2 2l-70 -2q0 2 -2 2q-17 1 -31.5 3.5t-28.5 4.5l-27 4q-14 2 -30 3zM807 -8q-2 0 -2 -2t2 -2h60q54 0 111.5 -7 t111.5 -7q43 0 72.5 5.5t57.5 20.5q2 2 1 3.5t-3 0.5q-28 -15 -56.5 -20.5t-71.5 -5.5q-54 0 -111.5 7t-111.5 7h-60z" />
<glyph unicode="N" horiz-adv-x="862" d="M-65 807q12 3 24 3q34 0 59 -5.5t51 -20.5h-10q-6 0 -8 -1q-29 5 -60 9.5t-56 14.5zM853 739l-6 1v1zM740 793q18 -3 36 -9h-17q-5 2 -9.5 4.5t-9.5 4.5zM651 849q-2 2 -3.5 1t-0.5 -3q9 -14 30.5 -26t38.5 -20q-7 1 -14 1.5t-15 0.5q-2 0 -2 -2t2 -2q20 0 40 -3 q5 -3 11 -6l12 -6h-82q-18 5 -34 11l-32 13q-16 6 -33 10t-38 4q-2 0 -2 -2t2 -2q37 0 64.5 -11.5t59.5 -22.5h-34q-3 0 -5.5 -0.5t-5.5 -1.5q-11 3 -22.5 6.5t-24.5 8.5q-14 4 -25 9l-22 11l-22 10q-11 5 -25 10q-2 1 -3 -1t1 -3q14 -5 25 -10l22 -10l22 -11q11 -5 25 -9 q12 -4 22.5 -7t21.5 -7q-15 -8 -15 -25v-368l-57 78l-57 77l-85 113l-85 117q-2 5 -10.5 9t-14.5 4h-204q-29 18 -55.5 24t-62.5 6q-8 0 -15.5 -1t-14.5 -3q-2 2 -4.5 2.5t-4.5 2.5q-2 1 -3 -0.5t1 -3.5q4 -2 5 -2l-31 -10q-15 -4 -32 -5q-2 0 -2 -2t2 -2q19 1 35 6l33 10 q15 -7 33 -11t37 -7l23 -4l23 -4q-6 -4 -10 -10q-54 2 -107.5 -1.5t-104.5 -3.5q-2 0 -2 -2t2 -2q51 0 104 3.5t106 1.5q-3 -6 -3 -12v-14q-9 0 -17.5 -0.5t-16.5 -0.5q-13 0 -24 1t-20 4q-2 1 -3 -1t1 -3q10 -3 21.5 -4t24.5 -1q8 0 16.5 0.5t17.5 0.5v-8q-28 2 -55.5 5 t-56.5 14q-2 1 -3 -1t1 -3q29 -11 56 -14t54 -5h4v-674q-16 7 -38 13l-13 6l-14 7q-2 1 -3 -1t1 -3l6 -3q-5 2 -9 2.5t-9 1.5q-2 0 -2 -2q0 -1 2 -2q11 -2 21 -4.5t19 -5.5q10 -4 18.5 -7t19.5 -6l1 -1v-15q0 -5 4 -15l-14 3q-20 5 -40 8t-45 3q-2 0 -2 -2t2 -2 q25 0 44.5 -3t39.5 -8l19 -4q8 -10 22 -10h44l22 -2l26 -12q14 -6 29 -11t32.5 -7t36 -2.5t36.5 0t33 0.5q2 0 2 2t-2 2q-31 0 -69 -1t-67 10q-23 8 -46 18l67 -6l61 -5q31 -2 63.5 -5t71.5 -6q30 -2 50.5 -1.5t49.5 -4.5q2 0 2 2q0 1 -2 2q-29 5 -49.5 4.5t-50.5 1.5l-68 5 l-59 5l-58 5l-61 6h101q8 0 15 4q17 -5 32 -8l33 -8q2 -1 2 1t-2 3q-28 6 -61 15q5 2 8 9h53q2 0 2 2t-2 2h-51q2 6 2 10v362l282 -380q4 -5 12 -8.5t13 -3.5h224q13 0 22 9t9 21v693q54 -9 112 -9q9 0 15.5 2.5t15.5 4.5q2 1 1 3t-3 1q-8 -2 -14.5 -4.5t-14.5 -2.5 q-58 0 -112 9v9q6 -2 12.5 -2.5t12.5 -1.5l18 -6q9 -3 17 -5q2 -1 3 1t-1 3q-5 1 -8.5 2t-8.5 3q27 -3 54 -3q2 0 2 2t-2 2q-19 0 -37 1.5t-36 3.5q-7 2 -13 4.5t-13 4.5v9v5q28 -11 56.5 -19t60.5 -10q2 0 2 2t-2 2q-19 1 -36.5 4.5t-34.5 8.5q-12 4 -24 7.5t-24 8.5 q-3 9 -10.5 15t-18.5 6h-27q-15 5 -30 9t-31 7l-6 3l-18 9q-10 5 -20.5 11t-19.5 12.5t-13 13.5z" />
<glyph unicode="O" horiz-adv-x="984" d="M962 393q0 205 -119 305.5t-351 100.5t-351 -100.5t-119 -305.5t119 -305t351 -100t351 100t119 305zM335 369l-30 -25q-2 8 -3 16t-2 17l33 21q16 10 35 20l-3 -3l-15 -23q-7 -12 -15 -23zM315 339l-7 -7q-2 6 -2 8l22 18q-6 -11 -13 -19zM545 510q-10 -5 -20 -9.5 t-20 -9.5q11 8 21 14l22 14zM554 522q21 13 42 24l1 1q2 -2 4.5 -2.5t4.5 -2.5q-14 -8 -28 -15l-28 -14q2 3 4 9zM399 421l-54 -44l12 17l12 19q2 2 3.5 5t3.5 5q5 3 10 5l11 6l7 4l-1 -4zM397 413l-25 -22l-24 -23l-21 -18l11 16l59 49v-2zM353 260q-30 25 -43 65q6 8 8 12 l16 14q8 7 16 15l23 20l22 20l-21 -74zM413 478l-21 -26q-10 -13 -19 -26q-20 -11 -38 -22l-35 -22v11q0 139 125 166q-8 -41 -12 -81zM411 458q-1 -5 -5 -15l-11 -5q-4 -2 -7.5 -4t-6.5 -4q16 22 32 41zM408 422l-6 -5l1 2l5 5v-2zM404 302l-17 -26l-18 -27l-6 4q-4 3 -6 5 l22 76l21 76l8 7q-2 -20 -2.5 -39t-1.5 -39q-7 -8 -13 -17l-13 -16q-1 -2 0.5 -3t3.5 1q11 15 22 28v-30zM403 233l-15 6q-8 3 -16 8l16 24l15 24v-62zM414 443q7 4 14 7t14 7l-29 -24zM417 476l2 2l-2 -5v3zM489 485l-6 -5l-14 -6l9 7l9 8zM507 437q-6 -5 -12 -11t-12 -11 l11 17q2 4 5 7.5t5 7.5q1 -4 3 -10zM507 450l22 27q11 14 19 30l32 16q15 8 30 17q2 -1 3.5 -1.5t3.5 -2.5q-15 -12 -23 -21q-19 -19 -40 -38l-43 -37q-1 2 -2 5t-2 5zM495 481q11 6 23 11l24 12q-7 -14 -16.5 -25.5t-20.5 -23.5q-2 6 -5 12.5t-5 13.5zM491 492l36 31 q16 15 32 36q9 -2 17 -4.5t16 -5.5l-18 -11l-19 -10q1 5 1.5 10t0.5 10q0 2 -2 2t-2 -2q0 -13 -3 -23l-28 -19l-30 -19zM478 540l15 13q7 7 15 13q24 -1 47 -6q-15 -20 -31 -35l-35 -29q-4 11 -6.5 22t-4.5 22zM475 566h17h10l-12 -11q-7 -5 -13 -11q-1 5 -1.5 11t-0.5 11z M441 556v-1q-1 0 -1 -1q-2 -18 -6.5 -33.5t-9.5 -29.5l-1 -2l-5 -6q2 20 4.5 39t6.5 38q8 2 13 2zM440 508q-2 -3 -5 -6l-5 -5q3 8 5.5 17t4.5 19v-17v-8zM442 461q-7 -3 -13 -7l-15 -7l1 10q3 8 6 15t5 15q4 4 7 7.5t7 7.5q0 -10 0.5 -20t1.5 -21zM443 450l-30 -24v1l30 25 v-2zM449 384l-21 -20q-10 -10 -19 -21q0 20 1 39l2 38l16 13l15 12q2 -15 3 -30t3 -31zM450 373l-21 -33l-21 -31v28l20 21q10 11 21 21zM454 372l20 30l11 10l12 10q6 5 11 10q6 -23 1 -46q-1 -2 1 -2t3 2q6 24 -1 49l44 39q21 19 40 39q5 5 11.5 10t12.5 11 q65 -42 65 -141q0 -86 -49.5 -129.5t-143.5 -43.5q-49 0 -85 12v34q0 18 1 35l22 33l21 33l4 -45l4 -42q0 -2 2 -2t2 2q-2 21 -4 44.5t-5 47.5zM453 383l9 8l-8 -13zM447 448l19 15q9 7 19 14l6 3q3 -8 6 -14.5t6 -14.5q-4 -4 -7 -8t-6 -9l-19 -29q-5 -5 -9 -8.5t-9 -8.5 q-2 15 -3 30.5t-3 29.5zM447 455l10 9l9 4l-9 -8l-10 -7v2zM444 506q15 16 31 31q1 -5 1.5 -8.5t1.5 -8.5l4 -14l4 -13l-10 -8l-21 -18l-9 -4q-1 11 -1.5 21.5t-0.5 21.5zM446 563q6 1 12 1.5t13 0.5q1 -5 1.5 -11t1.5 -12l-30 -30v4q0 13 0.5 24t1.5 23zM410 441l-1 -12 l-4 -3l2 6l2 9h1z" />
<glyph unicode="P" horiz-adv-x="753" d="M353 605q54 4 84 -16.5t30 -58.5q0 -78 -121 -73l-51 2v142zM275 -3q-43 -1 -88 3h57q8 -1 15.5 -1.5t15.5 -1.5zM295 0q-6 0 -11.5 0.5t-10.5 0.5l2 1q1 0 3 1q4 -1 8 -1.5t9 -1.5zM-41 774q17 5 32.5 10.5t35.5 5.5q19 0 34 -6h-9q-14 0 -22 -11q-17 1 -34 1h-33h-4z M327 0q-21 1 -44 6q7 5 10 11h1q8 -5 16 -9zM342 -8q-62 0 -129.5 1t-133.5 7h73q39 -5 77 -7t73 2q9 0 18 -0.5t18 -0.5zM307 14l29 -4l29 -4l17 -2q8 -1 17 -1q1 0 2 1q8 -1 16 -1h16q2 0 2 2t-2 2q-34 0 -67 3q-20 5 -36.5 13t-33.5 19v238l103 -1q164 -2 248 60.5 t84 195.5q0 67 -24.5 114.5t-72.5 77.5t-120 43.5t-167 13.5h-277q-17 10 -43 10q-24 0 -42.5 -7t-39.5 -13q-15 0 -29.5 -0.5t-28.5 -4.5q-2 -1 -2 -3t2 -1q12 3 24 4t24 1q0 -2 2 -2q2 1 5 1q2 0 4 1h17h64q-2 -3 -3 -5.5t-2 -5.5h-11q-17 2 -33.5 2.5t-34.5 0.5 q-2 0 -2 -3h-20q-2 0 -2 -2t2 -2h89q4 0 12 -2v-32q-32 2 -64 1.5t-65 -0.5q-2 0 -2 -2t2 -2q33 0 65 0.5t64 -1.5v-3q-14 1 -27 1.5t-27 0.5q-2 0 -2 -2t2 -2q14 0 27 -0.5t27 -1.5v-616q-18 5 -37 9.5t-39 6.5q-2 0 -2 -2t2 -2q20 -2 39 -6.5t37 -9.5v-31q-28 11 -49.5 22 t-50.5 29q-2 1 -3 -0.5t1 -3.5q29 -18 51 -29t51 -22v-25v-4l-17 3q-39 8 -76 19t-72 25q-2 1 -3 -1t1 -3q73 -29 150 -44l18 -3q5 -11 14 -17l-18 2q-8 1 -17 3q-15 2 -29 6.5t-30 6.5q-2 0 -2 -2t2 -2q15 -2 29.5 -6.5t29.5 -6.5q40 -7 84 -10.5t89 -5t90 -2t86 -0.5 l26 -12l27 -13q2 -1 3 1t-1 3l-24 10l-22 11h1q2 0 2 2t-2 2h-9l-5 2h8h6q2 0 2 2t-2 2h-12q-6 0 -11 1l-16 7zM295 21q0 2 0.5 4.5t0.5 4.5v7q23 -15 46 -24l-23 4z" />
<glyph unicode="Q" horiz-adv-x="991" d="M396 347q-4 -4 -6 -5l5 4zM412 351q-3 -2 -6.5 -3.5t-7.5 -3.5q2 2 3 2.5t3 2.5zM471 394q24 14 46 33q-16 -17 -38 -33h-8zM317 325l-5 -2l-1 2h6zM349 336q-5 -2 -9.5 -3t-9.5 -3q-5 0 -10 -0.5t-10 -0.5q-3 8 -4.5 16.5t-3.5 17.5q16 7 32 11.5t34 8.5l-3 -6l-8 -20z M347 331h-2l2 1v-1zM331 286q-11 16 -18 34q5 2 9 3t8 3h7q4 0 9 1l-8 -20zM352 333l18 6q9 3 17 5l-6 -7v-1q-8 -2 -20 -4q-2 0 -4.5 -0.5t-4.5 -0.5v2zM373 384q8 2 16 3t16 3h1l-10 -18q-4 -9 -6 -16q-1 -2 1 -3t3 1q5 16 17 36h19l-19 -20l-19 -20l-19 -6l-19 -6l7 19 l8 19zM451 386l-25 -15q-12 -8 -23 -18l-3 -1q9 10 18 19t18 19h18zM435 365l-8 -5l-15 -4q15 11 34 22q-3 -3 -5.5 -6.5t-5.5 -6.5zM420 348q-4 -2 -8 -3t-8 -3q6 3 11.5 6.5t11.5 6.5zM454 383l11 7h8l-13 -9l-14 -10l4 6zM919 -103l4 1q3 0 5 2q-5 -17 -11 -34.5 t-11 -34.5q4 17 7.5 35t5.5 31zM941 99q0 2 -2 2t-2 -2v-20q-1 0 -1.5 -0.5t-2.5 -0.5q4 11 4 27q0 2 -2 2t-2 -2q0 -8 -1 -14.5t-3 -13.5q-6 -2 -13.5 -3t-27.5 -1q-17 0 -31 2t-27 5l9 9q124 104 124 307q0 206 -120 308t-351 102q-230 0 -350 -102t-120 -308t120 -307 t350 -101q23 0 41.5 0.5t32.5 1.5l9 -7l6 -6q97 -89 256 -89q8 0 17.5 0.5t18.5 1.5q-11 -34 -23 -67.5t-26 -62.5q-1 -2 1 -3t3 1q14 30 26 64l23 68l5 1q-5 -20 -10.5 -39t-12.5 -36q-1 -2 1 -3t3 1q12 34 23 77q8 2 15.5 2.5t13.5 2.5q-2 -12 -5 -28l-7 -32l-7 -26 t-5 -12t-1 -3t3 -1v1l-3 -10q-1 -2 1 -3t3 1l19 55l18 57q-2 -20 -3.5 -38.5t-3.5 -38.5q0 -2 2 -2t2 2l4 44l4 44q7 8 8 15l17 82l5 26l2 12q1 2 1 7l4 39q2 18 2 37q0 2 -2 2t-2 -2q0 -16 -1 -31.5t-3 -31.5q-4 8 -9 12q11 27 11 57q0 2 -2 2t-2 -2q0 -23 -8 -49 q1 11 1.5 21.5t0.5 21.5q0 2 -2 2t-2 -2q0 -24 -3 -48q-5 3 -11 3v20zM388 333h-1l2 1l-1 -1q7 2 13 4t13 4l-32 -29q-16 -15 -31 -31q-2 -1 -0.5 -2.5t2.5 0.5q17 17 34.5 32.5t34.5 32.5q7 2 13.5 4.5t14.5 4.5q2 1 1 3t-3 1q-5 -2 -10 -3.5t-10 -3.5q2 3 7 8 q26 8 53.5 15.5t54.5 16.5q2 1 1 3t-3 1q-51 -17 -100 -30q11 6 20.5 12.5t18.5 13.5h12q2 0 2 2t-2 2h-6q14 11 27.5 23.5t24.5 26.5q0 2 -1 2v1q2 2 0.5 3t-2.5 -1q-21 -21 -42 -36q-7 -5 -14 -9l-15 -10h-3l6 11q3 5 5 11q1 2 -1 3t-3 -1q-2 -7 -5 -12.5t-7 -11.5h-16 q15 17 29 34.5t25 37.5q1 2 -1 3t-3 -1q-11 -21 -25.5 -39t-30.5 -35h-20q10 15 22 29t26 20q2 1 1 3t-3 1q-14 -8 -27.5 -22t-23.5 -31h-4q-17 -3 -30 -6q10 21 22 42.5t29 47.5q1 2 -0.5 3t-3.5 -1q-17 -26 -29.5 -48.5t-22.5 -44.5q-19 -4 -35.5 -8.5t-32.5 -11.5 q-1 7 -1.5 14t-0.5 15q0 87 49 131t143 44q95 0 144 -44t49 -131q0 -86 -49 -130t-144 -44q-110 0 -158 60q5 12 8.5 23t7.5 22q3 0 5.5 0.5t5.5 0.5q4 1 7 1t7 1q0 -4 3 -2l1 1l-4 -5q-1 -2 0.5 -3t3.5 1q6 8 9 11zM388 333l1 1l-2 -1h1z" />
<glyph unicode="R" horiz-adv-x="943" d="M455 605q55 0 84 -17t29 -54q0 -44 -38 -61t-111 -17h-120v149h156zM282 -5h1h1h-2zM96 0h129q14 0 28.5 -1.5t28.5 -3.5q-45 0 -92 1t-94 4zM-11 9h42q2 -2 3 -2.5t3 -2.5q-7 1 -14 1.5t-14 1.5zM38 780h1h-1zM-56 754q20 3 39.5 5.5t40.5 4.5q-2 -6 -2 -10v-6 q-40 1 -78 6zM-32 777q2 0 2 2t-2 2q-10 1 -19 2t-17 3h17q9 0 18 -1q4 0 7.5 -0.5t6.5 -0.5q14 -2 27 -3.5t25 -3.5q-2 -2 -3.5 -4.5t-3.5 -4.5q-26 -2 -49 -5.5t-47 -6.5q-21 2 -42 6l-45 7q-2 0 -2 -2t2 -2q20 -3 37.5 -6t34.5 -5q-10 -2 -20 -2.5t-21 -1.5q-2 0 -2 -2 t2 -2q29 1 56 6q22 -3 44 -5t48 -3v-691l-42 18q-22 9 -45 17q-2 1 -3 -1t1 -3q23 -8 45 -17.5t44 -17.5v-19v-1q-35 7 -67.5 16t-63.5 21q-2 1 -3 -1t1 -3q62 -23 133 -37q1 -6 6 -12h-63q-1 0 -2 -1q-22 4 -42.5 11.5t-38.5 26.5q-1 2 -2.5 1t0.5 -3q13 -15 28 -23 t31.5 -12.5t34 -6t35.5 -3.5q66 -7 136 -9.5t138 -2.5q2 0 2.5 1.5t-1.5 2.5q49 -5 96 -8t90 -3q12 0 20.5 2t20.5 2q2 0 2 2t-2 2q-12 0 -20.5 -2t-20.5 -2q-45 0 -95.5 3.5t-103.5 8.5h3q11 0 21 8q3 2 5 5q1 0 1 2q4 10 4 15v247h97q54 0 62 -6q5 -3 9.5 -8t8.5 -10l-1 2 l116 -216l-58 9l-65 9q-2 0 -2 -2t2 -2l66 -9l60 -10l4 -8q-21 1 -42 1.5t-42 -4.5q-2 -1 -2 -3t2 -1q22 5 43 4.5t43 -1.5l3 -5q1 -1 1 -2l1 -1q-22 6 -47 9q-2 0 -2 -2t2 -2q15 -2 27.5 -4.5t24.5 -6.5q10 -8 20 -8h10q10 -3 24 -6q35 -8 74 -15t79.5 -12t81 -8t77.5 -3 q2 0 2 2t-2 2q-37 0 -77.5 3t-81 8t-79.5 12t-74 15l-8 2h228q18 0 26 13q8 0 16 3h12q22 0 37 7.5t30 21.5q2 1 1 2.5t-3 -0.5q-15 -13 -30 -20t-35 -7h-2l4 2q2 1 1 3t-3 1q-6 -5 -12 -6h-12q3 13 -4 26l-137 231q-15 20 -37.5 40t-54.5 37q27 9 49.5 20.5t39.5 24.5 q69 51 69 165q0 101 -84 163q-78 57 -207 57h-502h-5q-16 1 -31.5 1.5t-31.5 2.5l-18 1l-33 4q-17 2 -34 7q-2 1 -2 -1t2 -3q8 -2 16 -3.5t16 -3.5q-9 0 -14 -1l-25 4q-13 2 -30 2q-2 0 -2 -2t2 -2q13 0 23.5 -1t20.5 -3q-7 -1 -14 -5q-2 -2 -1 -3.5t3 -0.5q8 5 23 7l24 -4 q12 -2 27 -3z" />
<glyph unicode="S" horiz-adv-x="730" d="M647 792q0 2 -2 2t-2 -2q0 -44 8.5 -81t19.5 -79q10 -36 16 -73.5t0 -85.5q0 -2 2 -2t2 2q6 48 0 86t-16 74q-11 42 -19.5 78.5t-8.5 80.5zM114 13l34 -6v1q8 -2 15.5 -3t17.5 -3q43 -7 86.5 -10.5t87.5 -3.5q82 0 147.5 17.5t111 51t70 83t24.5 114.5q0 100 -67 164 q-60 60 -222 92q-45 8 -78 17.5t-56 17.5q-25 9 -25 25q0 17 24.5 24t69.5 7q59 0 133 -21q28 -8 54 -17t51 -20v-16v-16v-22q0 -12 1 -22t3 -13t4 -1q2 1 2.5 5.5t2.5 6.5q2 0 2 1q0 2 -2 3q-3 1 -4.5 -3t-2.5 -6q-1 5 -1 13q0 9 -1 18v36v14q6 -4 16 -7q2 -18 4.5 -34.5 t4.5 -35.5q0 -2 2 -2t2 2q-2 18 -4.5 34.5t-4.5 33.5l7 -4q8 -5 16 -4t15 5q5 -16 9 -32l8 -33q1 -2 3 -2t1 2q-5 18 -9 34.5t-9 33.5q11 9 9 27l-20 175q-1 8 -7.5 16t-14.5 10l-4 1q1 16 1.5 32t0.5 33q0 2 -2 2t-2 -2q0 -17 -0.5 -32.5t-1.5 -31.5q-3 1 -11 3 q0 11 -0.5 21t-0.5 21q0 2 -2 2t-2 -2v-21q0 -10 1 -20l-2 1q1 20 1 40v41q0 2 -2 2t-2 -2v-41q0 -19 -1 -39q-17 4 -38 8l-47 9q-79 14 -149 14q-160 0 -249.5 -65t-89.5 -191q0 -108 73 -168q67 -56 240 -91q92 -18 118 -34q16 -11 16 -22q0 -21 -27.5 -32t-72.5 -11 q-73 0 -163 30q-71 24 -116 46v24q0 13 -1 26q0 2 -2 2t-2 -2q1 -13 1 -25v-24l-12 6v34q0 17 -1 37q0 2 -2 2t-2 -2q1 -20 1 -37v-32q-8 5 -16.5 4t-14.5 -6v21q0 2 -2 2t-2 -2v-24q-10 -10 -8 -25l8 -96q0 -49 -1.5 -97t-5.5 -92q0 -2 2 -2t2 2q3 35 4.5 72t2.5 75l4 -52 q2 -15 16 -24q-1 -14 -1.5 -28.5t-0.5 -29.5q0 -2 2 -2t2 2q0 14 0.5 28t1.5 28q2 0 2.5 -0.5t1.5 -0.5q8 -2 18.5 -4t24.5 -5q0 -46 -4 -92.5t-21 -87.5q-1 -2 1 -3t3 1q17 42 21 88.5t4 92.5z" />
<glyph unicode="T" horiz-adv-x="797" d="M44 591q5 -4 15 -4h4q-1 -26 -3.5 -49.5t-9.5 -34.5q-2 19 -3.5 36.5t-1.5 30.5q0 5 -0.5 10.5t-0.5 10.5zM27 736l2 9v-21zM764 768v-1v2v-1zM254 25h7h5h1q0 -4 1 -5q-4 1 -7 2t-7 3zM555 -43q-56 -8 -110.5 7t-108.5 33l18 -2q51 -11 99 -23t102 -15zM759 801v1v-1z M533 6q4 2 6 6l4 8q38 -2 74 -4.5t69 -6.5q2 0 2 2t-2 2q-33 4 -68.5 6.5t-72.5 4.5v6v557h206h1q2 -26 3 -52t1 -52q0 -2 2 -2t2 2q0 26 -1 52t-3 52q2 1 5 1.5t5 2.5q1 -21 1.5 -41.5t0.5 -41.5q0 -2 2 -2t2 2v33q0 16 -1 33q3 -29 3 -63v-25v-7q0 -2 2 -2t2 2v7v25v7 q3 0 3 2q0 22 -1.5 41.5t-3.5 38.5q6 7 6 18v136q0 18 -16 26q0 10 -3 21v19q0 2 -2 2t-2 -2v-18v-1q-8 25 -18 41q-2 2 -3.5 1t-0.5 -3q15 -23 22 -54v-3q-2 1 -8 1h-9q-4 14 -8.5 28t-11.5 27q-2 2 -3.5 1t-0.5 -3q7 -12 11.5 -25.5t8.5 -27.5h-3v1q-1 2 -3 2q-1 0 -1 -2 q0 2 -2 2t-2 -2v-1h-663q-2 18 -3 33q0 2 -2 2t-2 -2l3 -33h-1q-4 0 -10 -2q2 6 2.5 11.5t2.5 10.5q1 2 -1 2t-3 -2q-4 -13 -5 -24q-9 -3 -12 -12q3 24 3 49q0 2 -2 2t-2 -2q0 -19 -2 -36l-4 -32q-1 2 -2.5 1.5t-1.5 -2.5l1 -12l-1 -5l-8 -40q-4 -19 -7 -40 q-7 -48 -10.5 -91.5t-8.5 -92.5q0 -2 2 -2t2 2q5 49 8.5 92.5t10.5 91.5q3 19 6 36l8 37q1 -8 2 -15t2 -15v-76q0 -5 2 -11q-2 -32 -4.5 -63.5t-7.5 -60.5q0 -2 1 -2q2 0 3 2q5 27 7.5 56.5t4.5 60.5q1 -2 5 -6q0 -6 0.5 -12t0.5 -12l3 -37q1 -22 3 -43q2 -23 0.5 -39.5 t-6.5 -23.5q-1 -2 0.5 -3t3.5 1q6 7 7 25.5t-1 39.5v7q9 11 12 36t4 54h199v-557v-1h-11h-11l-44 17q-21 9 -47 17q-2 1 -3 -1t1 -3q23 -7 43 -15l39 -15h-22q-2 0 -2.5 -1.5t1.5 -2.5q-8 -1 -14.5 -2t-13.5 -3q-2 -1 -1.5 -3t2.5 -1q14 4 29.5 5.5t32.5 2.5q6 -2 12.5 -4.5 t13.5 -5.5q1 -2 3 -4l3 -3h-1q-57 6 -121 6q-2 0 -2 -2t2 -2q28 0 53.5 -1t50.5 -3q0 -2 2 -2h15l9 -1q3 -1 5.5 -1.5t5.5 -0.5h11l11 -1l63 -21q31 -10 63 -17.5t64.5 -9.5t64.5 5h9q11 0 19 1t19 2q2 0 2 2t-2 2q-11 -1 -19 -2t-19 -1q-52 0 -99 10l-95 21q40 -5 80 -8 t83 -3q20 0 37 4.5t38 -0.5q2 -1 2 1t-2 3q-21 5 -37.5 0.5t-37.5 -4.5q-53 0 -101 4.5t-96 10.5l-5 1h166q6 0 12 3l28 -4q14 -2 28 -2q2 0 2 2t-2 2q-13 0 -25 1.5t-25 3.5zM4 821q-1 2 -3 1t-1 -3q6 -20 9.5 -35t3.5 -36q0 -2 2 -2t2 2q0 21 -3.5 37t-9.5 36z" />
<glyph unicode="U" horiz-adv-x="855" d="M325 687q-4 -1 -12 -1h-24v4q18 -3 36 -3zM306 692q-5 0 -8.5 0.5t-8.5 1.5v2q7 -2 17 -4zM833 751v1q14 -2 29 -3l31 -2q-16 1 -31 1.5t-29 2.5zM506 750q-2 1 -3 -0.5t1 -3.5q30 -21 62 -30v-370q0 -69 -32 -99.5t-104 -30.5q-76 0 -108.5 29t-32.5 98v339h24 q8 0 17.5 1t20.5 3h7q9 1 18.5 1.5t19.5 2.5q2 0 2 1q0 2 -1 3q7 1 13 1.5t11 0.5q2 0 2 2t-2 2q-12 -1 -27 -3l-28 -4l-13 -3q-17 1 -32.5 3.5t-31.5 6.5v8q9 1 18 1.5t18 0.5q23 0 46.5 -1t45.5 -1q2 0 2 2t-2 2q-23 0 -46 1t-46 1q-9 0 -18 -0.5t-18 -1.5v16q31 1 62 0 t60 -1q2 0 2 2t-2 2q-29 0 -60 1t-62 0v19q17 2 34.5 4.5t23.5 5.5q2 1 1 3t-3 1q-5 -3 -22.5 -5.5t-33.5 -4.5q0 7 -3 13h43q14 0 23.5 0.5t21.5 2.5q2 1 2 2q0 2 -2 2q-12 -2 -21.5 -2.5t-23.5 -0.5h-46q-10 13 -25 13h-205q-5 0 -11 -2q-8 4 -16 7t-16 7q-2 1 -3 -1t1 -3 q12 -4 26 -11l-18 1q-12 3 -23 7l-24 7q-2 1 -3 -1t1 -3q8 -2 15.5 -4.5t15.5 -4.5q-2 -1 -1.5 -2.5t2.5 -1.5l17 -1l15 -4q-3 -1 -4 -4q-31 3 -61.5 5t-59.5 2q-2 0 -2 -2t2 -2q29 0 58.5 -2t60.5 -5q-1 -2 -3 -8h-38q-2 0 -2 -2t2 -2h38v-34q-8 2 -16 3.5t-16 3.5 q-22 5 -42.5 12t-45.5 13q-2 1 -2 -1t2 -3q23 -5 42 -12t40 -12q-39 6 -78 6q-2 0 -2 -2t2 -2q29 0 58 -3t58 -8v-459q0 -155 107 -215q97 -54 297 -54q194 0 296 54q111 60 111 205v456q11 -1 22 -1h22q20 0 38.5 -0.5t38.5 3.5q2 0 2 2t-2 2q-20 -4 -38.5 -3.5t-38.5 0.5 h-22q-11 0 -22 1v40q20 -2 41 -3t43 -1q2 0 2 3h26q2 0 2 2t-2 2q-61 0 -112 6q-1 12 -9.5 20.5t-20.5 8.5h-15q23 5 46 11.5t47 14.5l-9 -5q-2 -2 -1 -3.5t3 -0.5q8 5 15 8l16 8q2 1 1 3t-3 1l-68 -21q-33 -10 -68 -16h-160l-47 8q-24 4 -49 7q-2 0 -2 -2t2 -2 q20 -2 39 -5.5t39 -6.5q-3 -1 -7 -3h-12h-37q-2 0 -2 -2t2 -2h37h6l-3 -3h-1q-16 0 -28 -2l-27 -3q-2 0 -2 -2t2 -2q16 2 27 3.5t26 1.5q-4 -8 -4 -15v-4q-21 5 -43 8t-46 3q-2 0 -2 -2t2 -2q24 0 46 -3t43 -8v-27q-16 5 -31 12t-29 18z" />
<glyph unicode="V" horiz-adv-x="964" d="M940 746q0 1 0.5 1.5t0.5 1.5q9 2 17 4.5t19 7.5q2 1 1 3t-3 1q-10 -5 -17.5 -7.5t-15.5 -4.5q1 14 -8 23t-24 9h-84q11 2 21 3.5t21 3.5q20 4 40.5 7.5t42.5 5.5q2 0 2 2t-2 2q-45 -4 -85.5 -13.5t-85.5 -9.5q-29 0 -51.5 2.5t-42.5 7.5l-41 10l-47 9q-2 0 -2 -2t2 -2 q26 -5 46.5 -9.5t40.5 -9.5q10 -2 20.5 -3.5t21.5 -3.5h-35q-12 0 -22 -10q-8 2 -15.5 3t-15.5 3h-37q-2 0 -2 -2t2 -2h37q7 -2 13.5 -3t14.5 -3q-1 -1 -1.5 -2t-1.5 -2l-6 -12q-29 4 -58 7t-61 3q-2 0 -2 -2t2 -2q32 0 60.5 -2.5t57.5 -7.5l-167 -372l-161 345q29 2 53 9.5 t46 18.5q2 1 1 3t-3 1q-22 -11 -46 -18.5t-53 -9.5l-9 19l6 1q13 1 26 3t31 7q2 1 1 3t-3 1q-19 -5 -33.5 -7.5t-29.5 -3.5l-7 16q13 -1 26.5 -1.5t27.5 -0.5v-1q16 0 29 4t26 9q2 1 1 3t-3 1q-11 -5 -21.5 -8.5t-23.5 -5.5q0 1 1 2h-1q-17 1 -33.5 1.5t-32.5 2.5 q-10 12 -24 12h-114q-10 0 -19.5 0.5t-20.5 0.5q-21 0 -35.5 -0.5t-33.5 -0.5h-4q-23 0 -30 -19q-22 4 -50 6q-2 0 -2 -2t2 -2q26 -1 49 -6q0 -2 -1 -3h-13q-2 0 -2 -2t2 -2h13q2 -8 4 -12l-50 8l-52 8q-2 0 -2 -2t2 -2q28 -4 53 -9l52 -10l358 -730q3 -7 12 -12.5t16 -5.5 h131q7 0 15.5 5t12.5 12l357 721q6 1 12 1.5t14 2.5q2 0 2 2t-2 2q-14 -2 -24 -3l5 10v1q5 -1 8.5 -1.5t7.5 -0.5q2 0 2 2t-2 2q-4 0 -7 0.5t-7 1.5z" />
<glyph unicode="W" horiz-adv-x="1341" d="M1017 692l-93 -257l-137 289q60 -8 114 -17t116 -15zM-27 758q13 -1 25 -1t25 -1v-6q-13 2 -25.5 3.5t-24.5 4.5zM407 745q27 -1 56 -1t61 -2q10 -1 19 -1q10 0 18 -1l-12 -24l-25 4l-26 4q-45 9 -91 21zM375 749h-66q10 2 19 3.5t19 3.5l15 -4zM547 713l-135 -279 l-110 311h88l52 -14q27 -6 55 -11q13 -2 25 -3.5t25 -3.5zM335 759l4 -1q-10 -2 -19.5 -3.5t-19.5 -2.5l-2 5q9 1 18 1.5t19 0.5zM496 762q15 -5 29.5 -8.5t28.5 -7.5l6 -2q-8 1 -17 1t-19 1q-75 3 -133 3l-35 9l11 3q18 1 36 1h35h58zM570 760l-6 -13l-9 3q-11 2 -21 5 l-22 6q15 0 29.5 -0.5t28.5 -0.5zM964 735q18 0 35 -0.5t34 -0.5l-2 -4l-25 2l-26 2zM497 766l-24 6l-25 6l-11 2l20 7q13 -4 23 -5q25 -5 48.5 -8t46.5 -5q0 -1 -1 -1v-1l-2 -3q-18 1 -37 1q-18 0 -38 1zM385 765l22 6q11 3 22 7q5 -1 9.5 -2t9.5 -2l16 -4l17 -4h-43h-26 q-13 0 -27 -1zM335 763l-24 6l-23 6q-12 10 -23 10h-23l-13 3l-28 4l-27 4q45 1 89 0t85 -6q22 -2 38 -4l35 -6q-14 -5 -27 -8.5t-27 -6.5q-8 -1 -16 -1t-16 -1zM296 761l-1 4q-1 2 -1.5 2.5t-1.5 2.5q8 -2 15 -3.5t14 -3.5zM884 738q23 -1 46.5 -3.5t49.5 -4.5l24 -2l26 -2 l-11 -30q-64 6 -118.5 15t-115.5 17l-2 5q11 1 22 1h25q22 0 37.5 -0.5t36.5 -3.5q2 0 2 2t-2 2q-21 3 -36.5 3.5t-37.5 0.5h-25q-12 0 -24 -1l-5 10l17 -1l45 -4zM1045 767h-1v-2l-10 -27q-24 0 -49 0.5t-52 1.5q21 3 40 7.5t38 9.5q9 2 17.5 5t16.5 5zM774 753l-1 1h3 q13 -2 24 -3.5t22 -3.5l-29 3q-5 0 -9.5 1t-9.5 2zM1129 795l-5 -1q-9 -2 -18 -4.5t-17 -4.5h-15q-13 0 -23 -10q-29 2 -56 8.5t-55 14.5h44q73 0 145 -3zM928 802l-24 8q-42 14 -84.5 25t-91.5 11q-36 0 -68 -3.5t-62.5 -10.5t-61.5 -16t-64 -20l-15 -5q-34 8 -69 19 l-69 21q-42 12 -84.5 21.5t-86.5 9.5q-2 0 -2 -2t2 -2q43 0 85.5 -9t84.5 -22l67 -21q32 -10 64 -18l-20 -6q-20 5 -38.5 7.5t-42.5 4.5q-49 5 -102 4t-107 1l-32 2q-16 1 -33 1q-26 0 -54.5 -3t-55.5 -9q-2 -1 -2 -3t2 -1q28 6 58 9h1q0 -1 1 -1q28 0 56.5 0.5t58.5 0.5 l42 -4q20 -2 40 -6h-166q-13 0 -21.5 -7t-10.5 -18q-17 1 -34 1.5t-36 0.5q-16 4 -31 8.5t-29 11.5q-2 1 -3 -1t1 -3q27 -12 55 -18q0 -2 2 -2h4q18 -5 36 -7.5t36 -4.5l1 -2l268 -736q3 -8 12 -14t17 -6h114q8 0 17 5.5t12 12.5l201 438l210 -438q4 -8 12 -13t16 -5h115 q8 0 17 6t12 14l248 682h1l2 2h1q0 1 -2 1v1l10 28h40q2 0 2 2t-2 2h-38l2 8h8q2 0 2 2t-2 2h-6l2 6q6 17 -3 29t-26 12h-183q5 2 10 2.5t10 2.5q6 2 12 2.5t13 1.5q46 -2 92 -3t95 -1q2 0 2 2t-2 2q-40 0 -79 1l-76 2q17 1 35 1h36q2 0 2 2t-2 2h-52q-26 0 -52 -4 q-41 2 -81.5 3t-82.5 1q-13 0 -27 0.5t-29 -0.5zM823 782q-2 -2 -1 -3.5t3 -0.5q20 12 47 16t55 4q29 -9 58 -16.5t60 -10.5q-9 -2 -17.5 -5t-17.5 -5q-26 -8 -54 -14t-61 -5q-35 1 -61 7t-58 9h-5l-4 9q-2 8 -11 13t-17 5h-107l-20 5q-2 1 -2 -1t2 -3l4 -1h-13 q-6 0 -13 -3.5t-12 -8.5q-23 2 -47.5 5t-50.5 8q-4 1 -7.5 1.5t-8.5 1.5l10 3q33 11 63.5 20t61 16t62.5 10.5t67 3.5q49 0 91 -11t84 -25l13 -4q-26 -1 -50 -5t-43 -15z" />
<glyph unicode="X" horiz-adv-x="1036" d="M1098 750q-11 -3 -24 -3.5t-26 -0.5h-22q-11 0 -22 1q4 15 -6 27l51 -12zM560 54q-2 0 -2 -2q0 -1 2 -2q28 -5 54 -11.5t54 -12.5h-48q-2 0 -2 -2t2 -2h67l11 -2l6 -8q3 -3 5 -4l-25 -2q-2 0 -2 -2t2 -2l31 2l4 -2h-3l-34 -4q-15 -1 -28.5 -3.5t-26.5 -5.5l-31 -7 q-2 -1 -2 -3t2 -1l31 7q13 3 26.5 5.5t28.5 3.5l34 4l26 2h53q73 -12 143.5 -17t149.5 -5q2 0 2 2t-2 2q-72 0 -136.5 4t-130.5 14h161q16 0 24 10h86q2 0 2 2t-2 2h12q2 0 2 2t-2 2h-93q2 4 2 6q3 1 6 1t5 1q2 0 2 2t-2 2q-3 -1 -6 -1q-2 0 -5 -1q0 13 -7 21l-290 361 l275 316h8q19 -2 38 -3t39 -1q2 0 2 2t-2 2q-12 0 -24 0.5t-24 1.5q5 0 9.5 0.5t10.5 1.5q2 0 2 2t-2 2q-15 -2 -25.5 -2.5t-23.5 -1.5l-4 1l2 2q5 5 6 10q11 -1 22 -1h23q14 0 30.5 1t30.5 7q2 1 1 3t-3 1q-4 -2 -5 -2q0 2 -2 2l-53 12q-27 7 -56 13q-8 5 -18 5h-4 q-54 11 -109 18.5t-106 7.5q-15 0 -25 -0.5t-25 -3.5q-2 -1 -2 -3q0 -1 2 -1q15 3 25 3.5t25 0.5q47 0 96 -6t98 -16h-208q-3 0 -4 -1q-17 3 -33.5 5t-34.5 2q-2 0 -2 -2t2 -2q16 0 31 -1.5t29 -3.5l-6 -3q-11 1 -23.5 2t-26.5 2h-48q-2 0 -2 -2t2 -2h48q11 -2 22 -3t21 -3 l-174 -196l-135 147q14 1 25 3.5t22 7.5q2 1 1 3t-3 1q-21 -10 -49 -11l-21 23q35 3 68.5 6.5t66.5 5.5q2 0 2 2t-2 2l-69 -6l-70 -6l-2 2q24 2 43 7.5t47 14.5q2 1 1 3t-3 1q-28 -9 -47.5 -14.5t-43.5 -7.5l-13 14q-2 3 -9.5 6.5t-12.5 3.5h-263q-17 0 -25 -11l-93 9h-36 q-2 0 -2 -2t2 -2h36l90 -9q-2 -3 -4 -11h-74q-2 0 -2 -2t2 -2h74q0 -11 9 -21l2 -2l-23 -2q-12 -1 -22 -3q-2 -1 -2 -3q0 -1 2 -1q11 2 23 3t26 2l287 -317l-289 -333q-28 10 -49 18.5t-49 22.5q-2 1 -3 -1t1 -3q27 -14 48.5 -22.5t48.5 -17.5l-21 -24q-2 -2 -3 -4 q-20 3 -40 5t-40 3h-40q-2 0 -2 -2t2 -2h40q19 -2 38 -4.5t39 -5.5q-2 -3 -2 -10h-3q-19 1 -34 2t-30 2.5t-30 2.5t-34 1q-2 0 -2 -2t2 -2q19 0 34 -1t30 -2.5t30 -2.5t34 -2h3q2 -11 10 -18.5t22 -7.5h236q3 0 8 2l10 4h23q2 0 2 2q48 0 95.5 1t90.5 1q2 0 2 2t-2 2 q-48 0 -100.5 -1t-104.5 -1l7 8q17 -1 33 -1.5t33 -0.5q2 0 2 2t-2 2q-16 0 -31.5 0.5t-31.5 1.5l193 221l175 -219h-5l-64 14z" />
<glyph unicode="Y" horiz-adv-x="1043" d="M283 784h-48q25 1 48 0zM328 33q13 4 26 7.5t26 7.5v-18v-2q-14 0 -27 1.5t-25 3.5zM308 29l10 2q16 -2 30.5 -4.5t31.5 -2.5q1 -2 1 -3t1 -3q-6 1 -12.5 1.5t-12.5 1.5q-13 2 -24.5 4t-24.5 4zM312 24q11 -2 22 -3.5t22 -3.5q7 -1 14 -1.5t15 -1.5q2 -4 4 -5 q-14 2 -27 4.5t-27 5.5q-6 2 -12 3zM659 14q2 2 4 7l46 -8l45 -10l-47 6q-23 3 -48 5zM756 33q-25 0 -46.5 2t-44.5 5v2q23 -1 45.5 -3.5t45.5 -5.5zM665 46v268l348 420q8 10 7.5 20.5t-7.5 18.5q14 -1 28 -1.5t29 -0.5q2 0 2 2t-2 2h-25q-11 0 -23 1l15 3q2 1 2 2 q0 2 -2 2q-8 -2 -15 -3l-14 -2q-9 6 -20 6h-44q-8 2 -16.5 2.5t-16.5 2.5q15 0 29.5 -0.5t28.5 -0.5q2 0 2 2t-2 2h14q24 0 41.5 -0.5t41.5 -0.5q2 0 2 2t-2 2q-24 0 -41.5 0.5t-41.5 0.5h-50q-2 0 -2 -2q-8 0 -16.5 -0.5t-17.5 -0.5h-12q-54 10 -108.5 18.5t-123.5 8.5 q-18 0 -32 -2t-31 -8q-2 -1 -1 -3t3 -1q16 6 29.5 8t31.5 2q61 0 110.5 -7t97.5 -15q-91 0 -173 6q-2 0 -2 -2t2 -2q31 -2 64 -3.5t66 -2.5h-43q-44 -1 -86 3t-79 16q-2 1 -3 -1t1 -3q38 -12 80 -16t87 -4l57 2l56 2q8 -2 14.5 -2.5t14.5 -2.5h-166q-9 0 -19 -7q-20 2 -39 3 t-39 1q-2 0 -2 -2t2 -2q19 0 37 -1t36 -3q0 -1 -1 -1v-1l-185 -249l-193 239h9q2 0 2 2t-2 2h-13l-1 1q6 1 12.5 1.5t12.5 1.5q2 0 2 2t-2 2q-8 -1 -14.5 -1.5t-13.5 -1.5l-2 3q-3 3 -11 7q23 -2 46.5 -4.5t49.5 -2.5q2 0 2 2t-2 2q-25 0 -48 2.5t-45.5 4.5t-46 3.5 t-48.5 0.5q-2 0 -2 -2t2 -2h-180q-12 0 -22 -7q-25 10 -56 26q-2 1 -3 -1t1 -3q26 -14 55 -25q-2 -2 -4 -6h-4q-15 3 -30.5 5.5t-31.5 4.5q-2 0 -2 -2t2 -2q12 -1 24 -3l24 -4q-9 -1 -17.5 -1.5t-19.5 -2.5q-2 0 -2 -2t2 -2q5 1 8 1t7 1q0 -2 2 -2h35v-6q-11 1 -21 1h-19 q-2 0 -2 -2t2 -2h20q10 0 20 -1q1 -7 8 -15l349 -420v-261q-29 -10 -62 -18q-15 3 -30 5t-31 1q-2 0 -2 -2t2 -2h18q9 0 17 -2q4 0 7.5 -0.5t8.5 -1.5q-3 -1 -6.5 -1.5t-6.5 -1.5l-6 1q-2 0 -2 -2q-10 2 -19 3t-19 2q-2 0 -2 -2t2 -2q7 0 13.5 -1t14.5 -2q-5 -1 -9 -1 q-3 0 -7 -1q-2 0 -2 -2t2 -2q7 1 13.5 1.5t14.5 2.5q11 -2 22.5 -4.5t22.5 -5.5l30 -6q15 -3 31 -5q7 -4 15 -4h224q14 0 22 10q37 -3 72 -7l73 -10l27 -4l27 -4q2 0 2 2t-2 2q-9 2 -18 2.5t-18 2.5q0 2 -2 2l-15 1q-36 4 -69 13t-69 15q1 2 1 5v6q28 -4 55.5 -6t59.5 -1 l63 -12l97 -21q49 -11 102 -18q2 0 2 2t-2 2q-53 7 -101 18l-98 21l-29 6q-15 3 -31 5q0 1 -1 1h-1q-29 5 -57.5 8t-58.5 5zM742 20q-2 0 -2 -2t2 -2q18 1 33.5 -1t30.5 -5t30 -6.5t32 -6.5q2 0 2 2t-2 2q-17 2 -31.5 6t-28.5 7q-15 3 -31 5t-35 1z" />
<glyph unicode="Z" horiz-adv-x="830" d="M67 577v2v-2zM54 563q0 5 -0.5 9t-0.5 8q1 0 1.5 -0.5t1.5 -0.5q-1 -4 -1 -8q0 -3 -1 -8zM806 207v-4v4zM803 -47q-2 10 -3.5 20t-3.5 20q1 4 1.5 7.5t1.5 8.5q4 4 8 12v-1q0 -18 -1 -34t-3 -33zM811 271v8q0 2 -2 2t-2 -2v-23q-1 4 -1 7q0 4 -1 7q-1 2 -3 2q-1 0 -1 -2 q3 -15 3 -30t-1 -30q-6 6 -10 8l4 30q2 16 0 29q0 2 -2 2t-2 -2q2 -13 0.5 -28t-3.5 -29q-4 2 -5 2q-1 5 -1 9t-1 9q0 2 -2 2t-2 -2q1 -5 1 -9t1 -8h-3h-7q-2 9 -2.5 18t-2.5 18q0 2 -2 2t-2 -2q2 -10 2.5 -18.5t2.5 -17.5h-352l373 365q3 3 6 11t3 12v143q0 12 -9 21t-21 9 h-691v2l10 12q5 7 10 15q1 2 -0.5 3t-3.5 -1q-8 -12 -17 -24q-3 15 -3 29q0 13 3 23t7 21q1 2 -1 3t-3 -1q-3 -12 -6.5 -22.5t-3.5 -23.5q0 -8 1 -17l2 -16l-2 -3h-3q-7 0 -15 -4v12q0 -1 1 -1q2 0 2 2q2 7 3 14t2 15l2 6q1 5 2 9.5t3 9.5q1 2 -1 3t-3 -1l-1 -2q-2 0 -2 -2 q-1 -5 -1 -9q0 -3 -1 -8l-1 -4q-2 -5 -3 -10t-3 -10v29q0 2 -2 2t-2 -2v-38q-3 -8 -8 -15.5t-12 -15.5q-1 -2 0.5 -3t3.5 1q5 6 9 12l8 12v-9q-11 -9 -11 -23v-146q0 -5 1 -8q-5 -17 -6 -35.5t0 -38.5q0 -2 2 -2t2 2q-1 19 0 35.5t5 31.5q3 -5 9 -10q1 -17 2.5 -33t3.5 -34 q0 -1 1 -2v-2q0 -2 2 -2t2 2q0 11 -1 19.5t-1 19.5q0 8 0.5 14t1.5 13q2 -1 6 -1h1l1 -16v-8q0 -7 -3 -11q-1 -2 0.5 -3t3.5 1v-20q0 -8 -2 -14q-1 -2 1 -2t3 2q2 8 2 20t-1 27v11q0 7 -1 13h338l-378 -374q-2 -3 -5.5 -10.5t-3.5 -10.5v-152q0 -12 9 -21t22 -9h725 q7 0 13 3q0 -2 0.5 -4.5t0.5 -5.5q-3 -17 -9 -32q-1 -2 1 -3t3 1q2 5 3.5 11t3.5 12q2 -10 3.5 -19t3.5 -18v-1l1 -1l-1 -17q0 -2 2 -2t2 2q2 22 3.5 40.5t2.5 38.5q2 -9 4.5 -17.5t4.5 -18.5q1 -4 4.5 -16.5t3.5 -18.5q0 -2 2 -2t2 2q0 6 -3 19t-5 18q-4 13 -7 25l-6 24v1 v1l-3 10v42q2 -17 3.5 -34.5t5.5 -35.5q4 -21 14 -40t13 -40q0 -2 2 -2t2 2q-2 17 -8.5 31t-12.5 30q-7 17 -10.5 40.5t-5 48.5t-1.5 49v42v35q0 16 1 32q1 1 1 2q0 11 -0.5 18.5t-0.5 18.5z" />
<glyph unicode="[" horiz-adv-x="329" d="M188 544v18q8 -1 16 -1h18q-8 -5 -16.5 -9.5t-17.5 -7.5zM188 466h1h-1zM188 309v14l29 -6q15 -3 30 -5q-15 -1 -30 -1.5t-29 -1.5zM188 125v17q19 -5 38 -8.5t39 -5.5q-19 -1 -38.5 -1.5t-38.5 -1.5zM188 86v12l27 -4l27 -4q-13 0 -26.5 -1t-27.5 -3zM22 226v-36l-10 2 q-18 5 -35.5 13t-36.5 11q20 3 40.5 5.5t41.5 4.5zM22 292v-12q-7 2 -13.5 4.5t-12.5 5.5q7 0 13 0.5t13 1.5zM22 438v-69l-22 6q-35 9 -69 16.5t-68 20.5q20 2 38.5 9.5t38.5 9.5t40.5 3.5t41.5 3.5zM22 522v-24q-26 6 -52.5 10t-54.5 6q26 5 53 6zM22 604v-25 q-12 1 -24 1.5t-25 0.5l24 12q12 6 25 11zM278 650q2 0 2 2t-2 2q-23 0 -45.5 -1.5t-44.5 -3.5v8h93q11 0 18.5 9t7.5 22v88q0 13 -7.5 22t-18.5 9h-232q-11 0 -19 -9t-8 -22v-168q-28 -11 -58 -27q-2 -1 -1.5 -2.5t2.5 -1.5q15 0 29 -0.5t28 -1.5v-50q-33 0 -64.5 -1.5 t-59.5 -9.5q-2 -1 -1.5 -2.5t2.5 -1.5q32 0 62.5 -4.5t60.5 -11.5v-52q-21 -2 -41.5 -3.5t-40.5 -3.5q-23 -3 -43 -11t-43 -8q-2 0 -2.5 -1.5t1.5 -2.5q20 -8 36 -13l33 -10l35 -8l43 -10l22 -6v-69q-9 -1 -17.5 -1.5t-17.5 -1.5q-2 0 -2.5 -1.5t1.5 -2.5q9 -3 18 -6.5 t18 -6.5v-46q-26 -2 -50.5 -5t-47.5 -8q-2 -1 -2 -3q0 -1 2 -1q25 0 45 -10t43 -15l10 -2v-281q0 -13 8 -22t19 -9h232q11 0 18.5 9t7.5 22v88q0 12 -7.5 21t-18.5 9h-93v59q21 2 41 3.5t37 1.5q2 0 2 2t-2 2q-20 3 -39.5 5.5t-38.5 5.5v19q64 3 128 3q2 0 2 2t-2 2 q-29 0 -61.5 5t-66.5 13v90q8 0 16.5 0.5t16.5 1.5q2 0 2 2t-2 2h-17q-8 0 -16 1v62q42 3 87 3q2 0 2 2t-2 2q-45 6 -87 15v135q4 1 7.5 2t7.5 2q2 1 1.5 2.5t-2.5 1.5h-14v70q23 8 41 21q4 4 -1 4h-21q-9 0 -19 1v79q22 2 44.5 3.5t45.5 1.5z" />
<glyph unicode="\" horiz-adv-x="558" d="M252 689l-6 14h32q-6 -4 -12.5 -7t-13.5 -7zM109 560l5 -13q-37 -6 -73 -11t-77 -10q17 7 37.5 12.5t41.5 9.5q17 4 33.5 7t32.5 5zM349 601q-15 -6 -33 -12l-12 4zM280 625l-6 12q22 2 40 4l35 5q17 3 35 5t39 2q-14 -19 -39 -34q-53 2 -104 6zM60 675l9 -21q-8 2 -15 5 t-15 6q5 2 10.5 4.5t10.5 5.5zM34 667q-20 7 -39 18q13 4 27 6l29 4l7 -17q-6 -2 -12 -5zM295 595l-3 1l-11 24q24 -2 48 -3t49 -1q-3 -2 -6.5 -4t-6.5 -4zM385 615h15l-22 -4q2 1 3.5 2t3.5 2zM78 633l4 -11q-47 -5 -96 -6l46 8q23 4 46 9zM71 649l2 -6l-7 1l-28 4 q-14 2 -29 2q7 3 13 6l12 6q9 -4 19 -7zM99 641h-1h1zM309 587q-8 -2 -12 -4l-3 8zM332 502l-1 1l10 2zM139 488l2 -5h-16zM381 568l45 -12l46 -12q-23 -8 -43 -7.5t-43 -3.5l-34 -6l-29 -4l-9 22q17 5 34 11zM301 574l-2 6q8 1 17 5l24 -6q-10 -2 -20 -3zM265 660l-11 26 q15 7 32 17q4 4 -1 4h-40l-12 27q43 2 86 4.5t86 2.5q-32 -26 -68 -43.5t-72 -37.5zM381 572l-20 5q13 2 26 4.5t27 4.5q5 1 9.5 2.5t9.5 3.5l2 1q-26 -12 -54 -21zM312 548l-9 22l48 6l24 -7zM128 479q-39 -5 -80 -6q23 9 45 13t44 6l-24 -9q-2 -1 -1.5 -2.5t2.5 -1.5h14z M365 508l41 8q21 4 41 10q2 1 1.5 2.5t-2.5 1.5q-20 0 -41 -5.5t-41 -12.5q-9 -2 -17.5 -2.5t-16.5 -2.5l-5 12q14 2 29 5t32 5q13 2 24 2t22 0.5t22 2.5t25 8q4 2 0 4l-45 12l-46 12l33 12l32 14q2 1 1.5 2.5t-2.5 1.5q-11 0 -19.5 -4t-18.5 -6l-32 -6l-31 -4l-28 7 q21 7 43 18q14 2 27.5 5t27.5 5q2 1 2 2q0 2 -2 2h-29q11 8 20 16t17 19q3 3 -2 3q-23 0 -41.5 -2t-35.5 -5l-36 -5q-19 -2 -41 -4l-7 15h1l75 39q37 19 70 46q4 4 -1 4q-44 0 -87.5 -2.5t-86.5 -4.5h1q26 8 51 17t53 12q2 0 2 2t-2 2q-29 -3 -53.5 -12t-52.5 -17l-6 -2 l-5 14q26 11 47.5 23.5t38.5 28.5q2 1 1 2.5t-3 -0.5q-17 -14 -38.5 -27t-47.5 -24l-10 23q-3 8 -11 13.5t-16 5.5h-134q-17 0 -25.5 -13t-1.5 -30l25 -57q-17 -2 -32 -4t-29 -7q-4 -2 0 -4l21 -11l19 -9q-8 -3 -14 -7l-15 -7q-2 -1 -1.5 -2.5t2.5 -1.5q17 1 32.5 -1.5 t32.5 -4.5l9 -1l1 -3q-31 -6 -61 -10.5t-56 -9.5q-2 0 -2 -2t2 -2q65 0 125 6l23 -55q-39 -5 -82 -14t-74 -25q-2 -1 -1.5 -2.5t2.5 -1.5l84 11l80 12l20 -47q-25 -2 -49 -7t-50 -16q-2 -1 -1.5 -2.5t2.5 -1.5q28 0 54 2t52 6l199 -471q3 -7 11 -12.5t16 -5.5h135 q17 0 26 13t1 30l-199 467q8 2 16 5t16 5zM424 524q-7 -2 -14 -3t-15 -3l15 3q6 2 14 3z" />
<glyph unicode="]" horiz-adv-x="329" d="M27 11q-5 -8 -5 -18v-34q-15 0 -29 1t-32 1l31 25zM141 71v-48h-92h-3q23 14 47 26.5t48 21.5zM141 141v-60q-21 0 -45 1.5t-47.5 5t-45 9.5t-36.5 16q46 11 87 17zM141 271v-28l-45 4q-21 2 -41 6q40 12 86 18zM141 327v-41q-51 0 -101 2t-101 2q51 13 100 21zM141 453 v-110h-65q-32 0 -70 1q-25 1 -53 0.5t-51 10.5q14 14 33.5 24t41.5 17.5t44 13.5t40 12l41 16zM141 539v-61q-53 -6 -107.5 -9.5t-105.5 -4.5q53 22 106.5 38t106.5 37zM141 563v-6q-27 -5 -54 -9.5t-53 -14.5q23 12 51 18.5t56 11.5zM307 206v28q25 0 48.5 0.5t46.5 0.5 l-48 -14zM141 147v-2l-89 -12q-42 -6 -90 -17q-4 -1 -1 -4q15 -11 37 -17.5t46.5 -10.5t50 -5.5t46.5 -1.5v-2q-52 -19 -101 -51.5t-85 -62.5q-4 -4 1 -4q20 0 34.5 -1t31.5 -1v-50q0 -13 8 -22t19 -9h90l-46 -32q-23 -16 -47 -30q-2 -2 -1 -3.5t3 -0.5q26 15 49.5 32.5 t49.5 33.5h133q11 0 19 9t8 22v261h12q2 0 2 2t-2 2h-12v31q28 10 55 18l56 16q2 1 1.5 2.5t-2.5 1.5q-26 0 -53.5 -0.5t-56.5 -0.5v363l22 6q12 3 25 5v4q-11 -2 -23 -3.5t-24 -3.5v167q0 13 -8 22t-19 9h-231q-11 0 -19 -9t-8 -22v-88q0 -13 8 -22t19 -9h92v-61 q-26 -2 -50.5 -6.5t-47.5 -11.5q-2 -1 -1 -3t3 -1q43 13 96 18v-24q-35 -6 -69.5 -15.5t-60.5 -28.5q-2 -2 -1 -3.5t3 -0.5q27 13 51 18l48 10l14 2q7 1 15 3v-10q-55 -23 -112 -39.5t-112 -39.5q-2 -1 -1.5 -2.5t2.5 -1.5q53 0 110 4t113 10v-16l-40 -16q-19 -8 -42 -16 q-18 -6 -40.5 -12.5t-45 -14t-42.5 -18.5t-33 -26q-2 -2 0 -3q24 -11 53 -11t55 -1q37 -1 70 -1h65v-8q-56 -8 -109 -17t-109 -24q-2 -1 -1.5 -2.5t2.5 -1.5q56 0 109 -2t108 -2v-7q-26 -4 -49.5 -8.5t-45.5 -11.5q-4 -2 1 -4q43 -9 94 -12v-86l-21 -6q-2 -1 -2 -3 q0 -1 2 -1z" />
<glyph unicode="^" horiz-adv-x="600" d="M201 310q8 0 16 5.5t11 11.5l72 158l72 -158q3 -6 11 -11.5t16 -5.5h148q18 0 26.5 12.5t0.5 28.5l-182 369q-3 5 -11.5 10.5t-15.5 5.5h-130q-7 0 -16 -5.5t-11 -10.5l-182 -369q-8 -16 0.5 -28.5t25.5 -12.5h149z" />
<glyph unicode="_" horiz-adv-x="456" d="M443 -143q12 0 20.5 4t8.5 10v21q0 6 -8.5 10.5t-20.5 4.5h-442q-12 0 -20.5 -4.5t-8.5 -10.5v-21q0 -6 8.5 -10t20.5 -4h442z" />
<glyph unicode="`" horiz-adv-x="415" d="M363 528q18 0 26 13t-2 27l-129 194q-3 4 -10.5 8t-13.5 4h-183q-19 0 -26.5 -14.5t5.5 -28.5l187 -194q3 -2 10 -5.5t12 -3.5h124z" />
<glyph unicode="a" d="M375 157q-33 -13 -72 -13q-51 0 -51 25q0 49 153 49h3v-47l-15 -7zM162 379q28 13 68 28q25 10 49 14t50 4q35 0 55 -15t21 -46l-84 4q-40 2 -75.5 -3.5t-67.5 -16.5l-8 16zM76 514v-1v1zM128 373l1 -1q10 -18 15 -39q-2 -2 -4 -2.5t-4 -2.5v1l-4 22zM162 341 q-3 -2 -6 -2.5t-6 -2.5q-3 9 -6.5 17.5t-6.5 17.5q3 -5 5 -11l4 -10q1 -1 2 -1l3 -7q1 -2 3 -1t1 3l-12 27q2 0 8 2q2 -8 5 -16zM154 375l4 2q5 -8 8.5 -15.5t8.5 -15.5l-9 -3l-6 15q-3 8 -6 17zM607 10l-15 9l2 2zM626 33l-9 7l2 2zM669 -23q-11 5 -21 10l-20 11 q-8 6 -15.5 12.5t-15.5 12.5l17 15l24 -20l16 -21zM683 -40q-9 5 -18.5 11t-18.5 13q15 -9 29 -14zM646 16l-5 5l-6 7zM668 43l-9 5q-5 3 -9.5 6t-9.5 6l11 9zM655 71l6 6q9 7 11 16t-1 17t-10.5 13.5t-18.5 5.5l-7 5l-7 6v205q0 66 -17 112.5t-52 75.5t-89 42.5t-128 13.5 q-46 0 -87 -8t-79 -22q-25 -10 -44 -19t-32 -17q-2 8 -5 14.5t-5 14.5q-1 2 -3 1t-1 -3q3 -7 5 -14l6 -15l-6 -4q-3 -2 -5 -4q-1 2 -3 2t-1 -2v-2l-1 -1q-3 9 -4.5 18t-3.5 18q0 2 -2 2t-2 -2q1 -8 3 -16l4 -16q-5 12 -9.5 24t-8.5 26q-1 2 -3 1t-1 -3q3 -8 5.5 -16.5 t6.5 -16.5q-5 6 -8.5 12t-7.5 12q-2 2 -3.5 1t-0.5 -3l14 -21l13 -19l3 -8q-4 -8 -4 -15q-8 13 -15 26.5t-12 30.5q-1 2 -3 1t-1 -3q6 -19 14 -34t17 -29q1 -2 1 -4l38 -87q5 -10 13 -14l4 -23l4 -23q0 -2 2 -2l-10 -6l-10 -6q-83 -57 -83 -146q0 -83 54.5 -132t158.5 -49 q53 0 104 15t96 38q5 -6 11 -11l12 -11q36 -30 88 -30l34 28l18 -12q9 -6 18 -11l8 -6l8 -6q13 -9 25.5 -16.5t24.5 -15.5l21 -22q10 -11 21 -21q2 -2 3 -0.5t-1 2.5l-15 15l-15 16q9 -7 17 -14.5t16 -18.5q2 -2 3.5 -1t0.5 3q-11 15 -23 25t-25 19l-6 7l-5 6l6 -3q2 -1 3 1 t-1 3l-14 6l-12 16l-13 17l18 -15l68 -70l64 -68q1 -2 2.5 -1t-0.5 3q-29 33 -62 67l-66 68q0 1 -1 2l-2 2l-25 26l-24 26l13 11l10 -6l10 -6l16 -9q21 -34 44 -66.5t51 -59.5q1 -2 2.5 -0.5t-0.5 2.5q-26 26 -48 56.5t-42 62.5q11 -6 20.5 -12t20.5 -12q33 -19 63 -38.5 t50 -39.5q1 -2 2.5 -0.5t-0.5 2.5q-20 21 -50 40l-63 40l-24 13q-12 7 -24 15z" />
<glyph unicode="b" d="M278 417q27 15 55 15q54 0 82 -38t28 -110q0 -57 -23.5 -93t-62.5 -36q-35 0 -67 20h1l-21 15q-9 6 -15 11v204q3 2 9 4.5t14 7.5zM41 783q-2 -1 -2.5 -1.5t-2.5 -1.5l-2 1zM22 777l5 1l5 -1l-2 -2zM27 772q-18 -2 -33.5 -0.5t-35.5 6.5q10 -2 19.5 -3t21.5 -1q8 0 12 1 q4 -1 8 -1.5t8 -1.5zM2 754q-11 2 -20.5 3t-20.5 2q-2 0 -2 -2t2 -2l30 -4l31 -4v-717q0 -12 9 -21t21 -9h92q7 0 14.5 5t11.5 11l28 51q13 -10 26 -19l28 -20q58 -40 147 -40q121 0 195 87q70 83 70 221t-68 221q-35 44 -82 65.5t-109 21.5q-60 0 -118 -26v1l-17 -7l-15 -8 v191q0 12 -9 21t-21 9h-173q-4 0 -6 -1q2 2 1 3.5t-3 0.5q-5 -2 -9 -3l-8 -2q-18 5 -35 11.5t-37 11.5q-2 1 -3 -1t1 -3q19 -5 34.5 -11t31.5 -11q-3 0 -5 -1q0 3 -2 3h-22q-8 1 -16.5 1.5t-16.5 0.5q-2 0 -2 -2h-4q-4 0 -7.5 0.5t-8.5 0.5h-1h-10q-2 0 -2 -2t2 -2h14 q6 0 13 -1h4q-3 -3 1 -4q20 -5 35.5 -6.5t33.5 -0.5q-3 -5 -3 -12v-3l-28 8l-30 9q-2 1 -3 -1t1 -3q11 -3 20.5 -6t19.5 -5z" />
<glyph unicode="c" horiz-adv-x="545" d="M489 15q0 2 -2 2t-2 -2q-1 -17 -3.5 -30.5t-4.5 -27.5q0 -1 1 -2l-3 -10q-1 -2 1 -3t3 1l15 57q8 30 15 61.5t12 63t8 60.5q0 2 -2 2t-2 -2q-3 -29 -8 -61t-13 -64l16 119q3 12 -6 23q2 9 4.5 18t4.5 17q1 2 -1 3t-3 -1q-2 -8 -4 -17t-4 -17l-2 2q2 14 2.5 28t2.5 28 q0 2 -2 2t-2 -2l-2 -27q-1 -13 -3 -26q-2 0 -4 2q1 2 -0.5 3t-3.5 -1v5q1 11 0 23l-2 23q0 2 -2 2t-2 -2l2 -23q1 -12 1 -24l-1 -5h-2q-7 0 -10 -1q1 13 1.5 25t0.5 24q0 2 -2 2t-2 -2q0 -12 -0.5 -25t-1.5 -26l-6 -3h2q-6 -2 -17 -6l-26 -10q-41 -16 -75 -16q-62 0 -91 26 t-29 81q0 62 27 97t75 35q39 0 79 -16q23 -9 38 -16t23 -13q9 -6 18 -5.5t16 5.5l2 -15l2 -16l2 -10l2 -11q-2 1 -3 -1t1 -3q1 -1 1 -4l2 -5v-1q1 -2 2.5 -1.5t1.5 2.5q0 9 -2 17.5t-3 16.5l-2 18q-1 8 -3 16l2 2q2 -9 3.5 -17.5t3.5 -17.5q1 -2 2 -2q2 0 2 2l-4 21l-4 19 q4 7 3 18l-9 93q2 -8 3 -15l2 -14q2 -11 3.5 -22t3.5 -22q5 -30 6 -61q0 -2 2 -2t2 2v4l9 -46q4 -21 8 -38q1 -2 3 -2t1 2q-7 27 -14 63.5t-13 77.5q-2 11 -3.5 22t-3.5 22q-5 35 -9 67.5t-6 60.5q0 2 -2 2t-2 -2l2 -23q1 -12 3 -25l-3 16q-1 2 -3 2q-1 0 -1 -2l3 -14l-6 6 v6q0 14 1 24.5t2 24.5q0 2 -2 2t-2 -2q-1 -14 -2 -24.5t-1 -24.5v-3l-2 1l-1 1q-1 7 -1 14t-1 15q0 2 -2 2t-2 -2q1 -7 1 -14t1 -14q-26 12 -64 23t-98 11q-139 0 -221 -83q-41 -42 -61.5 -97.5t-20.5 -127.5q0 -134 81 -214q82 -79 215 -79q52 0 103 13q12 3 22 6t18 5 l-6 -19q-1 -2 1 -3t3 1l4 15v-31v-1l2 1q2 -1 2 0l1 3v3q1 0 1 1q0 3 -2 3q1 8 1.5 15t0.5 15q5 2 8 3t6 3v-2q0 -2 2 -2t2 2v4q3 2 6.5 5.5t5.5 7.5q-4 -15 -7.5 -30t-7.5 -29q2 8 3 17.5t2 20.5zM489 43q1 2 -1 3t-3 -1l-20 -64l-18 -66q-1 -2 1 -3t3 1l18 66zM470 63 q0 2 -2 2t-2 -2q0 -43 -4.5 -89t-23.5 -77q-1 -2 0.5 -3t3.5 1q9 16 14.5 36.5t8.5 42.5t4 45t1 44z" />
<glyph unicode="d" d="M397 176q-33 -21 -60 -21q-45 0 -69.5 34.5t-24.5 94.5q0 69 28 108.5t82 39.5q31 0 53 -14l15 -8q6 -3 11 -5v-206q-5 -4 -14 -9zM447 781q-1 0 -1 -1h-1l-6 1h8zM435 771q2 0 2 2t-2 2q-25 5 -43 6t-43 -4h-17q-2 0 -2 -2t2 -2h12q1 -1 2 -1l4 1q21 -2 42 -5l41 -6 q-1 -2 -1 -7v-191q-9 5 -18 8.5t-19 8.5q-53 23 -107 23q-125 0 -197 -86q-69 -83 -69 -222t71 -222q74 -86 196 -86q87 0 141 36l30 21l28 22l27 -51q3 -6 11 -11t16 -5h92q12 0 21 9t9 21v725q0 12 -9 21t-21 9h-172h-2h-1h-37q-19 4 -38 7t-40 5q-2 0 -2 -2t2 -2 q16 -2 30 -3.5t28 -4.5q-22 0 -38 3l-17 4q-9 2 -20 4q-2 0 -2 -2t2 -2q11 -2 19 -4t17 -4q18 -3 45 -3h13l10 -2q5 -1 10 -3q-4 -4 -7 -10q-17 2 -34 5t-34 5q17 2 32.5 0.5t36.5 -5.5zM636 11q-2 0 -2 -2t2 -2h76q23 -2 39 -3t37 -3q2 0 2 2t-2 2q-21 2 -37 3t-39 3h-76z M640 53q-2 1 -3 -1t1 -3l88 -36q45 -18 93 -18q2 0 2 2t-2 2q-48 0 -92 18zM599 59q-2 1 -3 -1t1 -3q25 -6 51 -8.5t52 -3.5t51.5 -3t51.5 -7q2 0 2 1q0 2 -2 3q-25 5 -50 6l-52 3l-51.5 4t-50.5 9zM662 46q-2 1 -3 -1t1 -3q51 -23 103 -40t110 -20q2 0 2 2t-2 2 q-58 3 -109 20t-102 40zM621 40q-2 1 -3 -1t1 -3q35 -11 71.5 -17.5t70.5 -20.5q2 -1 3 1t-1 3q-35 14 -71 20.5t-71 17.5z" />
<glyph unicode="e" horiz-adv-x="591" d="M260 398q13 27 40 27q20 0 33 -19.5t17 -54.5h-104q4 28 14 47zM558 60l1 1l2 -7zM576 63q0 2 -2 2q-1 0 -2 -1l-11 15l-35 89q-5 11 -16.5 16t-22.5 0q-4 -2 -14 -5l-28 -8q-33 -9 -69 -9q-73 0 -103 30q-10 9 -18 26h285q12 0 20.5 9t8.5 21v44q0 132 -72 213 q-75 84 -196 84t-200 -83q-79 -82 -79 -208q0 -146 88 -228t235 -82q29 0 58 3.5t56 10t50.5 15.5t41.5 21l2 6q9 -23 17 -41t18 -37q2 -2 3.5 -1t0.5 3q-11 20 -19 38.5t-17 41.5l-1 1l2 6q3 -7 7 -13l7 -13q2 -7 5 -14.5t5 -15.5q1 -2 3 -1t1 3l-4 12q2 -4 4.5 -7t4.5 -7 q2 -2 3.5 -1t0.5 3q-6 8 -10 15l-10 15l-6 18q-3 9 -7 18l1 4l12 -15q2 -12 7 -23l10 -22q1 -2 3 -1t1 3q-9 17 -15 34q9 -12 16.5 -23.5t14.5 -25.5q1 -2 3 -1t1 3q-7 14 -14 25t-15 22q-3 3 -9 11q0 2 -0.5 3t-0.5 2z" />
<glyph unicode="f" horiz-adv-x="506" d="M385 21q-8 -2 -16 -3t-17 -2q0 3 2 5q5 1 16 1q10 0 15 -1zM93 37q9 3 19 3h9q5 0 10 -1v-7q-9 2 -19 3zM128 15q2 0 2 2t-2 2q-14 -2 -27.5 -1.5t-27.5 -0.5l-6 2q-2 1 -3 -0.5t1 -3.5q-5 0 -8 -1q-2 -1 -1 -3t3 -1q4 1 14 3q56 -19 117.5 -20t119.5 -1q17 0 33 2.5 t32 5.5h24q15 0 26 1t26 1q2 0 2 2t-2 2q-15 0 -26 -1t-26 -1h-7q7 2 13 3l12 2q2 0 2 2t-2 2q-11 -2 -21 -4.5t-21 -4.5q-8 1 -16 1t-16 1q4 3 6 6q13 1 24 2.5t22 5.5q7 -1 13 -1.5t14 -0.5q2 0 2 2t-2 2q-5 0 -9.5 0.5t-9.5 0.5q2 1 4.5 2t4.5 2t1 3t-3 1 q-4 -2 -7.5 -3.5t-7.5 -3.5q-6 1 -12 1.5t-13 0.5h-8q-4 0 -7 -1v5v380h100q12 0 20.5 8.5t8.5 21.5v96q0 12 -8.5 21t-20.5 9h-100v23q0 23 19 23q20 0 36 -4t25 -7q1 0 4 -0.5t4 -0.5q12 0 20.5 9t8.5 22v108q0 8 -6 17t-12 11q-21 8 -50 12.5t-69 4.5q-94 0 -149 -44.5 t-55 -131.5v-42h-80q-12 0 -20.5 -9t-8.5 -21v-96q0 -13 8.5 -21.5t20.5 -8.5h80v-367q-5 1 -10 1h-9q-8 0 -16 -2l-16 -4q-4 1 -14 1q-2 0 -2 -2t2 -2q8 0 12 -1h1h1l22 -2q11 -1 21 -3q-8 1 -17 1h-17q-2 0 -2 -2t2 -2h21q11 0 21 -1q2 -11 10 -18t19 -7h166q6 0 12 3 q5 -1 10 -1q6 0 11 -1q-12 -2 -24 -3.5t-25 -1.5q-55 0 -113.5 0.5t-112.5 16.5q11 1 22 0.5t22 1.5zM78 8q-2 -1 -1 -3t3 -1l6 3q2 1 1 3t-3 1zM473 834q1 2 -1 3t-3 -1q-9 -23 -11.5 -47t-3 -49t-0.5 -50q0 -24 -4 -48q0 -2 2 -2t2 2q4 23 4 47q0 25 0.5 50t3 49t11.5 46z M499 867q0 2 -2 2t-2 -2q0 -36 -2.5 -67t-6.5 -61t-8.5 -59.5t-8.5 -62.5q0 -2 2 -2t2 2q4 33 8.5 62.5t8.5 59.5t6.5 61t2.5 67zM432 842q-1 2 -3 2q-1 0 -1 -2q4 -20 10 -47.5t10.5 -56.5t4.5 -56t-9 -45q-1 -2 1 -3t3 1q9 19 9 46q0 28 -4.5 57t-10.5 56.5t-10 47.5z M476 867q0 2 -2 2t-2 -2q2 -25 4.5 -51.5t2 -53t-6 -52t-19.5 -48.5q-1 -2 0.5 -3t3.5 1q14 23 19.5 49t6 52.5t-2 53t-4.5 52.5zM505 842q0 2 -2 2t-2 -2q-5 -42 -23 -74l-40 -68q-1 -2 0.5 -3t3.5 1l39 68q19 32 24 76zM451 833q-1 2 -3 1t-1 -3q12 -45 8 -84.5t-17 -77.5 q-1 -2 1 -3t3 1q13 39 17 79t-8 87z" />
<glyph unicode="g" horiz-adv-x="643" d="M367 217q-28 -17 -42 -17q-38 0 -60.5 30t-22.5 79q0 57 18.5 84t63.5 27q24 0 53 -19q20 -14 23 -8v-154q-8 -5 -16 -11t-17 -11zM631 570l-10 1l-1 1zM611 594q-2 0 -2 -2h-2l-2 1q-6 3 -14 3h-103q-7 0 -15.5 -5.5t-11.5 -11.5l-18 -38q-12 11 -30 21.5t-30 15.5 l-13 7q-48 15 -100 15q-113 0 -182 -82q-66 -81 -66 -208q0 -57 16 -104t51 -87q69 -79 174 -79q38 0 70.5 10t64.5 29v-5q0 -29 -29.5 -44t-83.5 -15q-32 0 -61.5 5t-58.5 16q-30 11 -48.5 18.5t-26.5 10.5q-8 4 -17 4q-8 0 -14 -4t-10 -11.5t-3 -16.5l7 -102 q0 -5 5.5 -13.5t10.5 -11.5q8 -5 30.5 -12t57.5 -15l74 -19q40 -9 83 -9q71 0 128 15t96.5 43.5t61 70.5t21.5 97v485v1q13 -1 26 -1t26 -1q14 -1 27 -1.5t28 0.5q2 0 2 2t-2 2q-5 0 -8.5 -0.5t-7.5 -0.5q0 2 -2 2q-8 0 -17.5 -0.5t-18.5 0.5q-14 1 -28 3l-27 4l-3 6 q14 -2 24.5 -3t23.5 -1q15 0 25 2l25 3q2 0 2 2t-2 2l-25 -3q-10 -2 -25 -2q-14 0 -25.5 1t-25.5 3l-1 2q21 -3 41 -3q21 0 45 2h1h16q2 0 2 2t-2 2q-1 0 -18 0.5t-38 0.5q9 1 17.5 1.5t17.5 2.5q2 0 2 2t-2 2q-21 -3 -40 -4.5t-43 -1.5zM42 -221v1q0 4 -4 4q-2 0 -2 -2 t2 -2q1 -2 1 -5v-6q-1 -2 0.5 -2.5t3.5 1.5q11 28 10 50.5t-1 51.5q0 43 -4.5 78.5t-4.5 76.5q0 2 -2 2t-2 -2q0 -41 4.5 -76.5t4.5 -78.5q0 -23 1 -45.5t-7 -45.5zM62 73q0 2 -2 2t-2 -2q11 -65 16 -132t-3 -137q0 -2 2 -2t2 2q8 70 3 137t-16 132zM52 25q0 2 -2 2t-2 -2 q0 -56 3.5 -116.5t9.5 -114.5q0 -2 2 -2t2 2q-6 54 -9.5 114.5t-3.5 116.5zM65 57q-1 2 -3 2t-1 -2q6 -29 7.5 -59t0.5 -61t-3 -61.5t-2 -59.5q0 -2 2 -2t2 2q0 29 2 59.5t3 61.5t-0.5 61t-7.5 59zM94 16q-1 2 -3 2q-1 0 -1 -2q11 -57 12 -109.5t-3 -112.5q0 -2 2 -2t2 2 q4 60 3 112.5t-12 109.5z" />
<glyph unicode="h" horiz-adv-x="637" d="M16 768h10l-1 -1zM-10 772h-5q-4 1 -7 1.5t-6 0.5q5 0 9 -0.5t9 -1.5zM46 10v-1h-1zM301 -3q-16 2 -31 4.5t-30 4.5l5 5q11 -3 20.5 -6t23.5 -5h1q8 -2 11 -3zM252 32v3q9 -2 17.5 -5.5t17.5 -6.5q-9 2 -17.5 4.5t-17.5 4.5zM339 14q-5 0 -13 2h-1q-14 3 -26 7l-25 10 q-5 2 -11 3t-11 3v344l14 7q8 4 19 9h-1q33 16 66 16q17 0 25.5 -18.5t8.5 -47.5v-308q-12 -6 -23 -12.5t-22 -14.5zM341 10q2 -1 5 -1t6 -1l-21 -6q2 2 4.5 4t5.5 4zM353 19q0 -5 3 -3q16 8 28 16v-2q0 -5 2 -11l-10 -4q-5 -2 -10 -3t-10 -3q0 3 -2 3l-9 1q2 2 4 3t4 3z M383 36q-6 -5 -12.5 -8t-13.5 -7q7 5 13 8t13 7zM611 16l3 6q3 -2 6.5 -3.5t6.5 -3.5zM682 13q-11 1 -21 1t-20 1q-6 2 -11 4l-10 4q17 -1 31.5 -4t30.5 -6zM605 8q2 1 2.5 2t1.5 2q8 0 15.5 -0.5t15.5 -0.5l14 -4q8 -2 18 -4q2 0 2 1q0 2 -2 3q-4 1 -7 1.5t-7 1.5 q12 -1 24 -1h25l8 -1q1 0 2 1q2 0 2 2t-2 2h-10q-24 4 -45.5 9t-46.5 5v3v353q0 107 -48.5 163.5t-147.5 56.5q-46 0 -88 -12.5t-79 -35.5v199q0 12 -9 21t-21 9h-171q-13 0 -20 -9q-4 2 -8 3t-8 3q5 -1 8 -1h9q2 0 2 2t-2 2q-11 0 -20 1l-18 2q-5 2 -10 2.5t-10 1.5 q-1 0 -2 -1q-5 1 -9 1h-10q-2 0 -2 -2t2 -2q11 0 21 -1t19 -3q8 -2 15 -4.5t14 -4.5q-18 1 -32 2.5t-34 2.5q-2 0 -2 -2t2 -2h4v-1q-1 0 -1 -1q-8 1 -16 1h-17q-2 0 -2 -2t2 -2q16 0 30.5 -0.5t28.5 -0.5q9 -2 18.5 -3t19.5 -3v-1h-28h-25q-10 0 -27 -5q-2 -1 -1 -3t3 -1 q16 5 25 5h25h27v-4v-720q-12 3 -24 6.5t-25 6.5q-2 1 -2 -1t2 -3q12 -3 24.5 -6.5t24.5 -7.5q0 -8 4 -13l-6 2q-16 5 -32 11t-36 11q-2 1 -3 -1t1 -3q20 -5 36.5 -11t32.5 -11l5 -2h-21q-19 0 -34 0.5t-35 1.5q-2 0 -2 -2t2 -2q12 -1 22 -1t21 -1q-2 -1 -1.5 -2t2.5 -1h57 q7 -5 16 -5h16q5 -2 11 -2.5t12 -1.5q2 0 2 2t-2 2h132q7 0 13 3l37 -6q19 -3 41 -5q2 0 2 2t-2 2l-11 1q2 0 2.5 1.5t-1.5 2.5q-15 4 -27.5 8.5t-26.5 8.5q3 4 3 10l41 -10q20 -5 42 -8q-6 -4 -8 -6t0 -4l-5 -1q-2 -1 -1 -3t3 -1q12 5 24 8l22 6h2l5 2l12 3q-8 -4 -16 -7.5 t-16 -6.5q-2 -1 -1 -3t3 -1l16 8l17 7q8 -11 22 -11h170q27 -4 51 -9t53 -5q2 0 2 2t-2 2q-26 0 -47 4l-45 8q2 1 2.5 1.5t2.5 1.5q40 -10 88 -13q2 0 2 2t-2 2q-23 1 -43.5 4t-40.5 8z" />
<glyph unicode="i" horiz-adv-x="258" d="M34 719q0 -44 25.5 -69.5t69.5 -25.5q45 0 70 25.5t25 69.5t-25 69.5t-70 25.5q-44 0 -69.5 -25.5t-25.5 -69.5zM57 0h121q-8 -2 -17 -3t-18 -1q-22 0 -43 1t-43 3zM230 14l2 4l13 -2q6 -1 14 -1q-8 -1 -15 -1h-14zM42 -12q2 0 2 2t-2 2q-29 0 -58 8q42 -2 80.5 -5 t78.5 -3q14 0 27.5 3t27.5 5h12h17q10 0 19 -1.5t18 0.5q2 1 2 3t-2 1q-9 -2 -17.5 -0.5t-17.5 1.5h4h50q2 0 2 2t-2 2h-50h-7l2 2q17 0 35 0.5t33 2.5q2 0 2 2t-2 2q-6 -1 -12.5 -1.5t-13.5 -0.5q0 3 -2 3q-10 0 -18.5 1t-16.5 3q1 3 1 8v530q0 6 -5 11.5t-12 9.5 t-14.5 6.5t-12.5 2.5h-141q-9 0 -15 -6q-12 -1 -24 -1.5t-26 -0.5q-11 0 -26 1.5t-24 2.5q-2 0 -2 -2t2 -2q9 -1 24 -2.5t26 -1.5q13 0 24 0.5t22 1.5q-2 -4 -3 -7q-20 1 -39 1q-20 0 -40 1q-2 0 -2 -2t2 -2q20 -1 39 -1t38 -1v-1h-25q-12 0 -20.5 -1t-19.5 -1q-2 0 -2 -2 t2 -2q11 0 19.5 1t20.5 1h24l-24 -2q-12 -1 -23 -4q-2 -1 -2 -3t2 -1q12 3 23 4l24 2v-530v-4q-12 2 -23.5 3.5t-24.5 4.5q-2 0 -2 -2q0 -1 2 -2q13 -3 25 -4.5t24 -3.5l1 -3q-13 2 -25.5 3.5t-26.5 3.5q-2 0 -2 -2t2 -2q14 -2 27 -3.5t26 -3.5l1 -2q-12 1 -23.5 3t-25.5 4 q-2 0 -2 -2q0 -1 2 -2q25 -5 52 -7q3 -4 11 -8q-19 2 -37.5 3t-38.5 1q-2 0 -2 -2t2 -2h6q1 0 1 -1q33 -12 69 -12z" />
<glyph unicode="j" horiz-adv-x="298" d="M48 719q0 -44 28.5 -70t78.5 -26t78.5 26t28.5 70q0 45 -28.5 70.5t-78.5 25.5t-78.5 -25.5t-28.5 -70.5zM64 594q-3 -1 -7 -5q-8 0 -12 1q5 1 9.5 2t9.5 2zM2 -185h45q215 0 215 223v528q0 13 -8 22t-19 9h-160h-2l12 3q2 1 1 3t-3 1q-17 -5 -34 -9.5t-36 -4.5 q-13 0 -19.5 1.5t-17.5 2.5q-2 0 -2 -2t2 -2q8 -1 13 -2t12 -1q0 -3 2 -3q14 2 26 2q13 0 25 -1q-1 -2 -1.5 -2.5t-1.5 -2.5h-17q-8 0 -18 -1h-1h-1v-1v1q-15 1 -29 3l-29 4q-2 0 -2 -2t2 -2q5 -1 12 -2l12 -2h-3q-2 0 -2 -2t2 -2q9 2 18 1.5t18 -0.5l18 -2q9 -1 17 -1v-6 v-7q-6 0 -12 -0.5t-13 -0.5q-13 2 -25 2.5t-28 -0.5q-2 0 -2 -2t2 -2q23 1 40 0q0 -2 2 -2h11q5 -1 9 -1.5t9 -2.5q2 -1 3 1t-1 3l-3 1h8v-494q0 -33 -11.5 -48t-43.5 -22l-45 -9q-8 -2 -12 -4q-1 0 -2 -1q-1 3 -1 7q0 3 -1 6q0 2 -2 2t-2 -2q1 -4 1 -7q0 -4 1 -7l-1 5 q-1 1 -2 1q1 2 1 7q0 2 -2 2t-2 -2q-2 -11 0 -21q-8 -12 -3 -27l9 -29q-10 20 -16 40t-7 43q0 2 -2 2t-2 -2q1 -29 11 -55t24 -50l18 -54q3 -9 12 -15q6 -27 13 -46.5t21 -44.5q2 -2 3.5 -1t0.5 3q-13 23 -20 41.5t-14 44.5q6 -3 10 -3l12 -26q5 -12 8 -26q1 -2 3 -2t1 2 q-5 25 -20 52h7q4 -9 7.5 -18.5t6.5 -19.5q1 -2 3 -1t1 3q-3 9 -6.5 18t-7.5 18q8 -12 15 -24t14 -26q1 -2 3 -1t1 3q-7 14 -13.5 25.5t-14.5 22.5z" />
<glyph unicode="k" horiz-adv-x="698" d="M76 771h1h1h-2zM7 779q-3 1 -6.5 1.5t-6.5 1.5q11 -1 20.5 -2t19.5 -3l-2 -1q-12 2 -25 3zM27 770l-2 -4q-8 1 -14 1.5t-13 1.5zM24 21q2 -6 4 -8q-17 1 -36 3l16 2q8 1 16 3zM424 28v-1h-1zM371 573q11 -2 22 -3t22 -3l-160 -158v345q0 12 -9 21t-21 9h-172q-9 0 -14 -4 q-7 2 -13.5 3t-14.5 2q15 2 29 3.5t31 2.5q2 0 2 2t-2 2q-22 -1 -39.5 -4t-40.5 -3q-1 0 -1 -1h-1h-8h-1q-2 1 -3 -1t1 -3l14 -4l13 -4h1h1l7 -2q-18 -1 -36 -1.5t-34 -0.5q-2 0 -2 -2t2 -2h22q11 0 22 1q-5 0 -15 -2q-2 -1 -2 -3q0 -1 2 -1q16 3 26 2.5t24 -2.5 q0 -2 -0.5 -4t-0.5 -4v-716q-20 1 -36 3.5t-39 2.5q-2 0 -2 -2t2 -2q23 0 39 -2.5t36 -3.5v-4q0 -4 1 -5q-17 -5 -34 -6t-37 -6q-2 -1 -2 -3t2 -1q9 2 16.5 3t15.5 3q0 -3 2 -3q13 -1 24 -1.5t22 -2.5q5 -3 10 -5.5t10 -2.5q-12 -2 -24 -3t-24 -1q-2 0 -2 -2t2 -2 q18 0 36 2.5t36 5.5h3q2 -1 5 -1.5t5 -1.5q2 0 3 1t0 2h134q11 0 21 8q16 -3 29.5 -7t33.5 -6q2 0 2 2t-2 2q-18 2 -32 6t-28 7l1 1q0 1 1 2q21 -4 42 -10t43 -10q2 0 2 2q0 1 -2 2q-21 4 -41.5 10t-41.5 10q0 1 0.5 1.5t0.5 1.5q9 -1 18 -1t20 -1q2 0 2 2t-2 2q-10 1 -19 1 t-18 1v4v24q5 -1 13 -3q16 -4 32 -9l35 -13q2 -1 3 1t-1 3q-20 7 -36 12l-32 10q-4 1 -14 3v158l165 -185q-2 -2 -3 -2.5t-3 -2.5q-14 -2 -26.5 -3.5t-29.5 -6.5q-2 -1 -1 -3t3 -1q13 4 24 5.5t22 3.5q-13 -7 -31 -14q-2 -1 -1 -3t3 -1l20 9q9 4 18 10l11 2l6 -7 q-10 -5 -19.5 -6.5t-20.5 -2.5q-2 0 -2 -2t2 -2q11 2 21.5 3.5t21.5 6.5l3 -4l-21 -4q-11 -2 -19 -6q-2 -2 -1 -3.5t3 -0.5q8 5 19.5 7t23.5 3l10 -4q5 -2 7 -2h184q21 0 28.5 17t-6.5 33l-230 273l227 215q8 7 9.5 16.5t-1.5 17t-10.5 13t-18.5 5.5h-192q-13 2 -26.5 3 t-27.5 3q-2 0 -2 -2t2 -2q10 -1 19 -2t19 -2q-4 -1 -11 -1q-43 4 -88 3q-2 0 -2 -2t2 -2q19 1 37 0.5t36 -2.5q-9 -2 -18.5 -3.5t-18.5 -3.5l-9 1q-5 0 -2 -3q-5 -1 -9 -1.5t-9 -0.5q-2 0 -2 -2t2 -2q8 0 14.5 1t13.5 3zM424 583l5 -1l-11 -11q-9 1 -17.5 1.5t-17.5 2.5 q11 2 20.5 4t20.5 4zM595 37q-2 0 -2 -2t2 -2q17 -2 38 -3l42 -2q21 -1 41 -2.5t37 -5.5q2 -1 2 1t-2 3q-17 4 -37 5t-41 3q-21 1 -41.5 1.5t-38.5 3.5zM639 49q-2 1 -2 -1t2 -3q26 -6 50.5 -16t48.5 -21q23 -11 46.5 -20t53.5 -15q2 0 2 2q0 1 -2 2q-29 5 -52 14.5 t-46 20.5l-49 21q-25 10 -52 16zM624 37q-2 1 -3 -0.5t1 -3.5q38 -25 78.5 -42t87.5 -22q2 0 2 2t-2 2q-45 5 -85.5 22t-78.5 42zM668 34q-2 1 -3 -0.5t1 -3.5q20 -11 39.5 -18t38.5 -15l38 -16q17 -7 33 -18q2 -1 3 0.5t-1 3.5q-17 11 -34 18l-37 16q-20 7 -39 14.5 t-39 18.5z" />
<glyph unicode="l" horiz-adv-x="268" d="M6 771q6 2 12.5 3.5t13.5 2.5q-2 -1 -3 -2.5t-3 -3.5h-20zM282 13l13 -4q2 -1 3 1t-1 3q-18 6 -33 10l-32 9v722q0 12 -7 21t-17 9h-159h-2q-4 0 -6 -1q-2 0 -3.5 -0.5t-3.5 -0.5q-22 6 -53 1q-2 0 -2 -2t2 -2q22 4 43 1l-33 -9h-19q-2 0 -2 -2t2 -2h13q1 -1 2 -1l4 1h34 q-2 -4 -2 -5h-16q-20 0 -34.5 2.5t-34.5 2.5q-2 0 -2 -2t2 -2q20 0 34.5 -2.5t34.5 -2.5h15v-4v-723l-39 -4q-19 -2 -37 -9q-2 -1 -1 -3t3 -1q17 7 36 9l38 4q0 -3 2 -9h-20q-2 0 -2 -2t2 -2h22q2 -4 4 -6q-11 2 -20 4t-21 5q-2 1 -2 -1t2 -3q15 -4 28 -7h-6q-18 0 -31 2 t-31 2q-2 0 -2 -2t2 -2q18 0 31 -2t31 -2q6 0 11.5 0.5t10.5 1.5h1q8 -4 13 -4h161q8 0 15 7q15 -4 28 -8l28 -8q2 -1 3 1t-1 3q-15 4 -28 8l-27 8l1 1q14 -3 27.5 -5.5t27.5 -5.5q10 -2 20.5 -5t22.5 -6q2 -1 2 1t-2 3l-3 1q9 -2 17 -3l17 -2q2 0 2 2t-2 2q-17 2 -35 4.5 t-38 6.5q-14 2 -26.5 5.5t-26.5 6.5l25 -2q12 -1 26 -2h1zM244 20q-3 0 -6.5 0.5t-6.5 0.5v2q5 -1 13 -3zM232 27v1q17 -5 36 -10l-15 1q0 3 -1 3q-5 2 -10 3zM21 788q2 0 2 2t-2 2q-27 0 -50 2t-52 2q-2 0 -2 -2t2 -2q29 0 52 -2t50 -2z" />
<glyph unicode="m" horiz-adv-x="1009" d="M-49 533q17 7 35 12t36 5v-4v-3q-18 -1 -36 -3t-35 -7zM5 10l21 6q3 -7 8 -9q-11 -1 -20.5 -2t-20.5 -1zM23 22l1 -3l-7 -2q2 2 3 2.5t3 2.5zM385 35v-5q0 -4 1 -6q-9 -4 -17.5 -7t-17.5 -5q8 7 16.5 12.5t17.5 10.5zM623 20q1 1 1 3l15 -6l16 -6q-8 2 -16 4.5t-16 4.5z M747 37v-7v-5q-17 -9 -38 -15l2 -4q9 4 18.5 7.5t18.5 7.5q4 -9 9 -13q-10 -2 -19.5 -4.5t-18.5 -4.5v-4q11 2 21 5t21 5q8 -5 17 -5h178h5l45 -10q23 -4 46 -6v4q-21 2 -41.5 6t-41.5 9q6 3 10 7q12 -2 23.5 -3.5t23.5 -1.5v4q-11 0 -22 1.5t-22 3.5q5 7 5 15l27 -8l26 -8 l2 4l-28 8l-27 8v340q0 103 -48.5 159t-154.5 56q-59 0 -108.5 -20t-99.5 -50q-24 35 -64 52.5t-82 17.5q-54 0 -104.5 -16.5t-95.5 -47.5q-5 7 -9.5 15.5t-10.5 16.5t-13.5 13.5t-17.5 5.5h-126q-15 0 -23 -10q-8 0 -16 0.5t-16 0.5h-4q-16 2 -31 3.5t-30 4.5v-4 q21 -5 42 -6q-5 -1 -11 -2t-12 -1v-4q11 1 21 2.5t21 2.5l16 -2l15 -2q-1 -1 -1 -2t-1 -2q-24 1 -47 -8l-46 -16l1 -2h-1l2 -4q43 13 90 15v-509v-4l-1 -1v2l-79 -1v-4l76 1l-6 -5l-8 -4q-5 -2 -9 -2.5t-8 -1.5v-4h1l-2 -1q-1 0 -3 -1q-15 1 -30.5 3t-30.5 2v-4 q13 0 25 -1.5t25 -2.5v-4l12 3h8q12 0 24 1l23 2q6 -3 14 -3h178q7 0 12 3q16 -7 31.5 -12t32.5 -8v4q-31 6 -59 18q6 3 9 9q27 -11 59 -13v4q-30 2 -57 12q3 6 3 13v4q22 -6 45 -9v4q-24 3 -45 9v335q8 5 16 9l16 8h-1q15 7 31 11t33 4q9 0 14.5 -8t8.5 -18.5t4 -21.5 t1 -17v-300l-22 -14q-11 -7 -19 -16q-10 -2 -14 -3v-4q2 1 4 1q3 0 5 1l-1 -1l4 -2q1 1 1.5 2t2.5 2q11 3 20 7l21 7l1 -2q-5 -4 -11 -7t-11 -6l2 -4q5 4 11 7t11 6q9 -14 26 -14h178q13 0 23 10l39 -14q19 -7 39 -13l2 4q-20 5 -39 12l-38 14q0 1 2 3q29 -7 57 -17l56 -21 l2 4l-22 8l-21 7q3 0 9 -2v4q-20 5 -39 13l-39 15v3v344q19 11 45.5 21t48.5 10q9 0 14.5 -8t8.5 -18.5t4 -21.5t1 -17v-299q-35 -12 -69 -27l2 -4q35 16 67 27z" />
<glyph unicode="n" horiz-adv-x="637" d="M599 4l6 3l21 -6q20 -8 40 -13q2 -1 2 1t-2 3q-11 2 -20 5l-19 8q-5 2 -9.5 3t-9.5 3q26 -4 45 -8t47 -6q2 0 2 2t-2 2q-27 2 -46 5l-43 9l1 2q19 -2 33.5 -5.5t34.5 -5.5q2 0 2 2t-2 2q-20 2 -34 5t-33 5q2 6 2 10v343q0 105 -48.5 160t-147.5 55q-55 0 -105.5 -17 t-92.5 -47l-23 38q-4 5 -12 9t-13 4h-122q-6 0 -8 -1q-21 6 -43 6q-15 0 -29.5 -3t-29.5 -5q-2 0 -2 -2t2 -2q15 2 29.5 5t29.5 3q17 0 37 -5q-10 -5 -13 -14q-19 3 -34.5 5t-35.5 2q-11 0 -16.5 -3.5t-12.5 -11.5q-1 -2 0.5 -3t3.5 1q5 7 10 10t15 3q20 0 35 -2t34 -5 q-1 -2 -1 -7l-40 2q-19 1 -42 -1q-2 0 -2 -2t2 -2q23 2 42 1l40 -2v-512v-4q-6 2 -12 2h-13q-14 0 -22.5 -1.5t-21.5 -3.5q-2 0 -2 -2t2 -2q13 2 21.5 3.5t22.5 1.5t26 -3q1 -2 1 -3l1 -2h-3q-13 0 -19.5 -2t-18.5 -7q-2 -1 -1 -3t3 -1q11 5 17 7t19 2h6q3 -5 8 -8h-31 q-14 0 -31 -3q-2 -1 -2 -2q0 -2 2 -2q19 4 35 3.5t35 -0.5q1 0 1 1q2 -1 6 -1h17l3 -2q1 -1 2 0t1 2h148q7 0 13 3q16 -7 28.5 -13.5t28.5 -12.5q2 -1 3 1t-1 3q-16 5 -28 11.5t-27 13.5q2 1 3 2t3 2q15 -3 30 -7t31 -9q2 -1 3 1t-1 3l-32 9q-14 4 -29 7q3 4 5 13 q11 -5 22 -8.5t25 -8.5q2 -1 3 1t-1 3q-14 5 -25.5 8.5t-23.5 8.5v342q6 4 14 7l19 9h-1q17 8 33 12t33 4t25.5 -18t8.5 -47v-304q-16 0 -31.5 -3t-26.5 -12q-2 -2 -1 -3.5t3 -0.5q11 9 25.5 12t30.5 4v-3q0 -5 1 -7q-14 -1 -25 -3t-24 -4q-2 0 -2 -2t2 -2q14 2 25 4t25 3 q1 -3 2.5 -5.5t3.5 -4.5l-64 -4q-2 0 -2 -2t2 -2l69 4q8 -5 17 -5h171q4 0 10 2l26 -15q11 -6 28 -14q2 -1 3 1t-1 3q-17 7 -27 13z" />
<glyph unicode="o" horiz-adv-x="681" d="M659 288q0 140 -87 221q-88 80 -232 80q-143 0 -231 -80q-87 -81 -87 -221q0 -139 87 -220q86 -80 231 -80q146 0 232 80q87 81 87 220zM234 282v6v14l23 12q10 5 24 10q2 1 1 3t-3 1q-13 -5 -23 -10.5t-21 -10.5q5 47 32.5 73.5t72.5 26.5q51 0 79 -31.5t28 -87.5 t-28 -87.5t-79 -31.5q-34 0 -58 15q21 11 47 28q2 2 1 3.5t-3 0.5q-27 -18 -49 -29q-8 5 -14 12q15 10 31 18t32 12q2 1 2 3t-2 1q-17 -5 -33.5 -13t-32.5 -18q-1 1 -5 7q23 10 42.5 19.5t47.5 19.5q2 1 1 3t-3 1q-28 -10 -47.5 -20t-42.5 -20q-2 3 -4 6.5t-4 6.5 q32 7 66 20q2 1 1 3t-3 1q-18 -8 -33 -12l-32 -8q-2 4 -4 10l49 21l47 22q2 1 1 3t-3 1l-47 -22l-48 -22l6 6l13 7q15 7 30.5 15.5t32.5 20.5q2 2 1 3.5t-3 0.5q-17 -12 -32 -21l-31 -16l-2 -1l1 1q16 11 33 21l37 22q2 2 1 3.5t-3 0.5l-30 -18l-27 -16l11 11l11 14 q1 2 -0.5 3t-3.5 -1q-8 -11 -16 -20t-16 -17q-4 -2 -7.5 -5t-7.5 -6q-1 3 -1 7l4 5q10 14 22 27t26 30q1 2 -0.5 3t-3.5 -1q-4 -5 -8 -9t-8 -9h-2q-10 -6 -17 -11zM263 296l-13 -15q-7 -8 -13 -16l-1 -2q-1 3 -1 6q0 4 -1 8l14 10z" />
<glyph unicode="p" d="M344 428q45 0 72.5 -37t27.5 -96q0 -53 -24 -83.5t-67 -30.5q-30 0 -62 16q-24 12 -37 22v170q15 15 38 27t52 12zM292 -103q-10 2 -19.5 2.5t-20.5 1.5h-2l3 6q7 -2 13.5 -3.5t12.5 -3.5zM23 -89l3 -9q-15 0 -30 -0.5t-30 -3.5q-2 -1 -2 -2q0 -2 2 -2q16 3 31.5 3.5 t31.5 0.5l1 -1q-11 -4 -23 -5l-23 -2q-2 0 -2 -2t2 -2l25 2q12 1 25 6q9 -7 18 -7h173q9 0 14 4q22 -4 41.5 -10t39.5 -14q2 -1 3 1t-1 3q-20 8 -39 13.5t-39 9.5l3 3h4q27 -4 50 -12l33 -10l36 -12q2 -1 3 1t-1 3l-36 11q-16 6 -33 11q-5 2 -10 3l-10 2q10 -1 19 -2.5 t19 -3.5q24 -5 48.5 -8.5t51.5 -5.5q2 0 2 2t-2 2q-23 1 -44.5 4.5t-42.5 7.5l-1 1h-1q-14 2 -26 6t-25 7q-14 4 -27 6q1 3 1 8v138q33 -18 68.5 -26t75.5 -8q116 0 191 80q74 80 74 204q0 129 -77 209v-1q-77 84 -198 84q-50 0 -95 -15t-87 -50l-23 38q-4 5 -11.5 10 t-14.5 5h-106q-7 0 -13 -3q-13 5 -26.5 9.5t-27.5 6.5q-2 0 -2 -2t2 -2q11 -2 22 -5t22 -7q-6 1 -12 1h-14q-14 0 -22.5 -2.5t-22.5 -2.5q-2 0 -2 -2t2 -2q14 0 22.5 2.5t22.5 2.5q8 0 15 -0.5t14 -1.5q-1 -1 -1.5 -2t-2.5 -2q-17 -1 -34 -3l-34 -4q-2 0 -2 -2t2 -2l33 4 q16 2 33 3l-1 -2q-14 -1 -29.5 -2.5t-26.5 -5.5q-2 -1 -1 -3t3 -1q10 4 24 5.5t28 2.5q-1 -3 -1 -9v-1q-14 0 -23 -2t-23 -4q-2 0 -2 -2t2 -2q14 2 23.5 4t22.5 2v-632l-31 4q-16 2 -34 3q-2 0 -2 -2t2 -2q17 -1 31 -2.5t28 -3.5h-26q-13 0 -30 2q-2 0 -2 -2t2 -2 q18 -2 32 -2h31z" />
<glyph unicode="q" horiz-adv-x="687" d="M397 198q-31 -17 -62 -17q-43 0 -67.5 30t-24.5 82q0 60 27 97.5t72 37.5q27 0 49.5 -12t39.5 -28v-170q-6 -5 -15 -10zM676 572h-6h-6l-1 2zM733 570h-13q-6 0 -12 1q-7 1 -13.5 1.5t-12.5 2.5q15 -1 27 -2t24 -3zM691 -79q12 11 23 23l20 24q8 8 14.5 15.5t12.5 16.5 q1 2 -0.5 3t-3.5 -1l-2 -4l1 2q1 2 -0.5 3t-3.5 -1l-9 -15q-5 -8 -12 -16q-23 -23 -51 -36q16 11 30 23.5t25 25.5q2 2 0.5 3t-2.5 -1q-22 -23 -49 -43q28 23 48 61q1 2 -1 3t-3 -1q-13 -25 -28 -42t-35 -31v632v3h5h20q9 0 18 -1q13 -1 35 -3q2 0 2 2t-2 2v1q5 0 9.5 -0.5 t9.5 -0.5q2 0 2 2t-2 2q-24 1 -41 3.5t-41 3.5q-2 0 -2.5 -1t1.5 -2l-18 3q-2 4 -4 6q8 1 14 1h15q12 0 20.5 -0.5t19.5 -2.5q2 0 2 1q0 2 -2 3l-4 1q9 0 13 1q2 0 2 2t-2 2q-13 -2 -25.5 -1.5t-25.5 0.5q-10 0 -17.5 -0.5t-15.5 -1.5q-1 1 -5 3q20 0 41 0.5t44 -0.5 q2 0 2 2t-2 2q-35 2 -65 0.5t-63 -1.5q-1 0 -2 -1h-69q-7 0 -15 -5t-11 -10l-28 -47q-41 35 -85.5 50t-92.5 15q-122 0 -201 -85v1q-77 -83 -77 -212q0 -121 74 -200q77 -80 192 -80q40 0 75 8t70 27v-139q0 -13 8.5 -22t21.5 -9h172q12 0 20 8l28 10q13 5 27 12q2 1 1 3 t-3 1q-9 -5 -18 -9l-20 -8q3 3 7 6l7 5q9 2 17 4l16 4q2 1 2 3q0 1 -2 1q-7 -2 -13 -3t-13 -3zM667 -85q-2 -1 -1 -3t3 -1l5 2l-12 -9q3 6 3 14v7q14 5 27 12t25 16q-8 -9 -17 -17l-18 -17q-4 -1 -7 -2t-8 -2z" />
<glyph unicode="r" horiz-adv-x="480" d="M22 541v-511q-14 1 -26 -0.5t-26 -4.5q-2 -1 -2 -3t2 -1q14 3 26 4.5t26 0.5q1 -2 1 -5q0 -2 2 -4l-77 -1q-2 0 -2 -2t2 -2l79 1q2 -3 6 -7l-56 -7q-2 0 -2 -2t2 -2l58 7h1l1 1q6 -3 13 -3h165q7 0 15 4l44 -18q22 -8 48 -16q2 -1 3 1t-1 3q-26 7 -47 15l-43 18l1 1 l39 -10q20 -4 42 -5q2 0 2 2t-2 2q-21 1 -40 5l-38 10q1 1 1.5 2t1.5 2q22 -3 44 -7l48 -9q2 0 2 1q0 2 -2 3l-47 9q-21 4 -44 7q2 6 2 10v292q9 13 33 37q22 22 40 22q22 0 48 -34q12 -16 29 -12t22 23l42 162q-4 9 -12.5 20.5t-21 22t-28.5 18t-34 7.5q-41 0 -77.5 -26.5 t-70.5 -75.5l-21 69q-2 8 -10 14t-16 6h-117q-7 0 -11 -3q-20 1 -39 1.5t-42 0.5q-2 0 -2 -2t2 -2q21 0 38.5 -0.5t36.5 -0.5q-4 -3 -8 -11q-1 1 -2 1q-20 2 -32 2.5t-29 -1.5q-2 0 -2 -2t2 -2q17 2 29 1.5t32 -2.5v-1q-15 -2 -28.5 -3t-29.5 -2q-2 0 -2 -2t2 -2l29 2 q14 1 28 3v-4v-1l-21 -6l-23 -5q-2 -1 -2 -3t2 -1q25 5 44 11z" />
<glyph unicode="s" horiz-adv-x="529" d="M432 556l-2 1l24 36q-11 -21 -22 -37zM58 198q-8 2 -14 0q3 15 4 30.5t1 21.5q0 2 -2 2t-2 -2q0 -7 -1 -22.5t-5 -30.5l-1 -1q-1 4 -1.5 7t-0.5 6q0 12 2 20.5t3 20.5q0 2 -2 2t-2 -2q-1 -12 -3 -20.5t-2 -20.5q0 -5 2 -15q-5 -3 -8 -8q-1 5 -1.5 9.5t-0.5 9.5q0 8 1 16 t2 10t-1 3t-3 -1q-1 -3 -2 -11.5t-1 -16.5t1 -13.5t3 -11.5q-2 -8 -1 -14l8 -83v-1q0 -7 0.5 -13.5t1.5 -13.5q2 -21 1.5 -42t1.5 -41q0 -2 2 -2t2 2q-3 27 -3 58q3 -15 5.5 -30t3.5 -32q0 -2 2 -2t2 2q-1 17 -3.5 32t-5.5 31q6 -9 15 -12l3 -1l1 -12q-1 3 -2 5.5t-2 5.5 q-1 2 -3 1t-1 -3q9 -23 10.5 -43.5t3.5 -43.5q0 -2 2 -2t2 2q-1 8 -1 16q0 7 -1 14q1 1 1 2q-5 31 -6 57l7 -3v-76q0 -2 2 -2t2 2v75q42 -12 91 -19t104 -7q112 0 175 48t63 138q0 66 -40 108.5t-112 69.5q-61 23 -88 36.5t-27 27.5q0 7 9 12.5t24 5.5q40 0 84 -22 q23 -11 36.5 -18.5t17.5 -9.5q9 -8 20 -6q-1 -1 -1 -2q0 -13 -0.5 -21.5t-0.5 -21.5q0 -2 2 -2t2 2q0 13 0.5 21.5t0.5 21.5q0 2 -2 2q4 0 9 3l2 -28q1 -13 3 -27q0 -2 2 -2t2 2q-2 15 -3.5 29t-2.5 28q2 1 2.5 2t2.5 2q2 -11 3 -22t2 -24q0 -2 2 -2t2 2q-1 26 -6 51 q4 8 4 16v118q0 4 -2 8.5t-4 8.5q15 17 27 32l25 33q1 2 -0.5 3t-3.5 -1q-11 -16 -22 -30t-25 -29q6 14 12 26.5t14 26.5q1 2 -0.5 3t-3.5 -1q-9 -14 -15 -29l-12 -28q-3 3 -7 5l-3 1q10 16 18.5 31.5t15.5 32.5l8 12l9 14q1 2 -0.5 3t-3.5 -1l-10 -16q-2 0 -3 -1 q-1 -2 -1.5 -5t-1.5 -5q-11 -15 -21 -30l-20 -31q-29 11 -71.5 21t-85.5 10q-51 0 -94 -11.5t-75 -34.5q-37 -26 -54 -62t-17 -84q0 -94 67 -137q60 -38 98 -50v1q47 -17 74.5 -28t27.5 -24q0 -8 -11 -11.5t-30 -3.5q-59 0 -115 22l-49 18l-28 12h-1l5 16q2 7 4 16q1 2 -1 3 t-3 -1l-4 -16q-1 -6 -5 -16zM52 203q-1 -2 1 -3t3 1q5 9 6 17t2 19q0 2 -2 2t-2 -2q-1 -11 -2 -18t-6 -16zM454 535q0 2 -2 2t-2 -2q0 -26 -3.5 -48.5t-7.5 -44.5t-7.5 -45.5t-3.5 -50.5q0 -26 1.5 -47.5t8.5 -30.5q2 -2 3.5 -1t0.5 3q-7 9 -8.5 29.5t-1.5 46.5 q0 27 3.5 50.5t7.5 45.5t7.5 44.5t3.5 48.5zM470 411q0 2 -2 2t-2 -2q4 -40 3.5 -75t-0.5 -77q0 -2 2 -2t2 2q0 42 0.5 77t-3.5 75z" />
<glyph unicode="t" horiz-adv-x="520" d="M518 27q0 1 0.5 1.5t0.5 1.5v54q3 -32 5 -64.5t2 -67.5q0 -2 2 -2t2 2q0 45 -3 85.5t-8 82.5v29q0 6 -2 11t-4 9q-2 14 -3.5 28t-3.5 28q0 2 -2 2t-2 -2q3 -27 6 -51q-5 5 -11 5q-2 8 -3.5 15.5t-3.5 15.5q-1 2 -3 2t-1 -2q2 -8 3.5 -15t2.5 -15q-7 0 -11 -2l-4 22 q-2 10 -4 22q0 2 -2 2t-2 -2q3 -26 9 -45q-12 -5 -31.5 -12t-43.5 -7q-11 0 -18 9.5t-7 28.5v212h112q12 0 20.5 9t8.5 22v107q0 13 -8.5 21.5t-20.5 8.5h-112l1 153q0 14 -10 23.5t-24 6.5l-167 -29q-10 -1 -17.5 -10t-7.5 -20v-124h-81q-11 0 -20 -8.5t-9 -21.5v-107 q0 -13 9 -22t20 -9h81v-255q0 -97 48.5 -138t155.5 -41q20 0 40 3t43 8q17 5 30 8t23 7q1 -13 1 -25t2 -26q0 -2 2 -2t2 2q-2 14 -2 27t-1 25q4 2 5 2q0 1 2 1q4 -22 2 -42t-5 -43q0 -2 2 -2t2 2q2 14 3.5 26.5t1.5 26.5q1 0 1 1v37q2 2 2.5 4t2.5 4q3 -19 3.5 -38t2.5 -38 q0 -2 2 -2t2 2q-2 21 -2.5 42.5t-5.5 42.5z" />
<glyph unicode="u" horiz-adv-x="637" d="M-30 562q14 0 28 0.5t29 -0.5q-2 -3 -3 -5.5t-2 -5.5q-13 3 -28 1q-6 2 -12 4.5t-12 5.5zM648 9q-11 1 -21 1h-19q4 4 6 12q16 -8 34 -13zM615 26v4v6l45 -16q23 -8 47 -11q2 0 2 2t-2 2q-24 3 -47 11l-45 16v506q0 12 -8.5 20.5t-20.5 8.5h-171q-12 0 -21 -8.5t-9 -20.5 v-344q-10 -5 -21.5 -9.5t-24.5 -10.5h1q-16 -6 -28.5 -8.5t-20.5 -2.5q-38 0 -38 66v309q0 12 -9 20.5t-21 8.5h-171q-7 0 -13 -3l-40 16q-19 8 -41 10q-2 0 -2 -2t2 -2q20 -2 39 -9t38 -15q-2 -2 -3 -2q-17 2 -35.5 3.5t-36.5 5.5q-2 1 -2 -1t2 -3q13 -3 26 -4t26 -3 q-14 1 -26.5 0.5t-25.5 -1.5q-2 1 -3 1t-3 1t-3 -1t1 -3q9 -2 16.5 -5.5t14.5 -5.5q-4 -1 -8 -1q-5 0 -10 -1q-2 0 -2 -2t2 -2q8 1 15 1.5t13 0.5q5 -1 9.5 -1.5t9.5 -0.5q7 0 10 1v-1v-353q0 -100 48.5 -152.5t145.5 -52.5q57 0 103.5 16t91.5 45l16 -32q2 -7 10.5 -12 t16.5 -5h132q4 0 10 2q35 -1 72 -10q2 -1 2 1t-2 3q-35 8 -65 9l1 1q14 0 29.5 -0.5t31.5 -1.5q4 -1 8.5 -2t9.5 -2q2 0 2 2q6 -1 12.5 -1.5t14.5 -2.5q2 0 2 2t-2 2l-6 1h3q2 0 2 2t-2 2h-17q-8 0 -16 1l-14 2h-1q-22 5 -46 16z" />
<glyph unicode="v" d="M661 534q7 16 -1.5 28.5t-25.5 12.5h-159q-8 0 -16.5 -5.5t-11.5 -13.5l-98 -251l-91 251q-2 7 -11 13t-17 6h-178q-17 0 -25.5 -12.5t-1.5 -28.5l231 -528q3 -7 11 -12.5t16 -5.5h119q8 0 16.5 5.5t10.5 12.5zM90 563q2 -1 3 1t-1 3q-29 10 -63 11.5t-64 1.5q-2 0 -2 -2 t2 -2q32 0 65 -1.5t60 -11.5zM62 555q2 0 2 2t-2 2q-23 2 -51 4t-53 2q-2 0 -2 -2t2 -2q25 0 53 -2t51 -4zM38 558q2 0 2 2t-2 2q-13 -2 -24 -3.5t-25 -4.5q-2 -1 -2 -3t2 -1q14 3 25 4.5t24 3.5zM53 564q2 -1 2 1t-2 3l-53 14q-27 7 -56 7q-2 0 -2 -2t2 -2q29 0 56 -7z M65 537q2 -1 3 1t-1 3q-25 11 -51 17t-52 14q-2 1 -3 -1t1 -3q26 -8 52 -14t51 -17zM237 574q-2 0 -2 -2t2 -2q33 -4 58 -10t55 -8q2 0 2 2t-2 2q-30 2 -55 8t-58 10zM226 563q-2 1 -3 -1t1 -3q16 -8 30 -14t27.5 -10.5t28.5 -8t34 -6.5q2 0 2 2t-2 2q-36 6 -60.5 14.5 t-57.5 24.5zM227 584q-2 1 -3 -1t1 -3q26 -9 51 -15.5t54 -4.5q2 0 2 2t-2 2q-29 -2 -53 4.5t-50 15.5zM217 554q-2 1 -2 -1t2 -3q30 -8 57.5 -12.5t60.5 -2.5q2 0 2 2t-2 2q-33 -2 -60.5 2.5t-57.5 12.5zM253 560q-2 0 -2 -2t2 -2q20 -2 38.5 -7.5t38.5 -7.5q2 0 2 2t-2 2 q-20 2 -38.5 7.5t-38.5 7.5zM481 578q2 0 2 2t-2 2q-19 -2 -33 -1.5t-31 2.5q-2 0 -2 -2t2 -2q17 -2 31 -2.5t33 1.5zM517 556q2 0 2 2t-2 2q-25 3 -49 3.5t-50 0.5q-2 0 -2 -2t2 -2q26 0 50 -0.5t49 -3.5zM500 563q2 0 2 2t-2 2q-29 0 -58.5 3t-58.5 -1q-2 0 -2 -2t2 -2 q29 4 58.5 1t58.5 -3zM479 551q2 0 2 2t-2 2q-21 1 -37 1h-35q-2 0 -2 -2t2 -2h35q16 0 37 -1zM484 542q2 0 2 2t-2 2q-26 3 -48.5 4.5t-49.5 3.5q-2 0 -2 -2t2 -2q27 -2 49.5 -3.5t48.5 -4.5zM637 562q-2 0 -2 -2t2 -2l40 4q19 2 39 7q2 1 1 3t-3 1q-19 -5 -38 -7zM623 573 q-2 0 -2 -2t2 -2q20 0 35 0.5t35 1.5q2 0 2 2t-2 2q-20 -1 -35 -1.5t-35 -0.5zM619 540q-2 0 -2 -2t2 -2h47q21 0 45 4q2 0 2 2t-2 2q-24 -4 -45 -4h-47zM657 553q-2 0 -2 -2t2 -2q20 -2 33 -2q14 0 29 2q2 0 2 2t-2 2q-15 -2 -29 -2q-13 0 -33 2z" />
<glyph unicode="w" horiz-adv-x="1147" d="M-10 576q16 0 28.5 -0.5t25.5 -4.5q-6 -4 -8 -6q-11 4 -22.5 6.5t-23.5 4.5zM288 544l-4 12q19 -1 39 -3t37 -2q2 0 2 2t-2 2q-7 0 -15 0.5t-16 1.5q2 1 1.5 2t-2.5 1h-25q-11 0 -22 1q-5 5 -8 7h52q2 0 2 2t-2 2h-59q-6 3 -12 3h-193q-4 0 -12 -2q-14 5 -28.5 6t-31.5 1 q-2 0 -2.5 -1.5t1.5 -2.5l-13 3q-2 0 -2 -2q0 -1 2 -2q17 -4 30.5 -6.5t27.5 -7.5q-3 -5 -3 -11q-11 1 -22 1h-22q-2 0 -2 -2t2 -2h22q11 0 22 -1q0 -6 3 -12l233 -528q2 -7 11 -12.5t17 -5.5h93q8 0 16 5t12 11l164 294l163 -294q3 -6 11.5 -11t16.5 -5h93q8 0 16 5.5 t12 12.5l237 527q8 1 14 1.5t15 1.5q2 0 2 2t-2 2q-9 -1 -15 -1.5t-12 -1.5q3 7 1 15q13 0 24 -1t25 -3q2 0 2 2t-2 2q-14 2 -25 3t-25 1q-2 4 -3 5q5 1 8.5 1.5t8.5 0.5q8 0 17.5 -0.5t20.5 -0.5q2 0 2 3h1q2 0 2 2t-2 2q-11 -1 -21 -1t-20 -1q-6 0 -11.5 0.5t-11.5 0.5 q-4 4 -9 5q20 5 38 6t40 1q2 0 2 2t-2 2q-24 0 -44.5 -1.5t-41.5 -7.5h-3h-178q-5 0 -15 -4q-9 1 -19 1h-19q-14 0 -26.5 -2t-23.5 -5q-2 -1 -1 -3t3 -1q10 3 22 5t26 2h16q9 0 17 -1q-7 -4 -9 -11h-70q-2 0 -2 -2t2 -2h68l-1 -3q-11 -2 -23 -3t-25 -1q-2 0 -2 -2t2 -2 q13 0 24 1t22 3l-88 -227l-118 225q17 -3 31 -5t33 -4q2 0 2 2t-2 2q-19 2 -34 4.5t-32 4.5l-3 6q15 -2 31 0l34 3q2 0 2 2t-2 2l-36 -3q-16 -2 -32 0v2q7 -1 13 -1h14q12 0 21.5 1t21.5 4q2 1 1 3t-3 1q-11 -3 -20 -4t-21 -1h-15q-7 0 -15 1l-1 1h24q16 0 29.5 1t27.5 4 q2 1 2 3t-2 1q-14 -3 -27.5 -4t-29.5 -1h-29q-11 7 -19 7h-111q-7 0 -13 -3q-19 2 -35 3t-37 3q-2 0 -2 -2t2 -2q20 -2 34.5 -2.5t31.5 -3.5q-2 -1 -2.5 -1.5t-2.5 -1.5q-18 4 -36.5 5.5t-35.5 -0.5q-2 0 -2 -2t2 -2q16 2 34 0.5t35 -5.5q-1 -1 -1 -2l-3 -6q-14 4 -27.5 6.5 t-29.5 4.5q-2 0 -2 -2t2 -2q15 -2 28 -4.5t27 -5.5l-2 -4q-14 -1 -27.5 -1.5t-27.5 -0.5q-2 0 -2 -2t2 -2q14 0 26.5 0.5t25.5 1.5l-125 -226l-84 225q14 0 27.5 1t27.5 5q2 1 1 3t-3 1q-13 -4 -26 -5z" />
<glyph unicode="x" horiz-adv-x="683" d="M421 549l-71 -101l-75 110q25 -2 51.5 -3.5t55.5 -3.5q11 -1 20.5 -1.5t18.5 -0.5zM231 574h-29q19 2 38.5 3t40.5 1q44 0 83 -2.5t78 -5.5q-8 -4 -11 -7q-40 10 -79 11.5t-81 1.5h-21q-10 0 -19 -2zM429 559l-5 -6q-10 0 -20.5 0.5t-21.5 1.5q-30 2 -57 3.5t-53 3.5 q-5 7 -15 10h14q44 0 81.5 -1.5t76.5 -11.5zM690 24q2 0 2 2t-2 2h-29q0 1 -0.5 2t-0.5 2q9 1 17.5 1.5t17.5 1.5q2 0 2 2t-2 2l-36 -3q-2 6 -5 11l-172 247l170 233q6 7 6 15h1q8 -2 15.5 -3t18.5 -2q2 0 2 2t-2 2q-12 0 -21 3q0 3 -2 3q-8 0 -11 -1v1q-1 2 -1 3q0 2 -1 4 q7 -1 13 -2.5t13 -1.5q2 0 3.5 0.5t3.5 0.5l2 1h2q2 0 2 2t-2 2h-3l-2 -1q-2 -1 -6 -1q-7 0 -13.5 1.5t-13.5 2.5q-4 6 -7 9q7 1 14 1h15q2 0 2 2t-2 2q-9 0 -18 -0.5t-17 -0.5q-6 3 -15 3h-174h-2q-42 3 -83.5 5.5t-87.5 2.5q-35 0 -66 -4t-64 -4h-92q-6 0 -8 -1 q-12 1 -24.5 2.5t-26.5 5.5q-2 1 -2 -1t2 -3q19 -5 43 -7h-53q-2 0 -2 -2t2 -2h47q-7 -8 -8 -18t6 -21l170 -243l-176 -237q-2 -2 -4 -6h-4h-51q-2 0 -2 -2t2 -2h51h3q-4 -12 2 -21l-45 4q-21 2 -42 6q-2 0 -2 -2t2 -2q22 -4 44 -6.5t45 -4.5l3 -3l-40 4q-20 2 -43 2 q-2 0 -2 -2t2 -2q25 0 47 -2t43 -5q7 -3 16 -3h17q18 -2 36 -3t38 -1q39 0 83.5 3.5t82.5 3.5q2 0 2 2t-2 2q-34 0 -73 -3q2 1 2.5 1.5t2.5 1.5q14 0 28 0.5t31 0.5q2 0 2 2t-2 2q-15 0 -28 -0.5t-26 -0.5v1q1 0 1 1l5 6q12 0 23.5 -0.5t23.5 -0.5q2 0 2 2t-2 2h-23 q-11 0 -22 1l79 109l72 -106q-12 0 -20 -2.5t-19 -4.5q-2 -1 -2 -3q0 -1 2 -1q11 2 19.5 4.5t19.5 2.5h3l5 -7q-11 -2 -22 -3t-22 -3q-2 0 -2 -2t2 -2q12 2 23.5 3t23.5 3q5 -5 9 -7q-13 -2 -24 -4.5t-22 -6.5q-2 -1 -1 -3t3 -1q11 4 23.5 7t26.5 5q2 0 3.5 -0.5t3.5 -0.5 h190q14 0 22 8q10 1 19.5 3.5t18.5 4.5q2 1 2 3t-2 1l-18 -4q-8 -2 -16 -3q4 6 4 11h30zM611 15q-2 1 -3 -1t1 -3q29 -9 58 -16.5t56 -21.5q2 -1 3 1t-1 3q-27 14 -56 21.5t-58 16.5zM662 30q-2 1 -3 -0.5t1 -3.5q18 -14 34 -18t37 -4q2 0 2 2t-2 2q-21 0 -36 4t-33 18z M659 40q-2 1 -3 -1t1 -3q20 -8 40 -17.5t43 -14.5q2 0 2 1q0 2 -2 3q-22 5 -41.5 14.5t-39.5 17.5z" />
<glyph unicode="y" horiz-adv-x="723" d="M-21 586h-1q23 0 46.5 -2.5t47.5 -5.5q-8 0 -16 -5l-39 8q-18 3 -38 5zM480 561q-2 0 -1.5 -2t2.5 -2q7 1 11 1h10l-97 -230l-106 232l-1 1q11 1 22 1.5t22 0.5q2 0 2 2t-2 2q-11 0 -22.5 -0.5t-23.5 -1.5l-2 2l17 2q9 1 19 2q2 0 1.5 2t-2.5 2l-20 -2q-9 -1 -18 -3 q-6 4 -9 5l23 6l20 5q2 1 1.5 3t-2.5 1q-10 -3 -23 -6l-27 -6h-2h-172q-31 5 -62 8.5t-60 3.5q-2 0 -2 -2t2 -2q-2 0 -2 -2t2 -2l37 -6l37 -6q-5 -4 -7 -12q-21 2 -38.5 7.5t-27.5 14.5q-2 2 -3.5 0.5t0.5 -2.5q11 -11 29 -16.5t39 -7.5q-2 -10 4 -20l238 -458l-67 -153 l-1 -2q0 -1 -1 -3q-18 -1 -35 -3t-37 -2q-2 0 -2 -2t2 -2q20 0 36.5 2t34.5 3q0 -9 1 -13h-47q-2 0 -2 -2t2 -2h49q3 -6 8 -10q-17 1 -32.5 2.5t-32.5 5.5q-2 0 -2.5 -1.5t1.5 -2.5q20 -4 37.5 -6t37.5 -2q3 -2 10 -2h164q4 0 7 1h21h37q19 0 38 -3q2 0 2.5 2t-1.5 2 q-19 3 -38 3h-38h-13q2 1 3 2t3 2h2q7 0 12.5 1t11.5 1q27 3 51 3.5t53 5.5q2 0 1.5 2t-2.5 2q-23 -4 -42.5 -5.5t-39.5 -2.5l15 3q2 1 1.5 3t-2.5 1l-18 -4l-17 -4h-21q2 2 2 3l281 637q2 6 2 8q13 -2 24.5 -5.5t21.5 -8.5q2 -1 3 1t-1 3q-11 5 -22.5 8.5t-24.5 5.5v7 q8 -2 17 -2.5t18 -2.5q2 0 2.5 2t-1.5 2q-10 2 -19 3l-18 2q-1 2 -1.5 3.5t-2.5 3.5q8 -1 14.5 -2.5t15.5 -1.5q2 0 2 2t-2 2q-5 0 -9 0.5t-8 1.5h16q2 0 2 2t-2 2h-18q-9 0 -19 1q-7 5 -17 5h-37l-46 4q-22 2 -48 2q-28 0 -50.5 -0.5t-49.5 -9.5q-2 -1 -1.5 -3t2.5 -1 q27 9 49.5 9.5t49.5 0.5q14 0 26 -0.5t25 -1.5h-82q-9 0 -19 -8h-36q-2 0 -2 -2t2 -2h32h-1h-38q-2 0 -2 -2t2 -2h27q-3 0 -6.5 -0.5t-8.5 -0.5z" />
<glyph unicode="z" horiz-adv-x="567" d="M44 368q0 5 -0.5 10t-0.5 10l2 -1zM527 194q-2 0 -2.5 0.5t-1.5 0.5l3 12zM540 182q-2 2 -2 3q1 3 1 6t1 7v-16zM41 353q0 -5 0.5 -9.5t0.5 -9.5v-1v-8q0 -2 2 -2t2 2q1 15 1.5 29.5t1.5 28.5q2 -2 8 -4q2 -13 3 -26t-2 -27q0 -2 1 -2q2 0 3 2q2 13 1.5 26t-1.5 26h3h153 l-196 -224v-124q0 -13 8.5 -21.5t20.5 -8.5h464h1q3 -18 5.5 -36.5t3.5 -38.5q0 -2 2 -2t2 2q-1 10 -1.5 19t-1.5 18l4 -18l4 -17q1 -2 3 -2t1 2q-5 20 -9 38t-7 36q2 0 6 2q5 -16 11 -29.5t11 -32.5q1 -2 3 -1t1 3q-5 18 -11.5 31.5t-11.5 30.5q5 3 9 8v-12q0 -2 2 -2t2 2 v20v2q7 -27 18 -55q1 -2 3 -1t1 3q-6 16 -11.5 33t-9.5 35v128q0 6 -1 8q0 8 0.5 15.5t-0.5 15.5q0 2 -2 2l1 5q0 2 -2 2t-2 -2q-1 -10 -5 -23q-1 1 -2 1l-1 1q-1 7 -1 13q0 7 -1 14q2 4 3 7t3 7q1 2 -1 3t-3 -1l-2 -5v1q0 2 -2 2t-2 -2v-11q-2 -6 -3 -12t-3 -11h-4h-177 l196 218v130q0 13 -8.5 21.5t-20.5 8.5h-433l2 9q1 2 -1 2t-3 -2l-2 -9h-3h-2q1 8 1.5 15.5t2.5 15.5q0 2 -2 2t-2 -2q-2 -8 -2.5 -16t-1.5 -16h-2v20q0 2 -2 2t-2 -2v-11q0 -6 -1 -11h-1q0 -1 -1 -1q2 11 3 21.5t3 21.5q0 2 -2 2t-2 -2q-4 -22 -6 -47q-7 -4 -9 -14 q-3 0 -3 -2l-1 -8q1 14 1 29v31q0 2 -2 2t-2 -2q0 -51 -1.5 -95.5t-1.5 -97.5v-43q0 -2 2 -2t2 2v43q0 24 0.5 46t0.5 43q1 -16 2.5 -32t1.5 -33v-25q0 -5 2 -11q1 -11 1 -21v-21q0 -2 2 -2zM549 247q0 2 -2 2t-2 -2q2 -29 3.5 -55.5t-9.5 -54.5q-1 -2 1 -3t3 1 q11 29 9.5 56t-3.5 56zM521 234q0 2 -2 2t-2 -2q0 -12 -0.5 -21t-2.5 -20q0 -2 2 -2t2 2q2 11 2.5 20t0.5 21z" />
<glyph unicode="{" horiz-adv-x="378" d="M238 322q-5 5 -9 9.5t-9 8.5q1 1 2 1.5t2 1.5q31 -5 61.5 -8.5t62.5 -5.5q-28 -1 -56 -3zM245 310l-2 4h17q-10 -2 -15 -4zM271 26q-3 3 -6 9q8 -1 15.5 -1.5t15.5 -1.5q-11 -1 -25 -6zM103 -34q2 -5 6 -13q-14 -2 -27 -3l-26 -2q28 10 47 18zM92 152v-87l-59 14 q-28 7 -57 17q56 32 116 56zM63 263q29 -8 29 -34v-4q-21 4 -41.5 7.5t-41.5 8.5q13 7 26 12zM92 452v-1q0 -15 -11.5 -25t-31.5 -11q-11 0 -19 -9t-8 -22v-3q-7 2 -13.5 3t-12.5 3q-16 5 -32 7.5t-36 2.5q5 6 15.5 10.5t23 8.5t23.5 7l20 5l43 12zM92 520v-24 q-50 2 -99.5 3.5t-99.5 10.5q34 12 81 12q32 0 60.5 -0.5t57.5 -1.5zM92 551v-7l-36 4l-36 4q18 0 36 -0.5t36 -0.5zM93 668q-1 -5 -1 -15v-73q-25 6 -45.5 14.5t-34.5 22.5q17 19 37.5 31t43.5 20zM278 657h4h10q-3 0 -6 -0.5t-6 -0.5zM280 652q20 -8 42 -13.5t46 -10.5 h-105q0 15 5 23zM104 717q-1 -3 -2 -6.5t-2 -6.5q-43 9 -80 22q21 -1 42 -3.5t42 -5.5zM92 576v-21q-28 1 -56 1h-54h-14h-31q-2 0 -2 -2t2 -2q36 0 75 -3.5t80 -8.5v-16q-29 1 -57.5 1.5t-60.5 0.5q-50 0 -89 -15q-4 -2 1 -4q51 -11 102.5 -12t103.5 -3v-36l-39 -12 l-45 -12l-20 -6q-13 -3 -26.5 -7.5t-24.5 -10t-15 -12.5q-2 -3 2 -3q21 0 37.5 -2.5t33.5 -6.5q7 -2 13.5 -3.5t13.5 -3.5v-81q0 -13 8 -22t19 -9h6q-14 -5 -27 -10.5t-26 -12.5q-2 -1 -1.5 -2.5t2.5 -1.5q22 -5 44 -9l45 -8v-64q-66 -26 -122 -60q-4 -2 0 -4q30 -10 60 -18 l62 -14v-33q0 -32 10 -59l-28 -10l-31 -11q-2 -1 -1.5 -2.5t2.5 -1.5q17 0 33.5 1.5t33.5 3.5q7 -14 17 -27q19 -24 47 -35l-32 -40l-33 -39q-2 -2 -1 -3t3 1l25 24q11 11 25 23q2 1 1 2.5t-3 -0.5l-11 -9l-9 -9l19 24l19 25q31 -12 72 -12h79q11 0 19 9t8 22v88q0 12 -8 21 t-19 9h-47q-3 0 -5 1l20 4q10 2 22 2q2 0 2 2t-2 2q-14 2 -27.5 3t-27.5 3q-1 3 -1 12v181q0 45 -16 74l14 3l15 4q2 1 1.5 2.5t-2.5 1.5h-34h-1q44 4 86.5 6.5t87.5 2.5q2 0 2 2t-2 2q-47 0 -93.5 4.5t-92.5 11.5q35 33 35 100v67h28q2 0 2 2t-2 2q-7 1 -13.5 1.5 t-14.5 1.5v27h56q2 0 2 2t-2 2q-14 2 -28 3l-28 2v67h126q2 0 2 1q0 2 -2 3q-28 5 -52.5 11t-47.5 14q6 1 12.5 1.5t11.5 1.5h1l1 1h14q11 0 19 9t8 22v88q0 13 -8 22t-19 9h-79q-84 0 -122 -49q-4 -5 -7 -10l-6 -10l-43 27l-46 31q-2 1 -3 -0.5t1 -3.5l46 -30l43 -27 q-2 -4 -3.5 -7.5t-3.5 -6.5q-25 4 -49.5 6.5t-47.5 2.5q-2 0 -2.5 -1.5t1.5 -2.5q22 -8 44.5 -14.5t46.5 -11.5q-5 -14 -6 -28q-24 -8 -45.5 -21t-39.5 -33q-1 0 -1 -1t1 -1q14 -15 36 -24.5t48 -15.5zM279 552h-16v1q5 0 9 -0.5t7 -0.5z" />
<glyph unicode="|" horiz-adv-x="199" d="M22 657v-9l-20 4l-19 4h19q10 0 20 1zM177 698v5h14q-4 -2 -7 -2.5t-7 -2.5zM177 445v19l49 -10q24 -5 47 -9h-96zM177 378v11l37 -6q18 -3 38 -8q-39 0 -75 3zM177 77v7l21 -6q11 -3 22 -5q-11 1 -21.5 1.5t-21.5 2.5zM22 87v-9q-6 2 -11.5 4.5t-10.5 4.5h22zM22 204 v-62q-21 8 -41 18.5t-35 26.5q16 8 29.5 12.5t42.5 4.5h4zM22 315v-74l-27 7q-14 3 -28 8q-19 7 -34 17.5t-22 28.5q28 5 55.5 8t55.5 5zM22 386v-33q-36 8 -72 17t-72 20h33q29 0 57 -1t54 -3zM22 441v-10q-16 5 -38 10h38zM177 468v226q8 3 15 5t13 4q2 1 2 2q0 2 -2 2 h-28v48q0 12 -7.5 21t-16.5 9h-108q-10 0 -16.5 -9t-6.5 -21v-40q-16 1 -32.5 1.5t-33.5 0.5q-2 0 -2 -2t2 -2q34 0 66 -3v-49q-13 -1 -26 -1h-27q-2 0 -2.5 -1.5t1.5 -2.5q14 -5 27 -7.5t27 -4.5v-5q-43 1 -85 1.5t-80 0.5q-2 0 -2 -2t2 -2q45 0 85 -7l80 -13v-39 q-40 -5 -79.5 -12.5t-73.5 -22.5q-2 -1 -1.5 -2.5t2.5 -1.5q18 0 33.5 -4t30.5 -10l30 -11q16 -6 33 -10l25 -6v-53h-60q-2 0 -2 -2t2 -2q17 -3 31.5 -6.5t28.5 -7.5v-37q-26 2 -54 3t-57 1h-47q-2 0 -2.5 -1.5t1.5 -2.5l79 -22q40 -10 80 -19v-30q-29 -2 -57 -5t-57 -8 q-2 0 -2 -3q7 -20 23.5 -32t36.5 -19q14 -5 28.5 -8.5t27.5 -7.5v-28h-4q-30 0 -45 -4.5t-31 -14.5q-2 -2 0 -3q15 -17 36 -28.5t44 -19.5v-47h-32q-2 0 -2.5 -1.5t1.5 -2.5q8 -3 16 -6.5t17 -6.5v-18h-27q-15 0 -30.5 0.5t-30.5 -1t-29 -6.5t-26 -15q-2 -2 -1 -3.5t3 -0.5 q23 20 54 21t60 1h27v-34q0 -12 7 -21t17 -9h108q9 0 16 9t7 21v16q10 -1 19.5 -1.5t18.5 -0.5v2l1 1q0 1 -1 1l-3 1l-10 1l-25 4v31q18 -2 36.5 -3.5t36.5 -1.5q2 0 2 2t-2 2q-19 2 -37 6.5t-36 10.5v228h13q2 0 2 2t-2 2l-13 2v51q45 -3 92 -3q2 0 2.5 1.5t-1.5 2.5 q-26 7 -48 11l-45 7v48h120q2 0 2 2t-2 2l-58 11q-30 5 -62 12zM22 574v-72l-25 6q-31 7 -58.5 20t-59.5 15q29 12 63 18t69 11zM-75 637q24 -1 48 -1t49 -1v-14q-24 4 -48 8.5t-49 7.5z" />
<glyph unicode="}" horiz-adv-x="377" d="M174 -229l12 8q6 4 13 8l-46 -71q-22 -33 -57 -64q14 23 29 44t29 43l10 16zM114 -126h1l-5 -6zM74 -126h35l-9 -16l-10 -15q-1 -2 0.5 -3t3.5 1l12 16q7 9 14 17h8q83 0 121 49q36 46 36 105v4l31 32q15 16 32 30l-20 -36l-23 -35q-11 -17 -14 -35t-12 -35 q-23 -46 -51 -91l-57 -89l-63 -46l-59 -45l-45 -41l-46 -42q-23 -20 -47.5 -38.5t-51.5 -32.5q2 19 13 43t25 48q16 26 31 47l23 32q16 25 31 46l28 40l29 40l32 45zM355 350v11l41 57l45 61q-17 -33 -39 -65.5t-47 -63.5zM115 164v-75q-7 -5 -16 -10q-16 -9 -31.5 -16.5 t-29.5 -20.5q17 32 37 62zM277 405q4 7 7 13.5t7 13.5l1 -2q-4 -6 -7.5 -12.5t-7.5 -12.5zM119 405q9 -42 38 -65q-42 -33 -42 -107v-2l-23 -18l-24 -18q-12 -10 -29.5 -26.5t-37.5 -33.5q-19 -16 -38.5 -27.5t-37.5 -13.5q8 14 13 25l10 22l10 22q6 12 15 26q31 49 70 105z M115 480v-33v-7l-37 -38l-38 -40l-35 -40q-17 -21 -38 -38q14 32 32 52l40 44q8 8 16 18l16 22zM61 657h35q8 0 13.5 -6t5.5 -23v-34l-79 -56q-40 -27 -85 -47q14 24 26 41l28 40l28 41zM319 759q-11 -16 -20.5 -31.5t-19.5 -29.5q-2 4 -2.5 8t-2.5 8q24 22 45 45zM347 793 v1l2 2l1 2v1q0 1 -1 1h-1q0 1 -1 1h-1v-1l-1 -2l-1 -2v-1h-1q-14 -20 -32 -39l-39 -38q-8 19 -23 39q-34 43 -100 49l24 41q1 2 -0.5 3t-3.5 -1l-24 -43q-4 1 -8 1h-9h-78q-11 0 -19.5 -9t-8.5 -22v-88q0 -13 8.5 -22t19.5 -9h6l-27 -43l-28 -40l-16 -23l-13 -20l-13 -20 l-15 -23q-1 -2 0 -3t3 0q45 20 87 47l81 57v-102l-22 -30l-26 -35q-8 -12 -15.5 -21.5t-15.5 -18.5l-42 -48q-19 -21 -34 -55q-2 -5 3 -3q25 19 42 40l37 44l38 39l35 35q1 -14 3 -24l-77 -113q-40 -56 -72 -106q-9 -14 -14 -26l-11 -23l-10 -23q-6 -11 -15 -26q-2 -3 2 -3 q20 0 41.5 12.5t41.5 29.5t37 33.5t29 25.5l23 18l22 17v-55l-47 -70q-22 -35 -42 -72q-1 -2 0.5 -3t3.5 1q10 13 21.5 20.5t23.5 14.5l21 10q10 5 19 12v-32q0 -29 -19 -29h-46q-11 0 -19.5 -9t-8.5 -21v-80l-5 -7q-1 -2 0 -3t3 0l2 2q0 -13 8.5 -22t19.5 -9h19l-2 -3 l-31 -46l-29 -40l-29 -40l-31 -45l-25 -39l-31 -46q-15 -24 -25.5 -48t-10.5 -42q0 -4 3 -2q28 14 52.5 32.5t47.5 39.5l46 42l47 41l57 44l57 43l-15 -24l-32 -48l-32 -50q-1 -2 0 -3t3 0q21 18 37 35.5t29 36l26 38.5l26 43q1 2 0 3t-3 0q-6 -5 -12 -8.5t-13 -8.5l55 84 q26 43 49 88q8 17 11.5 35t14.5 35l24 39q11 17 23 40q1 2 0 3t-3 0q-20 -14 -35 -31l-33 -34v191q0 15 11.5 25t31.5 11q11 0 19 9t8 22v48q27 33 54.5 73.5t44.5 78.5q1 2 -0.5 3t-3.5 -1l-50 -68l-45 -62v16q0 13 -8 22t-19 9q-23 0 -36 15l6 11l6 12l6 10q4 6 8 11l-4 2 l-10 -23l-7 -11l-6 -10q-6 7 -6 19v202q0 11 -1.5 20.5t-3.5 19.5q13 18 25 38l25 40q8 10 16 22h1zM344 794h1v-1z" />
<glyph unicode="~" horiz-adv-x="593" d="M190 193q19 0 84 -28q38 -17 72.5 -25t63.5 -8q55 0 102 36q38 31 56 55q2 4 2.5 11.5t-1.5 10.5l-47 110q-7 17 -23.5 19t-27.5 -12q-17 -22 -33 -37.5t-34 -15.5q-20 0 -85 28q-77 33 -136 33q-57 0 -101 -35q-20 -16 -33 -29.5t-23 -25.5q-2 -4 -3 -11.5t1 -12.5 l48 -110q7 -16 24 -17t28 13q16 22 32 36.5t34 14.5z" />
<glyph unicode="&#xa1;" horiz-adv-x="228" d="M190 257l-8 72q31 5 61.5 12t59.5 18q-29 -23 -57 -49zM22 -60v-24q0 -11 5 -19q-12 -10 -24 -17q2 16 7 31t12 29zM27 538v-38q-13 -2 -25 -4.5t-24 -4.5q-27 -5 -45.5 -13.5t-44.5 -13.5q31 20 67 38zM-11 606q-2 0 -2 -2t2 -2q10 2 19 2.5t19 2.5v-65 q-39 -17 -78 -37.5t-71 -42.5q-4 -4 1 -4q30 5 50 14t49 15q12 2 24 4.5t25 4.5v-15q0 -12 7 -21t17 -9h36l-13 -11q-6 -6 -13 -11l-95 -74q-49 -38 -87 -84q-3 -3 2 -3q31 3 55.5 8t47.5 11l29 8q14 4 30 8l-21 -192v-162q-9 -17 -15 -35t-8 -38q0 -4 3 -2q8 5 15 10l13 10 q6 -8 16 -8h41q-3 -17 -5 -32.5t-2 -30.5q0 -10 7 -24l6 -9q2 -5 3 -8q1 -2 3 -1t1 3q-4 9 -10 18.5t-6 20.5q0 15 2 30.5t5 32.5h90q11 0 18 8.5t7 21.5v197l-10 93q2 2 3.5 4t3.5 4q2 1 1 2.5t-3 0.5l-6 -5l-5 40l62 58q31 28 63 53q2 2 1 3.5t-3 0.5q-25 -10 -53.5 -17 t-57.5 -13q-5 -2 -10.5 -2.5t-10.5 -1.5l-6 57q-2 11 -9 18.5t-16 7.5h-73q-9 0 -15.5 -7.5t-8.5 -18.5l-9 -83q-17 -4 -32 -8l-29 -8q-22 -6 -45 -11t-52 -8q37 45 85 81l92 72l15 13l15 13h83q10 0 17 9t7 21v157q0 13 -7 22t-17 9h-125q-10 0 -17 -9t-7 -22v-27 q-10 -2 -19 -2.5t-19 -2.5z" />
<glyph unicode="&#xa2;" horiz-adv-x="568" d="M415 429q1 -1 7 -3q-6 0 -7 3zM257 305l-15 -44q-3 10 -4 21t-1 24v9q0 4 1 9q9 -10 19 -19zM238 329q4 41 20 68t42 38l-42 -126zM279 746q-2 1 -3 -0.5t1 -3.5q26 -17 53 -30t53 -24l-22 -64q-8 1 -16 1h-17q-75 0 -136 -26q-28 17 -58.5 28.5t-57.5 31.5q-2 1 -3 -0.5 t1 -3.5q26 -19 56 -30t58 -28q-47 -21 -83 -59q-14 -16 -26 -32q-24 29 -33 58q-1 2 -3 1t-1 -3q5 -15 14 -30t21 -29q-35 -50 -47 -115l-10 17q-5 8 -9 16q-1 2 -3 1t-1 -3l11 -18l10 -19q-6 -36 -6 -77q0 -70 20.5 -125t61.5 -98q13 -13 28 -24.5t35 -22.5l-35 -107 q-29 23 -56 48t-47 54q-2 2 -3.5 1t-0.5 -3q21 -31 48.5 -56t57.5 -48l-17 -50q-5 -17 3 -29t24 -12h86q12 0 21 9l12 -10l13 -10q2 -1 3 0.5t-1 3.5q-6 5 -12 9l-13 10q3 3 5 8l43 131l27 -53q13 -26 27 -49q2 -2 3.5 -1t0.5 3q-14 23 -28 50l-28 56l3 10h18q49 0 103 14 q5 2 9 2.5t9 2.5l24 -60l22 -59q1 -2 3 -1t1 3l-22 58l-24 60q17 5 27.5 9t16.5 7q5 3 9.5 11t5.5 13l18 139q2 14 -6.5 24.5t-22.5 10.5q-7 0 -11 -1.5t-9 -4.5h2q-6 -3 -16.5 -6.5t-27.5 -10.5q-36 -14 -63 -17v1l48 148q20 -35 40 -74q1 -2 3 -1t1 3l-22 40 q-10 19 -21 37l23 69q14 -6 23.5 -11t15.5 -9q17 -11 32 -1t13 30l-13 136q0 6 -5 13t-10 11l17 51q23 -10 41 -21q2 -1 3 0.5t-1 3.5q-21 12 -42 21l29 88q5 16 -3 28.5t-24 12.5h-86q-8 0 -16.5 -6.5t-11.5 -14.5l-19 -56q-27 11 -53 23.5t-52 29.5z" />
<glyph unicode="&#xa3;" horiz-adv-x="772" d="M212 119q0 -8 -9 -13.5t-22 -5.5q-14 0 -23 5.5t-9 13.5t9 13.5t23 5.5q13 0 22 -5.5t9 -13.5zM481 487h-114q-4 17 -7 36.5t-3 38.5q1 35 20.5 50t54.5 15q22 0 42 -4q2 -34 3.5 -68t3.5 -68zM488 213q-7 1 -14 2.5t-15 3.5q-17 5 -33.5 8.5t-32.5 7.5q3 13 4 27t1 31 q0 9 -0.5 16.5t-1.5 15.5h91q1 -19 1 -38v-37v-37zM665 311h-53q-11 0 -19.5 -8.5t-10.5 -19.5l-5 -43q-9 -33 -41 -33q-16 0 -44 5v38v37q0 19 -1 38h17q12 0 21 8.5t9 21.5v102q0 12 -9 21t-21 9h-23q-2 34 -3.5 67.5t-3.5 67.5q23 -5 52 -15t67 -29q2 -1 4 -1.5t4 -1.5 q5 -10 9 -20l7 -21q20 -54 28 -110zM110 325h59l22 -74q-41 -3 -75 -17l-2 46q-1 22 -4 45zM32 515q-1 2 -3 1t-1 -3l8 -15q3 -7 7 -13q-8 -4 -13.5 -11.5t-5.5 -16.5v-102q0 -13 8.5 -21.5t21.5 -8.5h52q3 -23 4 -46l2 -47q-44 -20 -67 -55.5t-23 -79.5q0 -36 14 -61 t46 -36q-11 -38 -26 -67q-1 -2 1 -3t3 1q15 29 26 67q21 -6 50 -6q31 0 63 8t61 25q-4 -31 -13 -61t-17 -52q-1 -2 1 -3t3 1q10 26 18.5 57t11.5 61q23 13 44 34q16 -11 32.5 -21t34.5 -18q-1 -24 -3 -47.5t-2 -47.5q0 -2 2 -2t2 2q0 23 2 46.5t3 46.5q45 -20 95 -29l-3 -18 q-4 -22 -11.5 -40.5t-16.5 -38.5q-1 -2 1 -3t3 1q8 21 16 39.5t12 41.5l3 18q12 -2 24.5 -3t25.5 -1q100 0 159 50q10 9 17 18q2 -34 -2 -66t-15 -61q-1 -2 1 -3t3 1q11 31 15 65t2 69q20 28 29.5 71t11.5 101l1 46q0 14 -8.5 23t-22.5 9h-50l-16 114q-8 56 -28 111l-15 39 q20 -2 28 19l47 112q4 10 0.5 21.5t-13.5 16.5q-23 14 -52.5 23t-66.5 17l-32 6l-32 4q-13 20 -23 40t-12 46q0 2 -2 2t-2 -2q2 -26 11.5 -46t22.5 -39q-17 2 -33.5 3t-33.5 1q-25 0 -48 -2t-44 -5q-10 5 -19 11l-20 12q-29 18 -55 38t-45 45q-2 2 -3.5 1t-0.5 -3 q20 -26 46.5 -46.5t55.5 -37.5q8 -6 17 -11l18 -11q-73 -14 -122 -48q-25 -17 -41 -36q-27 35 -57.5 65.5t-60.5 54.5q-2 1 -3 -0.5t1 -3.5q30 -23 60 -54t57 -65q-43 -49 -43 -115q0 -17 0.5 -32t1.5 -29q-17 24 -36.5 48.5t-36.5 50.5q-2 2 -3.5 1t-0.5 -3q18 -27 39 -53 t39 -52l2 -16q1 -8 3 -16h-64q-5 0 -8 -1l-6 14z" />
<glyph unicode="&#xa5;" horiz-adv-x="865" d="M289 24q-67 -5 -125 -15q-26 -5 -49.5 -12t-50.5 -7q-9 0 -16.5 3t-16.5 5q7 37 25.5 65t41.5 51q-2 -10 -2 -15q0 -16 5.5 -28.5t28.5 -12.5q44 0 75.5 12t70.5 30q10 5 20 9l20 9v-48q-16 -24 -27 -46zM267 -26l-3 -9l-19 -8q-10 -3 -19 -6q11 7 21 12zM549 124v51h123 q-11 -5 -20.5 -8.5t-15.5 -5.5q-22 -8 -43 -18zM77 440v-59q0 -13 9 -22t21 -9h182l4 -7l-75 -5h-111q-12 0 -22 -10l-14 -1q-51 -4 -98 -10l-95 -10q-47 -5 -96 -9t-101 -4q62 32 114.5 52.5t104.5 37.5l85 27zM394 580l-38 56q35 11 70 20t72 10q-21 -26 -48 -47t-56 -39z M296 339l1 -1h-21zM765 337q-3 1 -8 1h-190l10 12h180q13 0 22 9t9 22v8q30 6 57 12t62 13q-15 -8 -31 -13.5t-30 -13.5l-40 -25zM549 116v3q22 11 44 20.5t45 17.5q4 2 17 7l28 11h4l-72 -31zM267 -38q24 8 48 18l47 20h78l-37 -30l-37 -28q-21 -16 -34 -29l-27 -23 q-13 -11 -27 -19t-35 -16q5 29 10.5 55.5t13.5 51.5zM273 -23l26 14l28 15q7 -6 19 -6h6q-21 -9 -42 -17l-41 -16q1 2 1.5 5t2.5 5zM316 62v-32v-5q-5 0 -11 -0.5t-12 -0.5q10 18 23 38zM103 119l29 28l29 28h155v-53l-42 -18q-38 -18 -69 -30t-75 -12q-20 0 -25 10.5 t-5 26.5q0 11 3 20zM106 128q10 23 31 47h18l-24 -24zM287 20q-5 -10 -9 -20l-9 -20l-29 -17l-35 -18q-2 -2 -1 -3.5t3 -0.5l27 9l28 10q-8 -25 -13.5 -51.5t-9.5 -56.5q0 -2 3 -2q23 8 37.5 17t27.5 20l27 23q14 13 34 28l39 30l39 32h72q13 0 22 9t9 21v41l7 4q2 2 1 3.5 t-3 0.5l-5 -2v34l70 31l78 33h60q13 0 22 9t9 22v101q0 9 -5 16.5t-13 11.5l78 48q17 11 36 17t37 16q4 4 -1 4q-41 -7 -70 -14l-62 -13v89q0 13 -9 22t-22 9h-70l126 186l24 38q11 17 2.5 32t-27.5 15h-176q-6 0 -14.5 -4t-10.5 -9l-179 -247l-36 52q31 19 59 41.5t49 49.5 q3 3 -2 3q-38 0 -75 -9.5t-73 -20.5l-88 130q-2 5 -10.5 9.5t-13.5 4.5h-188q-20 0 -28 -15t3 -32l97 -144q-23 -2 -46 -3l-49 -2q-2 0 -2 -2t2 -2l50 2q24 1 48 3l51 -76h-73q-12 0 -21 -9t-9 -22v-37q-49 -17 -92.5 -30t-85.5 -27q-54 -18 -108.5 -39.5t-118.5 -54.5 q-2 -1 -1.5 -2.5t2.5 -1.5q54 0 103.5 3.5t97.5 8.5l96 11q49 6 101 10l11 1q-5 -8 -5 -17v-101q0 -13 9 -22t21 -9h25q-11 -13 -19 -26t-13 -27q-26 -25 -46 -54.5t-27 -71.5q0 -2 2 -2q9 -2 17 -5t18 -3q28 0 51 7t49 12q58 10 123 15zM317 21q1 -4 7 -12l-26 -14l-23 -12 l7 19q4 9 9 18q7 0 13 0.5t13 0.5z" />
<glyph unicode="&#xa6;" horiz-adv-x="199" d="M22 483q0 -13 7 -21.5t17 -8.5h108q9 0 16 8.5t7 21.5v272q0 12 -7.5 21t-16.5 9h-108q-10 0 -16.5 -9t-6.5 -21v-272zM22 18q0 -12 7 -21t17 -9h108q9 0 16 9t7 21v271q0 13 -7.5 22t-16.5 9h-108q-10 0 -16.5 -9t-6.5 -22v-271z" />
<glyph unicode="&#xa7;" horiz-adv-x="507" d="M296 553l-18 18v-1q-17 18 -28.5 33t-11.5 26q0 4 7 8q11 8 16 8q12 0 24 -6t25 -21l-3 -9q-4 -14 -6.5 -28t-4.5 -28zM260 310q-17 18 -32.5 32.5t-28.5 28.5q-24 26 -24 47q0 6 4.5 9.5t10.5 4.5q5 -2 10.5 -6.5t12.5 -11.5h-1q5 -2 7.5 -5.5t5.5 -6.5v2l15 -16l15 -15 l9 -9q4 -4 8 -9q-2 -11 -5.5 -22.5t-6.5 -22.5zM216 131l13 -13v1q17 -18 29 -33t12 -26q0 -1 -6 -7q-11 -8 -18 -8q-10 0 -19.5 3.5t-20.5 13.5q2 17 4.5 34.5t5.5 34.5zM276 351q25 -26 41 -45t16 -36q0 -6 -4.5 -9.5t-9.5 -3.5t-11.5 5t-13.5 13v-1q-4 4 -7 7.5t-6 5.5 l-14 15l-4 4q4 11 7 22zM363 485l-63 64q2 15 4.5 29.5t6.5 28.5l2 8q3 -5 6.5 -9.5t7.5 -10.5q7 -11 18.5 -13.5t22.5 5.5l15 12q-6 -29 -11 -57t-9 -57zM84 570q6 -18 18 -36q-30 -15 -46 -34l4 10l4 10l10 24zM196 826q1 2 -0.5 3t-3.5 -1q-10 -14 -18.5 -29t-16.5 -31 q-12 -7 -27 -20h2q-56 -46 -56 -121q0 -26 6 -50q-5 -14 -11 -28l-11 -27q-4 -9 -7 -16.5t-5 -15.5q-2 -2 -3 -4l-2 -4q-21 -39 -21 -72q0 -31 15 -70t43 -71l-24 -85q-11 -42 -28 -84q-4 -9 -11 -33l-13 -49l-12 -45l-4 -14l-1 -4l-1 -1q0 -1 1 -1h1l1 -1q1 -1 1 1v1l2 4 l4 14l12 44l13 49q7 24 11 33q17 42 28 83.5t24 84.5q8 -9 17 -17l-3 1l114 -115q-3 -17 -5.5 -34.5t-4.5 -34.5q-11 11 -21 28q-7 11 -18.5 13.5t-22.5 -5.5l-75 -55q-9 -7 -11.5 -19t4.5 -23q23 -40 77 -74q26 -17 56.5 -24.5t62.5 -7.5q33 0 61 8t51 26l-1 -10 q-2 -13 -3 -25t1 -25q0 -2 2 -2t2 2q-2 13 -1 24.5t3 24.5l2 14q2 2 3.5 3t3.5 3h-2q56 46 56 120q0 51 -27 94q21 10 34 20q2 -18 3.5 -35.5t3.5 -34.5q1 -8 1.5 -18.5t1.5 -21.5t3 -21.5t5 -16.5q2 -2 3.5 -1t0.5 3q-3 6 -5 16t-3 21t-1.5 21.5t-1.5 17.5l-4 36l-4 37 q15 14 22 27q21 39 21 73q0 28 -12 62.5t-35 64.5q2 29 2.5 57t-4.5 54q-1 2 -3 2q-1 0 -1 -2q5 -25 4.5 -52t-2.5 -54q-6 8 -13 15t-15 14l3 -1l-42 43q8 60 21 119v1l54 41q8 8 9.5 19.5t-3.5 21.5t-12 18.5t-15 16.5l4 20l4 22q0 2 -2 2t-2 -2l-4 -20q-1 -9 -3 -18 q-9 9 -20 17.5t-23 16.5q12 21 25 41l29 42q1 2 -0.5 3t-3.5 -1l-28 -42q-14 -20 -26 -41q-30 20 -64 27q5 11 10.5 22t10.5 22q1 2 -1 3t-3 -1l-21 -45q-12 2 -24.5 3.5t-25.5 1.5q-49 0 -89 -20q7 14 15 27.5t17 26.5zM126 826q1 2 -0.5 3t-3.5 -1q-15 -20 -30 -44 t-27 -50.5t-19 -55t-7 -56.5q0 -2 2 -2t2 2q0 27 7 55t19 54.5t27 50.5t30 44z" />
<glyph unicode="&#xa8;" horiz-adv-x="552" d="M343 842q-12 0 -21 -7t-9 -17v-128q0 -10 9.5 -17t20.5 -7h158q12 0 20.5 7t8.5 17v128q0 10 -9 17t-21 7h-157zM51 842q-12 0 -20.5 -7t-8.5 -17v-128q0 -10 9 -17t21 -7h157q12 0 20.5 7t8.5 17v128q0 10 -9 17t-21 7h-157z" />
<glyph unicode="&#xa9;" horiz-adv-x="800" d="M400 810q-173 0 -296 -123q-123 -122 -123 -295t123 -296q124 -122 297 -122q172 0 295 123q123 121 123 295q0 173 -123 296q-124 122 -297 122h1zM401 700q126 0 217 -91q90 -92 90 -217t-91 -218q-89 -90 -218 -90q-127 0 -217 91q-90 90 -90 217q0 125 91 218 q88 90 218 90zM607 465q-4 85 -61 126q-57 40 -137 40q-103 0 -161 -66q-59 -67 -59 -169q0 -107 66 -171q65 -65 164 -65q67 0 126 43t62 126h-93q-3 -36 -30 -56q-26 -19 -68 -19q-53 0 -82 41t-29 102q0 59 29 102q27 41 80 41q52 0 73 -22q22 -22 28 -53h92zM419 713 q0 2 -2 2q-1 0 -2 -2q-6 -35 -18 -68t-26 -65l-26 -65q-13 -33 -22 -67q-8 -31 -13 -54t-10 -55q-9 -55 -15 -100.5t-8.5 -89t-3 -89.5t0.5 -101q0 -2 2 -2t2 2q-1 55 -0.5 101t3 89.5t8.5 89t15 100.5q5 32 10 55t13 54q8 34 21 66l26 65l26 66q13 33 19 68zM577 750 q1 2 -0.5 3t-3.5 -1l-25 -38l-22 -35l-22 -34q-11 -17 -22 -36l-59 -104l-49 -93l-47 -95q-23 -49 -48 -109q-11 -26 -18 -47l-16 -47l-19 -54l-19 -53l-33 -92q-15 -43 -27 -91q-1 -2 1 -2t3 2q12 47 27 90l33 91l19 53l19 54l16 47q7 21 18 47q25 60 47.5 109t46 95 l49.5 93l60 104l22 36l22 34l22 35zM549 775q0 2 -2 2t-2 -2q-4 -28 -14.5 -58t-23.5 -59l-26 -58q-13 -28 -22 -54q-20 -56 -35.5 -110t-29.5 -109l-26 -112l-29 -118l-19 -76l-23 -89q-12 -45 -26 -89.5t-28 -79.5q-1 -2 1 -3t3 1q14 35 28 79.5t26 90.5l23 89l19 77 l28 116l27 112q14 55 29.5 109t35.5 110q9 26 22 54l26 58q13 30 23 60t15 59zM704 677q1 2 -1 3t-3 -1l-19 -41l-19 -37l-18 -39l-19 -42l-47 -109l-44 -96l-47 -94l-56 -105q-16 -30 -38 -64l-45 -69q-23 -35 -44.5 -71.5t-36.5 -71.5q-1 -2 1 -3t3 1q15 35 36.5 71.5 t44.5 71.5l44 69q22 34 39 64l55 105l47 94q23 47 44 96l48 109l19 42l18 39l18 37q10 19 20 41zM557 565q1 2 -0.5 3t-3.5 -1q-20 -24 -35 -46l-28 -45q-14 -23 -26 -46l-26 -49l-87 -168q-42 -81 -82 -173q-19 -45 -34 -94t-41 -90q-1 -2 0.5 -3t3.5 1q13 20 23 43t18 47 l16 48q8 24 18 46q40 92 82 173l87 168l26 49q11 23 25 46t29 45t35 46z" />
<glyph unicode="&#xaa;" horiz-adv-x="461" d="M135 596l-11 -3l11 4v-1zM248 604q2 0 2 -2h-3zM217 479q-5 -1 -9 -1h-8q-21 0 -21 3q0 11 44 14zM184 369q28 2 54.5 9.5t49.5 18.5q2 -2 3.5 -3t3.5 -3q-26 -42 -61 -80t-82 -80q5 35 13 69.5t19 68.5zM227 496q7 0 14 0.5t15 0.5v-7q-7 -3 -15.5 -5.5t-19.5 -4.5z M63 396q19 -14 48 -22q-20 -35 -43 -68.5t-50 -61.5l20 76q11 39 25 76zM140 599q17 5 37 10t40 5q18 0 28 -7l-2 -5l-31 2q-20 1 -38 -1.5t-35 -5.5zM190 805q0 2 -2 2t-2 -2q-2 -20 -5 -40t-8 -40q-31 -5 -56 -15q-23 -9 -37.5 -15.5t-22.5 -12.5q-8 -5 -10.5 -15.5 t1.5 -18.5l24 -49q4 -8 11.5 -12t15.5 -4q-37 -15 -57 -41t-20 -61q0 -53 37 -82q-14 -40 -25 -81l-22 -80q-1 -2 0.5 -3t2.5 1q29 29 53.5 64t46.5 73q25 -5 48 -5q11 0 16 1q-10 -35 -18.5 -71t-13.5 -72q0 -2 1 -2.5t2 1.5q49 43 85 82t64 82q12 -9 26.5 -14.5t31.5 -6.5 q-1 -15 -1 -31v-30q0 -17 1 -35.5t6 -35.5q1 -2 3 -1t1 3q-5 14 -6 31.5t-1 37.5v31q0 15 1 31l66 50q8 6 10.5 14.5t0 16t-9 13.5t-16.5 6v111q0 59 -23.5 92.5t-74.5 47.5q1 2 -0.5 3t-3.5 -1l-1 -1q-37 8 -84 8q-24 0 -48 -3q5 20 8 39.5t5 39.5z" />
<glyph unicode="&#xab;" horiz-adv-x="684" d="M557 358l2 2l17 -1q6 -1 11 -1q6 0 11 -1q-11 0 -21 0.5t-20 0.5zM248 608l33 -10l33 -8q-9 2 -18 3t-19 3l-18 6zM476 617q-9 4 -17 11h18q10 0 20 -1zM349 558l-35 16l-35 18l5 -2l44 -12l44 -10l-11 -5l-11 -4zM569 193l-29 35l30 -10q14 -5 25 -16q-12 -6 -26 -9z M318 149l-7 9q21 0 42.5 0.5t42.5 0.5l4 -6h-2q-10 -1 -22 -1q-11 0 -25 -1q-9 -1 -17 -1t-16 -1zM-32 101q49 -2 97 -3.5t96 -5.5l1 -1q-12 -1 -22 -1h-11q-41 0 -81 2t-80 9zM517 308l6 9l53 -3q44 -2 76.5 -6.5t68.5 -8.5h-3q-51 0 -100.5 2.5t-100.5 6.5zM318 327l16 -1 l-1 -1zM280 369l10 13q14 -1 27.5 -1.5t27.5 -2.5q-17 -2 -33 -4.5t-32 -4.5zM293 325l15 -8l14 -6l-8 -10q-5 -8 -5 -19q0 -10 5 -18l18 -23q-29 8 -59.5 17.5t-59.5 20.5l-3 4l37 46h2q5 0 10 -0.5t10 -1.5zM250 333l9 10q5 -3 10 -5.5t10 -5.5zM336 235l35 -45 q-12 1 -23.5 1.5t-21.5 0.5h-43l-65 81q29 -11 60 -21zM617 132l-23 29q29 -8 58 -15l58 -14h-93zM396 92l-21 5l-20 6l-14 17q18 5 37 6.5t42 1.5l34 -44l-28 4zM360 96l-1 2l8 -3h1zM-60 106l-33 9q16 -1 29 -2.5t32 -3.5q42 -3 89.5 -4t96.5 -3l4 -5q-54 4 -108.5 5.5 t-109.5 3.5zM130 133l21 -27q-48 2 -94.5 3.5t-88.5 3.5q-23 2 -38 4t-38 2q-2 0 -2.5 -1.5t1.5 -2.5q7 -2 13.5 -3.5t12.5 -3.5q-14 1 -28 1.5t-28 2.5q31 9 64.5 13t68 5.5t68.5 1.5q35 0 68 1zM403 150l14 -18q-22 -1 -41 -2.5t-38 -5.5l-17 21q7 1 14 1q8 0 16 1 q15 1 26 1q12 0 21 1zM93 181l3 -5q-14 3 -31 3q3 3 6 3q2 0 7 -1t15 0zM375 186l18 -23q-21 -1 -43 -1h-42l-21 26h39q11 0 23 -0.5t26 -1.5zM305 324l25 -3l-5 -6q-5 2 -10 4.5t-10 4.5zM261 347l15 18q20 2 41.5 5t44.5 7l10 -1l-35 -46q-12 1 -24 1t-25 1q-14 6 -27 15z M316 541q13 -2 25 -2.5t24 -1.5q-14 -2 -26.5 -4.5t-24.5 -5.5h-28q8 4 15.5 7t14.5 7zM235 610l-13 4l9 -2zM293 386l7 9q20 -3 39.5 -4.5t42.5 -2.5l-4 -4l-16 -3q-17 2 -34 3zM133 436l-33 -42h-39q20 14 37 23zM390 535l39 -18l21 -9l19 -8l-84 -108q-23 1 -42.5 2.5 t-39.5 4.5l65 80q12 15 5 31.5t-26 16.5h-16q14 3 28.5 5t30.5 3zM390 539q-8 4 -17 8t-19 9q6 2 12 5t13 6q51 -12 102 -22t102 -18h-80q-5 0 -12 -3.5t-10 -7.5l-10 -13q-9 5 -19 9t-21 9q-2 1 -10.5 4.5t-21.5 9.5q24 -1 48.5 -1.5t49.5 -0.5q2 0 2 2t-2 2q-15 1 -36.5 2 t-38.5 1h-15q-7 0 -15 -1h-2zM324 544l13 5l11 5q8 -4 15.5 -7t15.5 -7q-14 1 -27.5 1.5t-27.5 2.5zM265 594l17 -9q8 -3 11 -5l26 -13l24 -11q-6 -2 -13 -5t-15 -6q-23 2 -46 4.5t-48 6.5q-35 5 -62.5 14.5t-52.5 26.5q16 4 31 4.5t32 0.5q25 0 49 -2t47 -6zM388 575l-9 -4 q-15 4 -30 7t-30 7q17 -2 34.5 -5t34.5 -5zM404 578l35 17l37 17q39 -23 81 -42.5t82 -43.5q-2 1 -6 1h-23q-57 8 -113 19l-112 23l11 5q28 -3 59 -3q2 0 2 2t-2 2q-27 0 -51 3zM233 616q-15 8 -24 14.5t-9 9.5q0 2 10 7l12 6q17 4 30.5 5t26.5 0q14 0 29 -1t35 -1t44.5 1.5 t49.5 1.5t48.5 -3.5t41.5 -13.5l-22 -11q-14 1 -27 1h-26q-5 0 -1 -4l10 -7l11 -6l-38 -19q-19 -9 -38 -17q-42 5 -82 15zM186 627q-31 11 -62 20t-64 13q-2 0 -2.5 -1.5t1.5 -2.5q33 -11 60 -17.5t64 -14.5l2 -1q17 -5 33 -11.5t33 -11.5q-39 6 -82 6q-19 0 -34.5 -0.5 t-34.5 -5.5q-3 -1 0 -4q26 -19 55 -29t66 -15l43 -6q22 -3 44 -5q-15 -6 -31 -14h-60q-5 0 -12 -3.5t-10 -7.5l-56 -72l-5 -3q-15 5 -31 11l-33 12q-26 9 -44.5 18t-43.5 20q-2 1 -3 -1t1 -3q25 -11 43.5 -20t44.5 -18l32 -11l30 -10l-37 -21q-17 -9 -40 -24q-4 -4 1 -4h43 l-26 -34h-55q-2 0 -2 -2t2 -2q14 0 26.5 -0.5t24.5 -1.5l-39 -49q-5 -8 -5 -19q0 -10 5 -18l62 -79q-8 0 -12.5 0.5t-6.5 0.5q-5 0 -8 -4l-4 -4q-2 -1 -1.5 -2t2.5 -1q22 0 40 -3l27 -35q-69 -2 -140.5 -3t-136.5 -21q-2 -1 -1.5 -2.5t2.5 -1.5q22 -2 44 -3.5t45 -3.5 q47 -10 93 -13t96 -3h12q11 0 24 1l30 -38q3 -3 10 -6.5t12 -3.5h130q19 0 26 16t-5 31l-4 6l16 -2l17 -2q16 -4 32 -7.5t32 -6.5l20 -25q3 -3 10 -6.5t12 -3.5h130q19 0 26 16t-5 31l-34 42h108q2 0 2 1q0 2 -2 3l-69 16q-35 9 -70 19l-18 22q15 4 28 11q1 1 0 3 q-13 13 -29.5 19t-33.5 11l-40 50l17 21q47 -5 96 -7t109 -2h48q2 0 2 2t-2 2q-27 2 -49.5 4.5t-44.5 5.5t-45 5t-51 4l-50 3l28 33q29 -1 58.5 -1.5t58.5 -0.5q2 0 2 2t-2 2q-28 0 -47.5 2.5t-47.5 4.5l-14 1l92 115q8 9 7.5 19.5t-6.5 18.5q5 0 1 4q-42 26 -87.5 46.5 t-88.5 46.5l25 13q28 -1 52 -2t37 -1q14 0 17.5 1t15.5 6q2 1 1 3t-3 1q-11 -5 -14.5 -6t-16.5 -1q-12 0 -33.5 1t-47.5 2l19 9q4 2 0 4q-18 10 -42.5 14t-50 4.5t-50.5 -1t-46 -1.5q-20 0 -35 1t-29 1q-14 1 -27.5 0t-30.5 -5h-1q-3 -2 -13.5 -7t-10.5 -10q0 -4 6 -9 t16 -12l-16 4zM87 652q17 -3 32.5 -7t30.5 -9q-16 4 -31.5 7.5t-31.5 8.5z" />
<glyph unicode="&#xac;" horiz-adv-x="620" d="M263 485h-26l26 23q12 12 26 22l-13 -23q-6 -11 -13 -22zM598 401v19l16 27q7 14 17 27q-10 -17 -17 -36zM399 195v-65l-39 -49l-44 -53q16 42 37 80l41 77zM172 293h162l-69 -70l-69 -69q-29 -29 -54.5 -63t-59.5 -57q22 54 37 99l29 89q11 37 24 71zM28 306 q10 -13 25 -13h14q-11 -14 -23 -26t-26 -20q2 15 4.5 29.5t5.5 29.5zM104 561q1 2 -1 3t-3 -1q-5 -20 -11.5 -39t-12.5 -39h-24q-12 0 -21 -8.5t-9 -20.5v-134q0 -6 3 -12q-4 -17 -6.5 -33.5t-4.5 -33.5q0 -4 3 -2q15 8 28.5 22t26.5 30h96q-14 -38 -24 -70l-30 -91 q-15 -46 -38 -102q-1 -2 0 -3t3 0q18 11 33.5 26.5t29.5 32.5l28 34q13 17 28 32l71 70l71 71h59v-89l-9 -17l-44 -83q-22 -40 -38 -85q-1 -2 0.5 -3t3.5 1l46 55l41 52v-26q0 -11 9 -19.5t21 -8.5h55q-15 -47 -27.5 -94.5t-22.5 -101.5q0 -2 1 -2q2 0 3 2q10 54 22.5 101.5 t27.5 94.5h81q12 0 20.5 8.5t8.5 19.5v292q20 54 46 100q1 2 -0.5 3t-2.5 -1q-14 -15 -24.5 -31t-18.5 -32v27q0 12 -9 20.5t-21 8.5h-20l3 5q1 2 0 3t-3 0l-6 -4l-6 -4h-268l14 24l15 27q1 2 0 3t-3 0q-33 -24 -63 -54h-151l13 38q6 19 11 38z" />
<glyph unicode="&#xad;" horiz-adv-x="402" d="M386 384q1 2 -0.5 3t-3.5 -1l-7 -9q-8 10 -23 10h-25q5 8 8.5 15t8.5 15q1 2 -1 3t-3 -1q-5 -8 -9 -16t-9 -16h-62l10 16l9 17q1 2 -1 3t-3 -1q-8 -17 -20 -35h-85l28 29q13 14 26 31q1 2 -0.5 3t-3.5 -1q-13 -17 -27 -32l-29 -30h-72l28 39l26 35q1 2 -0.5 3t-3.5 -1 q-12 -18 -26 -37l-29 -39h-37q-11 0 -19.5 -6.5t-8.5 -15.5v-98q0 -3 1 -5q-2 -6 -2 -8t1 -2q2 0 3 2v2q9 -12 25 -12h25q-5 -11 -11 -23t-14 -25q-1 -2 0.5 -3t3.5 1q8 14 14 26l12 24h70q-11 -17 -21 -34.5t-18 -37.5q-1 -2 1 -3t3 1q8 21 18.5 39t21.5 35h88 q-3 -6 -5.5 -11.5t-5.5 -11.5q-1 -2 1 -3t3 1q2 7 5 13l6 12h47l-1 -2q-5 -12 -10 -22.5t-13 -20.5q-1 -2 0.5 -3t3.5 1q8 10 13 21l10 22l1 4h54q12 0 20 6.5t8 16.5v98q0 3 -2 9z" />
<glyph unicode="&#xae;" horiz-adv-x="800" d="M114 277q-22 55 -22 115q0 120 81 207l-12 -33l-11 -34q-14 -45 -23.5 -87t-11.5 -91q-1 -20 -1 -39v-38zM191 166l-9 9q-41 41 -64 93v42q0 22 1 44q2 49 11.5 90t23.5 86l12 39l14 38l3 3q56 56 126 77l-12 -22q-6 -12 -11 -25l-9 -24h-42v-149q-9 -42 -16 -83t-13 -83 q-2 -14 -2 -24t-2 -24q-2 -19 -5.5 -31.5t-4.5 -31.5q0 -7 -0.5 -12.5t-0.5 -11.5zM406 616h-9h-115l4 12l4 10q5 14 11 27l13 24q42 11 87 11q9 0 18 -0.5t17 -1.5l-14 -36l-14 -39zM360 432h-25v110h50q-7 -27 -13 -54zM335 312v46h10q-2 -11 -4.5 -23t-5.5 -23zM295 102 q-54 19 -99 60v28q1 19 4.5 31.5t5.5 31.5q2 14 2 24t2 24q5 36 11.5 73t14.5 74v-278h67q-1 -5 -1.5 -9.5t-1.5 -9.5q-2 -11 -2.5 -23t-2.5 -26zM389 542h32q31 0 48 -12q17 -11 17 -42q0 -26 -15 -41t-55 -15h-52l12 56q6 27 13 54zM509 601q-38 13 -99 15l2 5q7 21 14 39 l14 38q34 -4 69 -17q2 -20 1 -40t-1 -40zM496 306l-35 58q23 0 39 4q-2 -16 -2.5 -31t-1.5 -31zM499 100q-45 -16 -100 -16t-100 16l2 27q1 13 3 24q1 5 1.5 9.5t1.5 9.5h29v123l6 32q3 16 7 33h29l103 -188h13q0 -7 0.5 -13t0.5 -13q1 -11 1.5 -22t2.5 -22zM618 176v-2 q-50 -50 -115 -73q-2 11 -3 21.5t-1 21.5q0 7 -0.5 13.5t-0.5 12.5h81l-79 130q1 17 1.5 34t2.5 34q32 8 51 28q31 31 31 94q0 57 -42 92q-13 12 -31 17q0 20 1 40t-1 40q54 -20 100 -65q-2 -54 -6.5 -106.5t-4.5 -106.5q0 -24 2 -44l4 -39l5 -39q3 -19 4 -40q1 -15 1 -31 v-32zM622 36q20 13 38.5 28t35.5 33q123 121 123 295q0 173 -123 296q-124 122 -297 122q-172 0 -295 -123q-123 -122 -123 -295t123 -296q77 -76 172 -104l-8 -23q-4 -11 -10 -19q-1 -2 0.5 -3t3.5 1q10 18 18 42q55 -16 121 -16q46 0 90 9q-1 -2 -1.5 -2.5t-1.5 -2.5 t0.5 -3t3.5 1l2 4l2 4q32 8 62.5 20t58.5 30v-64q0 -2 2 -2t2 2v32q0 17 1 34zM617 610q91 -91 91 -218q0 -123 -86 -212v30q0 15 -1 29q-1 21 -3 41l-5 38q-3 19 -5 39t-2 44q0 53 4 104.5t7 104.5z" />
<glyph unicode="&#xaf;" horiz-adv-x="651" d="M614 383q0 40 -9.5 74.5t-26.5 65.5l42 42q9 9 9 21t-9 21l-70 70q-9 9 -21 8.5t-20 -8.5l-43 -42q-60 36 -140 36q-39 0 -74 -9.5t-65 -26.5l-44 43q-9 8 -21 8q-11 0 -20 -9l-71 -70q-9 -8 -9 -21t9 -21l43 -42q-35 -60 -35 -140q0 -79 35 -139l-43 -42q-9 -8 -8.5 -21 t8.5 -21l72 -71q8 -8 20 -8.5t21 8.5l42 42q58 -35 140 -35q80 0 140 36l43 -43q8 -8 20 -8.5t21 8.5l70 71q8 9 8.5 20.5t-8.5 20.5l-42 42q36 60 36 140zM326 494q47 0 79 -32q32 -34 32 -79q0 -46 -32 -78q-33 -33 -79 -33q-45 0 -78 33q-33 31 -33 78q0 46 33 79 q34 32 78 32z" />
<glyph unicode="&#xb0;" horiz-adv-x="359" d="M186 621q-2 -1 -7 -1q-17 0 -28 11t-11 28q0 16 11 27.5t28 11.5h1q10 0 21 -7l-8 -35q-4 -18 -7 -35zM205 688q13 -11 13 -29q0 -14 -8 -24t-20 -13l2 6q2 16 5.5 31t7.5 29zM262 845q-1 2 -3 2t-1 -2q3 -13 4 -26.5t1 -27.5q-15 11 -35 17q3 24 3 47q0 2 -2 2t-2 -2 q0 -23 -3 -45q-21 6 -44 6h-1q-6 0 -11.5 -0.5t-10.5 -0.5l24 21q2 2 1 3.5t-3 0.5l-15 -13l-14 -13q-47 -9 -82 -44q-46 -46 -46 -111q0 -54 34 -97q-4 -18 -9.5 -36t-14.5 -36q-1 -2 1 -3t3 1q8 17 13.5 35t9.5 36q2 -3 5 -6l5 -5q43 -43 101 -46q-3 -14 -7 -24.5 t-8 -14.5q-2 -1 -1 -2.5t3 0.5q5 4 9.5 15.5t7.5 25.5h6q52 -1 92 30q4 -19 8.5 -36.5t9.5 -34.5q1 -2 3 -1t1 3q-5 16 -10 34l-9 38q4 3 7.5 6t7.5 7q47 46 47 111q0 63 -48 111q-11 11 -22 18q0 15 -1 29t-4 28z" />
<glyph unicode="&#xb1;" horiz-adv-x="620" d="M213 490v-21h-23zM302 573h-1l4 5zM214 207v-8v-4h-10l6 7zM437 195h-4l10 29l4 9q-2 -9 -5 -18.5t-5 -19.5zM598 96v21l15 15q7 7 15 14q-8 -12 -15 -24.5t-15 -25.5zM391 0h108q-27 -35 -56.5 -66t-64.5 -53q0 30 3.5 60t9.5 59zM428 195h-20v4v74h50l-18 -48zM260 0 h72l-28 -46l-31 -52q-6 -11 -10.5 -21t-16.5 -17q2 38 5.5 71.5t8.5 64.5zM154 273h60v-60l-8 -9l-7 -9h-79q8 20 17 39zM22 385v-57q-8 -7 -17 -13.5t-18 -14.5q3 25 14 45zM199 700q1 2 -1 3t-3 -1q-13 -40 -35 -78.5t-47 -76.5l-25 -39l-25 -39h-11q-12 0 -21 -8.5 t-9 -21.5v-45q-12 -25 -24.5 -46.5t-14.5 -51.5q0 -5 3 -2q9 8 18 14.5t18 14.5v-20q0 -12 9.5 -21t21.5 -9h97l-18 -39l-16 -39h-64q-12 0 -21 -8.5t-9 -20.5l1 -136q0 -13 9 -21.5t21 -8.5h203q-6 -32 -9 -65.5t-5 -73.5q0 -4 3 -2q16 8 20 17.5t12 23.5l31 53l28 47h51 q-6 -30 -9.5 -60.5t-3.5 -62.5q0 -4 3 -2q38 23 68 56t59 69h46q-12 -29 -22 -57.5t-17 -57.5q-1 -2 1 -2t3 2q7 28 17 57t23 58h14q12 0 20.5 8.5t8.5 21.5v58q20 36 41 67q1 2 0 3t-3 0q-10 -8 -19.5 -17t-18.5 -19v44q0 12 -9 20.5t-21 8.5h-127q5 20 10.5 39.5 t12.5 38.5h105q12 0 20.5 9t8.5 21v136q0 13 -9 21.5t-21 8.5h-146l6 10q4 6 8 11q1 2 -0.5 3t-3.5 -1l-16 -23h-8v74q0 13 -8.5 21.5t-20.5 8.5h-72q5 8 10.5 15.5t12.5 15.5q1 2 -0.5 3t-3.5 -1l-15 -16l-16 -17h-53q-12 0 -20.5 -8.5t-8.5 -21.5v-47q-8 -7 -14.5 -13.5 t-14.5 -13.5h-116l36 56l37 57q17 28 32.5 58t25.5 60z" />
<glyph unicode="&#xb2;" horiz-adv-x="455" d="M22 308q0 -12 8.5 -20.5t19.5 -8.5h355q11 0 19.5 8.5t8.5 20.5v91q0 12 -8.5 20.5t-19.5 8.5h-99l6 5q15 12 32 30l37 41q49 54 49 114q0 66 -51 103t-138 37q-31 0 -60 -5.5t-58 -16.5q-57 -22 -76 -39q-2 -3 -5.5 -10t-3.5 -11v-106q0 -11 5.5 -18t13 -10t16.5 -0.5 t15 10.5q7 8 19 18t31 21q38 22 69 22q38 0 38 -27q0 -12 -13 -27t-28 -28h1l-173 -148q-3 -2 -6.5 -9.5t-3.5 -12.5v-53z" />
<glyph unicode="&#xb3;" horiz-adv-x="463" d="M44 634q0 -11 8.5 -20t20.5 -9h110l-29 -27q-3 -2 -6.5 -9.5t-3.5 -11.5v-64q0 -12 8.5 -20.5t20.5 -8.5q32 -1 52.5 -3.5t28.5 -8.5q10 -8 10 -16t-9.5 -11.5t-24.5 -3.5q-45 0 -79 15h2q-21 9 -33 15l-20 10q-11 6 -22.5 2.5t-17.5 -15.5l-37 -81q-3 -8 -1 -18.5 t10 -16.5q7 -7 25 -15.5t48 -21.5q28 -12 60 -17.5t66 -5.5q102 0 155.5 39t53.5 120q0 52 -28 86.5t-81 49.5l71 62q3 3 6.5 10.5t3.5 11.5v70q0 11 -9 20t-21 9h-310q-12 0 -20.5 -9t-8.5 -20z" />
<glyph unicode="&#xb4;" horiz-adv-x="410" d="M27 568q-9 -14 -1.5 -27t25.5 -13h123q4 0 11.5 3t10.5 6l184 194q13 14 5.5 28.5t-26.5 14.5h-182q-6 0 -13.5 -3.5t-10.5 -8.5z" />
<glyph unicode="&#xb5;" horiz-adv-x="638" d="M253 452v81q7 7 13 14l12 14q17 18 32 37t38 32l-49 -95zM260 196q-7 15 -7 46v29l23 20l24 22q23 20 43 41l42 41v-17q-19 -27 -36 -55t-37 -54l-27 -38zM254 -10h1h-1zM60 -137h55l-47 -41q-24 -20 -50 -37q13 22 21 38zM385 371v-165q-21 -10 -46 -20h2 q-33 -12 -50 -12q-20 0 -29 18l26 36l28 39q20 27 35.5 52.5t32.5 49.5zM22 109v-16q-8 -4 -12 -7q2 6 5.5 11.5t6.5 11.5zM253 539v17q0 13 -9 21.5t-21 8.5h-171q-12 0 -21 -8.5t-9 -21.5v-440q-5 -8 -9.5 -16.5t-9.5 -16.5q-1 -2 0 -3t3 0q4 2 8 4.5t8 4.5v-195 q0 -13 9.5 -22t21.5 -9h3l-21 -41q-9 -17 -25 -42q-1 -2 0 -3t3 0q30 20 56.5 41.5t51.5 44.5h103q12 0 21 9t9 22v90l8 7q18 2 35 6l33 10q-14 -30 -22.5 -62t-15 -64.5t-12 -65.5t-12.5 -65q-3 -13 -5 -22.5t-4.5 -18.5t-5.5 -18l-7 -21q-1 -2 0.5 -3t2.5 1 q46 48 89.5 107t79.5 119q-15 -38 -23.5 -79t-6.5 -80q0 -2 2 -2t2 2q-4 57 14.5 114.5t46.5 105.5l-4 2q-18 -35 -41 -72t-48 -73t-52.5 -70.5t-54.5 -64.5q6 20 10 34.5t9 38.5q13 64 24.5 131t38.5 128q20 7 39.5 17t38.5 23l15 -32q2 -7 10.5 -12t16.5 -5h132 q12 0 20.5 9t8.5 21v526q0 13 -9 21.5t-21 8.5h-171q-12 0 -21 -8.5t-9 -21.5v-155l-43 -43q-21 -22 -44 -43l-45 -39v168q25 42 49 87l52 102q1 2 0 3t-3 0q-26 -12 -41 -32.5t-34 -40.5l-11 -12z" />
<glyph unicode="&#xb6;" horiz-adv-x="598" d="M388 524v124h29v-141q-8 4 -15 8zM388 312v208l14 -9l15 -9v-214l-8 7q-3 4 -8 8q-3 2 -6 4.5t-7 4.5zM388 79v229q3 -2 5.5 -4.5t5.5 -4.5q5 -4 9 -8l9 -9v-219q-15 9 -29 16zM158 24q-2 2 -3.5 1t-0.5 -3q16 -19 35 -33.5t39 -26.5v-33q0 -13 8.5 -21.5t20.5 -8.5h89 q12 -7 28 -14t24 -17q2 -2 3.5 -1t0.5 3q-8 10 -22 16l-25 13h3q13 0 21.5 8.5t8.5 21.5v145l14 -8l15 -7v-130q0 -13 8.5 -21.5t20.5 -8.5h101q12 0 20.5 8.5t8.5 21.5v453q5 -4 10.5 -7.5t10.5 -8.5q2 -1 3 0.5t-1 3.5q-12 7 -23 17v374q0 13 -9 22t-21 9h-290 q-76 0 -131 -37l-13 12l-15 13q-1 2 -2.5 0.5t0.5 -2.5q7 -8 13.5 -14t12.5 -11q-9 -6 -17 -13t-16 -15q-31 -32 -48 -73.5t-18 -92.5q-7 5 -13 10t-13 10q-2 1 -3 -0.5t1 -3.5l14 -10q6 -5 14 -10q0 -123 48.5 -181t157.5 -64v-157q-16 7 -37 18q-24 12 -48.5 28t-48.5 28 q-2 1 -3 -1t1 -3q24 -12 48.5 -28t48.5 -28l19 -9l20 -10v-182q-20 12 -37.5 26.5t-32.5 31.5z" />
<glyph unicode="&#xb7;" horiz-adv-x="215" d="M193 356v6q0 15 -14 22q7 5 13 10t13 10q-5 -24 -12 -48zM22 230v-14q0 -4 1 -7q-4 -5 -7 -8l-9 -9l7 19zM144 426q1 2 -0.5 3t-3.5 -1q-16 -19 -32 -41h-61q-11 0 -18 -7t-7 -18v-122q-11 -25 -21 -53q-2 -5 3 -3q12 10 21 21q7 -14 22 -14h84q-9 -23 -18.5 -45 t-18.5 -45q-1 -2 0.5 -3t3.5 1q34 39 69 67.5t77 58.5q-9 -28 -22.5 -53t-24.5 -52q-9 -24 -16 -47.5t-15 -43.5t-18.5 -35t-26.5 -23q-2 -1 -1 -3t3 -1q17 9 28 24.5t19 35.5t15 43.5t16 47.5q6 17 12.5 29.5t12.5 25.5q7 13 13 26t11 30q2 5 -3 3q-41 -29 -76 -57t-69 -65 l16 41l18 40h33q10 0 17 7t7 18v126q5 17 9 34l8 33q0 3 -3 2q-8 -7 -16 -13l-16 -12q-2 1 -7 1h-55l15 21z" />
<glyph unicode="&#x2219;" horiz-adv-x="215" d="M193 356v6q0 15 -14 22q7 5 13 10t13 10q-5 -24 -12 -48zM22 230v-14q0 -4 1 -7q-4 -5 -7 -8l-9 -9l7 19zM144 426q1 2 -0.5 3t-3.5 -1q-16 -19 -32 -41h-61q-11 0 -18 -7t-7 -18v-122q-11 -25 -21 -53q-2 -5 3 -3q12 10 21 21q7 -14 22 -14h84q-9 -23 -18.5 -45 t-18.5 -45q-1 -2 0.5 -3t3.5 1q34 39 69 67.5t77 58.5q-9 -28 -22.5 -53t-24.5 -52q-9 -24 -16 -47.5t-15 -43.5t-18.5 -35t-26.5 -23q-2 -1 -1 -3t3 -1q17 9 28 24.5t19 35.5t15 43.5t16 47.5q6 17 12.5 29.5t12.5 25.5q7 13 13 26t11 30q2 5 -3 3q-41 -29 -76 -57t-69 -65 l16 41l18 40h33q10 0 17 7t7 18v126q5 17 9 34l8 33q0 3 -3 2q-8 -7 -16 -13l-16 -12q-2 1 -7 1h-55l15 21z" />
<glyph unicode="&#xb8;" horiz-adv-x="441" d="M23 -353q-2 -6 -0.5 -15.5t6.5 -14.5q8 -8 26 -15.5t46 -15.5q27 -8 54 -12t53 -4q87 0 146 46q64 48 64 120q0 60 -46 101q-42 38 -103 38l30 44q10 15 2.5 29.5t-26.5 14.5h-77q-5 0 -13 -3.5t-11 -8.5l-89 -136q-5 -8 -4 -18t8 -17l30 -30q5 -5 13.5 -7.5t14.5 -0.5 q23 7 33 9.5t25 2.5q12 0 20.5 -6t8.5 -14q0 -15 -12 -24t-32 -9q-41 0 -66 9l-42 14q-11 2 -20.5 -2.5t-13.5 -14.5z" />
<glyph unicode="&#xb9;" horiz-adv-x="299" d="M251 278q11 0 18.5 8.5t7.5 20.5v412q0 12 -8 20.5t-19 8.5h-95q-14 -14 -25.5 -23.5t-21.5 -14.5l3 1q-24 -10 -67 -19q-9 -2 -15.5 -10t-6.5 -18v-90q0 -15 10.5 -23.5t24.5 -4.5l31 10q15 5 29 12v-261q0 -12 7.5 -20.5t18.5 -8.5h108z" />
<glyph unicode="&#xba;" horiz-adv-x="458" d="M173 546v2q0 31 20 46l-10 -25zM426 612q-2 6 -4 11q3 5 5.5 10t4.5 10q-2 -8 -3 -15.5t-3 -15.5zM246 368q10 1 19 1.5t17 2.5l-52 -81l-59 -93q9 29 22.5 55t25.5 53l13 32zM116 391q41 -21 94 -22q-18 -28 -38.5 -56.5t-46.5 -61.5q-15 -20 -29 -35.5t-28 -35.5 q8 63 19.5 113t28.5 98zM199 597q11 7 30 7q26 0 41 -15t15 -41t-15 -41t-41 -15q-23 0 -37.5 12t-17.5 33l12 29zM52 444q11 -16 29 -31l-25 -49l-26 -54q7 30 12 65zM98 827q0 2 -2 2t-2 -2q2 -10 3 -17t1 -17q0 -28 -4 -54t-9 -52q-30 -23 -46.5 -58.5t-16.5 -80.5 q0 -59 27 -99q-5 -42 -11.5 -82t-16.5 -74q-1 -2 1 -3t3 1l31 63l28 56q7 -5 13.5 -9t14.5 -8q-17 -49 -29 -101.5t-20 -118.5q0 -5 4 -1q16 23 30.5 39t31.5 38q26 33 46 62l40 57h14h13l-27 -60q-8 -20 -15.5 -34t-13.5 -27t-11.5 -27t-10.5 -34q-1 -2 0.5 -2.5t3.5 1.5 l64 100l56 88q88 17 125 82q-2 -35 -7.5 -71t-17.5 -73q-1 -2 1 -3t3 1q13 41 18.5 79t7.5 76q18 36 18 84q0 31 -7 55q2 10 3.5 19.5t3.5 20.5q2 8 4 14l4 13l4 10l4 12q2 5 4 11l4 12q1 2 -1 3t-3 -1q-2 -7 -4 -13t-4 -11l-4 -12l-4 -10q-9 -21 -20 -43q-20 45 -62.5 70 t-104.5 30l27 50q14 26 30 50q1 2 -0.5 3t-3.5 -1q-17 -26 -31.5 -51t-25.5 -51q-5 1 -10 1h-10q-86 0 -139 -38q5 25 8.5 50.5t3.5 51.5q0 10 -1 17t-3 17z" />
<glyph unicode="&#xbb;" horiz-adv-x="681" d="M339 225l21 26q20 -2 41 -3.5t41 -3.5l-14 -18q-23 -1 -45 -1h-44zM294 166l17 23q22 -2 42 -3.5t40 -3.5l-13 -17q-21 0 -42.5 0.5t-43.5 0.5zM499 62l6 7q21 -4 42.5 -7t42.5 -5l-45 2q-23 1 -46 3zM377 161l-43 -56l-5 1l-72 12l34 44q22 0 43.5 -0.5t42.5 -0.5z M137 219l-12 -15l-51 4l-49 4q21 2 45 4t47 3h20zM424 221l-28 -36q-20 2 -40 3.5t-42 3.5l22 29h88zM362 255l8 9q4 6 4 11q22 -2 43.5 -3.5t43.5 -3.5l-16 -20q-20 2 -41 3.5t-42 3.5zM657 265q4 8 4 14q11 -3 18 -15zM375 279v9h48h46l4 -5l-9 -11q-23 2 -44.5 3.5 t-44.5 3.5zM457 303l9 -11h-43h-49q-1 2 -1.5 4.5t-2.5 4.5l-3 3q24 0 46.5 -0.5t43.5 -0.5zM137 346l20 -26l-24 1q-26 1 -44.5 2t-44.5 2q-22 1 -41 1.5t-37 2.5q46 2 87 6t84 11zM382 399l69 -89q-23 1 -45.5 1.5t-45.5 1.5l-51 66l36 10zM405 308h-41l-1 1zM619 348 l-5 7q9 -2 17.5 -3t16.5 -3q23 -4 47.5 -6.5t45.5 -11.5q-32 1 -62 5.5t-60 11.5zM325 420q8 -1 17 -2l18 -2h-3q-2 0 -2.5 -1.5t1.5 -2.5q11 -4 19 -5l1 -1q-13 4 -25.5 7t-25.5 7zM377 402l-36 -10l-34 -10l-36 46q6 -1 12 -1.5t12 -2.5l41 -11zM537 454v1l2 -1h-2z M336 457l29 -38l-69 9l-32 9l-18 23q48 -2 90 -3zM582 454l-17 6q-8 3 -17 7q-7 2 -14 4.5t-14 4.5l-30 40q-2 4 -9.5 7.5t-12.5 3.5h-97q-7 2 -13 5t-12 5q-2 1 -3 -0.5t1 -3.5l12 -6h-16q-19 0 -26 -16.5t5 -31.5l14 -18q-22 1 -44 1.5t-46 2.5l-39 51q-2 4 -9.5 7.5 t-12.5 3.5h-128q-19 0 -26 -16.5t5 -31.5l16 -21h-4q-17 0 -29 -1t-29 -3q-2 0 -2 -2t2 -2q17 2 29 3t29 1h7l82 -104q-59 -10 -116.5 -14.5t-131.5 -4.5q-2 0 -2 -2t2 -2q42 0 78 -2.5t80 -3.5q26 -1 44.5 -2t44.5 -2l28 -1l26 -33l-47 -60h-23q-28 -1 -58 -4t-53 -5 q-2 0 -2 -2t2 -2q28 -3 57 -5.5t59 -4.5l-89 -114q-12 -15 -5 -31t26 -16h128q5 0 12.5 3.5t9.5 6.5l50 66q19 -4 37 -7l38 -6h2l-12 -16q-6 -8 -8 -18q-2 -2 0 -3q1 -11 8.5 -18.5t20.5 -7.5h35q55 -19 115 -33l119 -28q-10 -1 -25 -1t-32 -1h-63q-47 0 -87.5 1.5t-79.5 4 t-77.5 6t-80.5 8.5l-35 5l-39 4q31 1 64.5 6.5t64 16t56 27t40.5 39.5q1 2 -0.5 3t-3.5 -1q-17 -26 -46 -42.5t-63.5 -27t-71.5 -14.5t-70 -4q-2 0 -2 -2t2 -2q23 -2 52.5 -6t51.5 -6q42 -5 80.5 -8.5t77.5 -6t79.5 -4t87.5 -1.5h27q21 0 43 0.5t40.5 1t21.5 2.5q4 2 -1 4 q-57 12 -117 26.5t-116 32.5h81q5 0 12.5 3.5t9.5 6.5l6 9l108 -6q55 -3 124 -3q2 0 2 2t-2 2q-59 0 -107 4t-93 12l-20 4l146 188h13q7 0 15 -1q3 0 2 3q-8 17 -23 20q0 4 -2 12q34 -2 70 -2.5t78 -0.5q2 0 2 2t-2 2q-26 0 -44.5 1t-44.5 2l-63 3l-32 41q31 -7 62 -11.5 t65 -4.5q2 0 2.5 1.5t-1.5 2.5q-21 11 -50 14.5t-53 7.5q-15 3 -38 6l-24 32q28 -3 56.5 -5t57.5 -2q8 0 14.5 0.5t14.5 5.5q4 2 -0.5 4.5t-5.5 2.5q-11 5 -22.5 9.5t-22.5 9.5l-47 19l-41 16q3 3 -2 3h-6zM569 455q-9 0 -18 1t-18 3l-8 12l10 -4l11 -4l12 -4q6 -2 11 -4z M724 392q-5 -3 -10.5 -3.5t-13.5 -0.5q-30 0 -59 2t-58 5l-43 55h41l47 -19l48 -19l22 -8l23 -10z" />
<glyph unicode="&#xbc;" horiz-adv-x="1135" d="M142 39q-14 -16 -6 -33.5t30 -17.5h136q5 0 13 3.5t11 6.5l658 750q14 16 6 33.5t-30 17.5h-136q-5 0 -13 -3.5t-11 -6.5zM887 496q-5 0 -13 -3.5t-11 -7.5l-239 -267v-115q0 -13 9 -22t22 -9h197v-41q0 -13 9 -22t22 -9h130q13 0 22 9t9 22v41l38 1q13 0 22 9t9 22v89 q0 13 -9 22t-22 9h-38v241q0 13 -9 22t-22 9h-126zM788 224l64 71v-71h-64zM293 293q13 0 22 9t9 22v434q0 13 -9 22t-22 9h-113q-17 -16 -31 -25.5t-25 -14.5l2 1q-31 -11 -78 -20q-11 -2 -18.5 -10.5t-7.5 -19.5v-94q0 -17 12 -25.5t28 -4.5q19 5 36.5 10.5t34.5 12.5 v-275q0 -13 9.5 -22t22.5 -9h128z" />
<glyph unicode="&#xbd;" horiz-adv-x="1126" d="M655 31q0 -13 9 -22t22 -9h387q13 0 22 9t9 22v96q0 12 -9 21t-22 9h-107l6 6l33 32q20 18 43 42q26 28 39 57.5t13 62.5q0 69 -56 108t-150 39q-66 0 -129 -23q-17 -6 -31.5 -12t-25.5 -11l256 290q7 8 8 17t-2.5 16.5t-11.5 12.5t-18 5h-136q-5 0 -13 -3.5t-11 -6.5 l-658 -750q-14 -16 -6 -33.5t30 -17.5h136q5 0 13 3.5t11 6.5l366 417v-108q0 -11 6 -19t14.5 -11t18 -0.5t16.5 11.5q14 17 54 40t76 23q20 0 31 -7t11 -20t-14.5 -29t-31.5 -30h1l-188 -155q-4 -3 -7.5 -11t-3.5 -12v-56zM293 293q13 0 22 9t9 22v434q0 13 -9 22t-22 9 h-113q-17 -16 -31 -25.5t-25 -14.5l2 1q-14 -5 -33.5 -10.5t-44.5 -9.5q-11 -2 -18.5 -10.5t-7.5 -19.5v-94q0 -17 12 -25.5t28 -4.5q19 5 36.5 10.5t34.5 12.5v-275q0 -13 9.5 -22t21.5 -9h129z" />
<glyph unicode="&#xbe;" horiz-adv-x="1172" d="M197 39q-7 -8 -8 -17t2.5 -16.5t11 -12.5t18.5 -5h137q5 0 13 3.5t11 6.5l659 750q13 16 5 33.5t-30 17.5h-137q-4 0 -12 -3.5t-11 -6.5zM45 668q0 -13 9.5 -22t22.5 -9h121l-32 -29q-3 -2 -6.5 -9.5t-3.5 -12.5v-67q0 -13 8.5 -22t22.5 -9q35 -1 57.5 -3.5t31.5 -9.5 q11 -6 11 -16q0 -8 -10 -12t-27 -4q-25 0 -46 4t-41 12h2l-36 16q-13 6 -21 10q-13 7 -25.5 3t-18.5 -16l-41 -85q-4 -9 -1 -20t11 -17q13 -13 79 -39q62 -25 139 -25q112 0 170 41t58 127q0 54 -30.5 90t-88.5 52l78 66q3 3 7 11t4 12v73q0 13 -10 22t-23 9h-340 q-13 0 -22 -9t-9 -22v-90zM922 496q-5 0 -13 -3.5t-12 -7.5l-240 -267v-115q0 -13 10 -22t23 -9h197v-41q0 -13 9 -22t22 -9h130q13 0 22.5 9t9.5 22v41l37 1q12 0 22 9t10 22v89q0 13 -10 22t-23 9h-37v241q0 13 -9.5 22t-22.5 9h-125zM822 224l65 71v-71h-65z" />
<glyph unicode="&#xbf;" horiz-adv-x="583" d="M148 287l1 1l-3 -2zM385 77q-25 -10 -46.5 -14.5t-38.5 -4.5q-20 0 -35 14.5t-18 33.5l112 84q55 42 102 94q-13 -20 -22.5 -39.5t-17.5 -42.5l-14 -41q-6 -17 -13 -41q-6 -23 -9 -43zM371 -106q5 1 10.5 2t10.5 3l-12 -22q-6 -11 -14 -22q2 9 3 18.5t2 20.5zM99 550 q-2 -1 -1 -3t3 -1q25 12 53.5 17t59.5 7v-87q0 -13 9 -22t21 -9h23q-14 -12 -29 -23l-30 -22l-46 -31q-24 -15 -50 -34q-2 -2 -1 -3.5t3 -0.5q27 10 53 17t52 12q-2 -17 -16 -34.5t-55 -45.5q-22 -14 -43.5 -31.5t-40.5 -39.5q-41 -49 -41 -122q0 -87 74 -149 q71 -62 196 -62q35 0 74 10q-2 -12 -3 -24t-3 -24q0 -5 4 -1l17 29q8 14 15 28q7 2 13.5 4.5t14.5 4.5h-2q5 2 8.5 2.5t8.5 2.5q-1 -8 -1 -16q0 -9 -1 -18v-115q0 -2 2 -2t2 2v115q1 15 3 36q32 11 56.5 21t44.5 20q10 5 14 16t0 22l-37 113q-5 14 -18 19t-26 -3 q-18 -12 -40 -24t-50 -23q3 20 9 40q7 24 13 41l14 41q11 30 23.5 54t31.5 53q1 2 -0.5 3t-3.5 -1q-46 -59 -107 -106l-123 -92v4q0 23 24 44v-1l33 27l33 26q43 35 63 68.5t20 71.5v37q0 12 -9 21t-22 9h-138q-12 0 -20.5 -9t-8.5 -21l-2 -17q-46 -7 -94 -24l44 29l41 28 l31 22q16 12 32 26h123q12 0 20.5 9t8.5 22v156q0 13 -9 22t-21 9h-152q-12 0 -20.5 -9t-8.5 -22v-65q-31 -2 -60 -7t-55 -17z" />
<glyph unicode="&#xc0;" horiz-adv-x="1083" d="M652 803q18 0 26 13t-2 27l-129 194q-3 4 -10.5 8t-13.5 4h-183q-19 0 -26.5 -14.5t5.5 -28.5l187 -194q3 -2 10 -5.5t12 -3.5h124zM715 681l-34 64q31 -2 62.5 -5t58.5 -11q-42 -26 -87 -48zM758 601l-39 73q51 25 98 54t92 65l-41 -56l-45 -57l-34 -42zM525 291h-86 l96 174l48 -93l-28 -41zM295 25l46 90h47l-19 -23l-22 -25l-13 -13l-13 -10l-13 -10q-7 -4 -13 -9zM393 115h66l-25 -16q-12 -7 -23 -15q-18 -12 -37 -27t-39 -29t-40.5 -25.5t-41.5 -18.5q4 5 8 9l8 8q15 5 21 16l1 1l6 4l28 20q13 10 24 23q14 14 23.5 26t20.5 24z M585 368l40 -77h-95l28 38zM305 534l-3 -5q-4 0 -8 -0.5t-9 -0.5q5 2 10 3t10 3zM111 824q-2 0 -2 -2t2 -2q34 0 69 -5t70 -12l69 -15q34 -8 68 -12l52 -7l-1 -1l-130 -230q-10 -2 -19.5 -4.5t-19.5 -5.5q-2 -1 -1.5 -2.5t2.5 -1.5h15q7 0 15 1l-273 -480q-9 -17 -0.5 -31 t28.5 -14h207q-4 -5 -8 -9.5t-8 -9.5q-2 -5 3 -3q21 6 42.5 18t42.5 26.5t41 30t38 27.5l26 18l27 17h146l-41 -70l-42 -73l-27 -51q-12 -22 -24 -53q-21 -57 -36.5 -104.5t-28 -93.5t-23 -95t-20.5 -110q0 -5 4 -1q21 24 45 48l48 49l48 47q23 23 42 46l50 60l36 44l35 44 l47 58l56 65l55 63q1 2 -0.5 3t-3.5 -1l-54 -63l-57 -65l-47 -58l-34 -44l-36 -44l-51 -60q-18 -22 -40 -45l-46 -45l-47 -47q-24 -23 -45 -47q10 59 20.5 107t23 93.5t27.5 91.5t36 102q11 31 23 53l28 51l42 74l42 71h99l51 -98q4 -7 12 -12t15 -5h234q20 0 28.5 13.5 t-0.5 30.5l-296 554l32 38l35 42l49 63l46 63q1 2 0 3t-3 0q-39 -34 -81.5 -61.5t-87.5 -50.5l30 17l28 16q4 2 0 4q-17 5 -36.5 8t-40.5 5q-13 2 -26 2.5t-26 1.5l-10 18q-4 7 -12 12t-15 5h-177q-5 0 -11.5 -3t-11.5 -8l-55 7q-34 4 -68 11l-69 15q-35 8 -69.5 13t-69.5 5 z" />
<glyph unicode="&#xc1;" horiz-adv-x="1083" d="M279 668h-21q-32 0 -65 -0.5t-65 5.5q42 0 79 -1.5t72 -3.5zM624 292l1 -1h-3zM636 115h80l6 -11l-66 -63l-65 -63q11 41 21.5 73t23.5 64zM614 291h-175l96 174l88 -169zM70 120l-43 -75q-4 -8 -4 -12l-20 -4l-21 -4q11 16 24 31.5t30 32.5l18 16zM384 673l-6 -10 q-10 2 -19.5 2.5t-19.5 1.5zM202 990q-2 1 -3 -1t1 -3q35 -9 71.5 -21t71.5 -18q32 -6 62 -10l57 -8l-56 -86q-9 -14 -1.5 -27t25.5 -13h123q4 0 11.5 3t10.5 6l91 96q25 -3 51 -5.5t55 -6.5q17 -2 28.5 -3.5t21.5 -3.5l20 -4q9 -2 21 -7q-37 -38 -89 -63.5t-106 -45.5 q-4 6 -11.5 10.5t-14.5 4.5h-177q-6 0 -14.5 -5t-12.5 -11l-51 -91l-35 -4q-18 -2 -37 -3q-48 4 -97 5.5t-109 1.5q-2 0 -2.5 -1.5t1.5 -2.5q37 -10 74.5 -9.5t75.5 0.5q15 0 29 0.5t27 1.5q16 -2 31 -3.5t31 -3.5l-299 -527q-11 -9 -21 -19l-22 -22q-19 -17 -33 -34 t-25 -34q-2 -3 2 -3l23 4l22 4q0 -11 9 -19.5t23 -8.5h207q8 0 16 5t12 12l51 98h291q-13 -33 -24.5 -66.5t-22.5 -76.5q-1 -2 0.5 -3t2.5 1l68 66l68 65l43 -84q4 -7 12 -12t15 -5h10q-4 -35 -7 -70.5t0 -70.5q0 -2 2 -2t2 2q-3 36 0 71t7 70h220q20 0 28.5 13.5t-0.5 30.5 l-386 721q55 20 108 46.5t90 66.5q2 1 0 3q-14 5 -24.5 7.5t-20.5 4.5q-11 2 -22.5 3.5t-28.5 3.5q-28 4 -53.5 6.5t-49.5 4.5l90 95q13 14 5.5 28.5t-26.5 14.5h-182q-6 0 -13.5 -3.5t-10.5 -8.5l-68 -104q-28 3 -57.5 7.5t-63.5 10.5q-35 6 -71.5 18t-69.5 21z" />
<glyph unicode="&#xc2;" horiz-adv-x="1083" d="M754 912l-9 14l34 6q-7 -5 -13 -10zM523 444l12 21l3 -6zM950 242l-40 75q57 30 114.5 65t109.5 73q-35 -33 -65 -69l-60 -72l-33 -41zM817 0h9l-21 -40q-9 -20 -21 -41q6 18 14.5 39t18.5 42zM336 105l5 10h36q-10 -3 -20 -5.5t-21 -4.5zM540 455l85 -164h-186l78 141z M393 688l-61 -107q-26 -5 -52.5 -9t-56.5 -9q-54 -9 -109 -21q8 5 16 8.5t10 5.5q15 8 26 15l12 7q48 28 104 56zM160 900q-2 -1 -2 -3t2 -1l46 9q21 5 44 7q55 5 99 6l-52 -75q-10 -14 -2 -27t27 -13h130q5 0 13.5 3.5t10.5 7.5l74 89l72 -89q-12 -8 -24.5 -15t-24.5 -15 h-108q-6 0 -14.5 -5t-12.5 -11l-42 -74l-113 -56l-107 -56q-4 -2 -15 -9l-23 -13l-24 -14q-12 -6 -17 -7l-2 -1q-2 -1 -2 -3q0 -1 2 -1h2l63 13q33 7 63 12q29 5 55.5 9t50.5 8l-302 -531q-9 -17 -0.5 -31t28.5 -14h207q8 0 16 5t12 12l43 83q31 6 59 15h324l51 -98 q4 -7 12 -12t15 -5h18l-21 -51q-10 -24 -15 -44q-1 -2 0.5 -2.5t3.5 1.5q15 25 26 48t25 48h46l-1 -1q-1 -3 -3.5 -14t-6.5 -23.5t-9 -22.5t-9 -10q-1 1 -1 2v1q1 4 0.5 3.5t0.5 2.5q0 8 -5 8q-2 0 -2 -2t2 -2q1 -1 1 -3v-3l-1 -3q0 -8 5 -8q4 0 7.5 4.5t6.5 10.5t5 11.5 t3 8.5q4 14 6.5 24.5t3.5 12.5l1 3h147q20 0 28.5 13.5t-0.5 30.5l-104 194l26 32l35 42l39 48l35 41q18 20 37 39l43 41q2 1 1 2.5t-3 0.5q-57 -45 -123.5 -86.5t-133.5 -77.5l-239 447q-4 7 -12 12t-15 5h-61l22 14q11 6 22 14q4 -3 10 -6t11 -3h131q19 0 27 13t-2 27 l-46 66q8 6 15.5 12.5t15.5 12.5q4 4 -1 4q-13 -3 -23.5 -4.5t-20.5 -3.5l-74 107q-2 4 -10 8t-14 4h-188q-6 0 -14 -4t-11 -8l-79 -115q-46 -1 -102 -6q-23 -2 -44 -6z" />
<glyph unicode="&#xc3;" horiz-adv-x="1083" d="M514 426l21 39l29 -56q-13 5 -25.5 8.5t-24.5 8.5zM494 391l11 19l33 -8q17 -4 35 -10v-1h-79zM216 378l-63 -112q-53 12 -104.5 25.5t-100.5 37.5q22 10 51 17.5t60 13t61 9t53 5.5q11 2 22 2.5t21 1.5zM575 387l50 -96h-186l53 96h83zM277 484l-6 -9l-26 6l-27 6h37 q5 -1 10.5 -1.5t11.5 -1.5zM567 404l3 -7q-17 5 -32 9l-31 8l5 8q13 -5 27 -9t28 -9zM249 969q-1 2 -2.5 0.5t0.5 -2.5l29 -29l30 -29q-18 -37 -27 -84q-2 -12 7 -20.5t23 -8.5h92q3 0 5.5 0.5t5.5 1.5l13 -15q7 -7 13 -15l-159 -279q-5 1 -11 1t-13 1h-58q-2 0 -2 -2 q0 -1 2 -2l37 -7q18 -4 35 -9l-50 -89q-11 -1 -22.5 -1.5t-23.5 -2.5q-23 -2 -54 -5.5t-63 -9t-62 -13.5t-52 -19q-4 -2 0 -4q50 -25 102 -38l107 -27l-124 -217q-9 -17 -0.5 -31t28.5 -14h207q8 0 16 5t12 12l51 98h229q24 -14 45 -32t35 -42q-11 -5 -24.5 -7t-28.5 -2.5 t-30 0t-27 -0.5q-11 -1 -19 -2.5t-14.5 -4t-13 -7t-15.5 -11.5q-8 -7 -15 -14t-7 -12q0 -11 9.5 -17t18.5 -9q39 -12 85 -12h88q63 0 112 4.5t101 18.5q2 1 1 3t-3 1q-50 -14 -99 -18.5t-112 -4.5h-82q-41 0 -82 10q-8 2 -20.5 7.5t-12.5 16.5q0 3 6 9.5t13.5 13t15.5 11.5 t11 6q16 7 35.5 7.5t39.5 0t39 1t34 9.5q1 1 1 3q-14 24 -34 42t-43 32h138l51 -98q4 -7 12 -12t15 -5h234q20 0 28.5 13.5t-0.5 30.5l-387 723q-4 7 -12 12t-15 5h-177q-5 0 -12 -3.5t-12 -8.5q-6 7 -12.5 13.5t-13.5 14.5q12 5 14 17q8 34 30 34q35 0 79 -22 q57 -27 109 -27q67 0 116.5 42t66.5 137l-29 29h-94q-10 0 -18 -6t-10 -14q-6 -34 -29 -34q-38 0 -80 21q-57 27 -108 27q-50 0 -89.5 -21.5t-64.5 -70.5l-30 29z" />
<glyph unicode="&#xc4;" horiz-adv-x="1083" d="M535 465l90 -174h-186zM336 756q5 1 9 1q5 0 10 1h15h62l-4 -9q-8 0 -15 -0.5t-15 -0.5q-17 0 -32 2zM395 764q11 2 22 3l22 2l-1 -1l-2 -4h-41zM382 9q-14 -5 -26.5 -6t-28.5 -1q-22 0 -45 5v1q25 0 49.5 0.5t50.5 0.5zM1041 2q7 2 14 9q12 0 23.5 -0.5t21.5 -1.5 q2 0 2 2t-2 2q-9 1 -20 1.5t-23 0.5q2 4 4 12q9 1 18 1h18q2 0 2 2t-2 2h-18q-9 0 -19 -1v5h15q9 0 15.5 -0.5t15.5 -1.5q2 0 2 2t-2 2q-9 1 -15.5 1.5t-15.5 0.5h-17q0 2 -2 4l-387 723q-3 7 -11.5 12t-15.5 5h-163q0 2 -2 2q-40 0 -78 -7t-79 -3q-2 0 -2 -2t2 -2 q35 -3 68 2t67 7q-7 -3 -12 -8q-19 -1 -37.5 -3.5t-36.5 -5.5h-24q-2 0 -2 -2h-18q-4 0 -1 -3h-3q-11 2 -22 3t-23 1q-2 0 -2 -2t2 -2q7 0 13 -0.5t12 -0.5q-1 -1 -1 -3q0 -1 2 -1h9q5 0 10 1l39 -8q18 -3 38 -3h14q7 0 13 1l-398 -700q-1 -2 -1 -3l-1 -2h-9q-15 0 -23 -0.5 t-22 -1.5q-2 0 -2 -2t2 -2q14 1 22 1.5t23 0.5h8q-3 -8 1 -18q-21 4 -39 10t-39 8q-2 0 -2 -2t2 -2q21 -2 39.5 -8.5t40.5 -9.5l1 -1q-13 1 -25.5 1.5t-26.5 1.5q-2 0 -2 -2t2 -2q14 -1 28 -1.5t28 -1.5q7 -9 23 -9h70q52 -5 104 -9.5t111 -4.5q2 0 2 2t-2 2q-48 0 -90.5 3 t-84.5 7h97q5 0 15 4q11 -2 23.5 -4t26.5 -2q19 0 33.5 1.5t31.5 9.5q2 1 1 3t-3 1l-6 -3q3 3 -2 3q-24 0 -48 -0.5t-47 -0.5q1 2 1.5 2.5t1.5 2.5l51 98h375l50 -95q-11 1 -21.5 1.5t-21.5 1.5q-2 0 -2 -2t2 -2l45 -3q4 -6 7 -8q-11 0 -22 -0.5t-23 -3.5q-2 -1 -1.5 -3 t2.5 -1q13 4 25 4h25q8 -4 13 -4h24q-22 -2 -43.5 -3.5t-43.5 -1.5q-2 0 -2 -2t2 -2q31 0 61 2.5t60 6.5h170q0 -2 2 -2q31 0 53.5 -1.5t50.5 -1.5q2 0 2 2t-2 2q-24 0 -43.5 1t-43.5 2zM616 972q-11 0 -20 -7t-9 -17v-128q0 -10 9 -17t20 -7h158q12 0 20.5 7t8.5 17v128 q0 10 -8.5 17t-20.5 7h-158zM339 976q-12 0 -20.5 -7t-8.5 -17v-128q0 -10 8.5 -17t20.5 -7h157q12 0 20.5 7t8.5 17v128q0 10 -8.5 17t-20.5 7h-157z" />
<glyph unicode="&#xc5;" horiz-adv-x="1083" d="M545 1148q-70 0 -121 -51q-50 -50 -50 -120q0 -69 50 -121q50 -50 121 -50q68 0 120 50v-1q51 51 51 122t-51 121v-1q-51 51 -120 51zM545 1024q20 0 33.5 -13.5t13.5 -33.5t-13.5 -33.5t-33.5 -13.5t-33.5 13.5t-13.5 33.5t13.5 33.5t33.5 13.5zM497 396l38 69l35 -68 h-20zM293 513l-70 -123q-52 -1 -107 -1.5t-121 -0.5q-75 0 -148 1.5t-148 3.5h2q57 6 115 15t130 23q39 7 71 14l63 14q31 6 63 14l70 18l43 12zM-386 390q-35 -2 -72 -5t-80 -3h-42q46 7 92.5 7.5t93.5 0.5h8zM572 393l53 -102h-186l56 101l55 1h22zM893 348l-29 55h22h131 q-31 -16 -61.5 -29.5t-62.5 -25.5zM1058 17q6 11 -2 27l-161 300q64 25 131 59q2 1 1.5 2.5t-2.5 1.5h-139h-24l-193 360q-4 7 -12 12t-15 5h-177q-6 0 -14.5 -5t-12.5 -11l-47 -84q-29 2 -59.5 3t-60.5 -1q-38 -2 -71 -11t-56 -32q-2 -1 -0.5 -2.5t2.5 0.5q23 22 55 31 t70 11q29 1 59.5 0t57.5 -2l-92 -163l-39 -10l-46 -13l-69 -18q-32 -8 -62 -14l-63 -14q-32 -7 -71 -14q-84 -17 -150.5 -26.5t-133.5 -14.5h-56q-53 0 -105.5 -1t-104.5 -11q-2 -1 -2 -3q0 -1 2 -1h66q59 0 108 3.5t96 8.5q47 0 86 -1l77 -2l78 -2q40 -1 88 -1 q65 0 120 0.5t106 1.5l-142 -250q-46 -10 -81 -18.5t-66 -17.5l-64 -19l-72 -22q-19 -6 -31 -13q-17 -8 -33 -18t-36 -10q-2 0 -2 -2t2 -2q51 0 94 -1t84 -3l80 -3q39 -1 82 -2q8 -5 19 -5h207q6 0 11 3q22 0 41.5 -0.5t41 0t46.5 1.5t57 3q19 1 35 3l32 4q15 2 30.5 4.5 t34.5 4.5q18 2 29.5 4t21.5 4l19 5l24 7q-28 -37 -58 -68.5t-62 -60.5t-67 -56l-72 -55q-26 -20 -47.5 -32t-47.5 -29q-2 -2 -1.5 -3.5t2.5 -0.5q33 8 60 16.5t52 17.5l52 20l59 22l101 37l88 34l88 35l99 40l97 40q18 0 26 11l110 45l105 42l111 43l124 47q25 10 43.5 15.5 t34.5 11.5l22 8q11 4 22 11q-53 -46 -101 -97.5t-102 -93.5l-43 -32l-39 -28l-40 -28l-43 -29q-2 -2 -1 -3.5t3 -0.5l43 29l40 28l39 28l43 32q30 24 57 50l54 53l54 53q27 26 56 50q2 2 1 3.5t-3 0.5q-18 -11 -33 -18t-31 -13l-34 -11l-44 -15l-122 -46l-109 -43l-104 -42z M280 7q6 2 10 10l51 98h375l51 -98q4 -7 12 -12t15 -5h223l-88 -36l-99 -41l-88 -35l-88 -34l-101 -36q-31 -11 -56 -21l-50 -19q-24 -9 -48.5 -17t-54.5 -16l42 25q19 12 42 29q77 57 141.5 114t122.5 133q2 5 -3 3l-26 -8l-20 -6q-10 -2 -22 -4t-30 -4q-19 -2 -34.5 -4.5 t-30.5 -4.5l-32 -4q-16 -2 -35 -3q-31 -2 -55 -3t-45 -1.5t-39.5 0t-39.5 0.5zM-281 18q6 2 12 5l12 6q14 8 27 14.5t28 11.5l71 22l62 19q31 9 65.5 17.5t79.5 17.5l-49 -86q-11 -21 4 -36q-40 1 -76 2l-74 3q-38 2 -77.5 3t-84.5 1z" />
<glyph unicode="&#xc6;" horiz-adv-x="1387" d="M688 598h3v-255h-169zM779 784h-136l59 120l70 134l32 58q15 26 35 52l-10 -54q-5 -25 -9 -50l-10 -53q-5 -27 -9 -58l-11 -78zM981 285v6h2zM1106 497h-125v80h139q-1 -4 -1.5 -7t-1.5 -8l-6 -32q-3 -16 -5 -33zM1092 207h-40q8 18 14 37l15 42l1 5h8v-22q0 -17 0.5 -32 t1.5 -30zM1138 497h-28q2 17 5 33l6 32q2 10 4 15h31l-9 -42q-4 -19 -9 -38zM1048 207h-67v23q7 15 13 31l12 30h72l-1 -3l-14 -43q-7 -20 -15 -38zM914 0h39q-9 -24 -19.5 -46.5t-29.5 -41.5q0 23 3 44.5t7 43.5zM981 240v33l6 18h15zM809 0h62q-17 -34 -41 -58l-10 29 q-6 14 -11 29zM177 0h25q-5 -5 -10.5 -9t-12.5 -8q-1 4 -1 8t-1 9zM318 463l-130 -186q4 23 7.5 46.5t8.5 47.5q16 81 35.5 160t41.5 158q18 66 37 124t47 119q-3 -67 -7 -122t-9.5 -107.5t-12.5 -107.5l-17 -122zM128 0h45q1 -6 1 -11t1 -9q0 -4 3 -2q17 9 29 22h1 q-7 -21 -16.5 -46t-20.5 -49t-24 -46t-27 -37q0 50 2.5 93.5t5.5 84.5zM120 820q0 2 -2 2t-2 -2q0 -24 2.5 -43t6.5 -38q4 -18 7.5 -37.5t5.5 -42.5q4 -41 6 -77t3 -71.5t1 -73.5v-83q0 -39 -1.5 -74t-3.5 -68l-104 -150v1l-10 -15q-11 -17 -3 -32.5t29 -15.5h69 q-4 -42 -6 -86.5t-2 -96.5q0 -2 1 -2.5t2 1.5q15 15 29 37.5t26 48t21.5 51t16.5 47.5h69q7 0 15 5t12 10l87 135h296v-120q0 -12 9.5 -21t22.5 -9h81q5 -17 11.5 -32.5t11.5 -30.5q2 -2 3 0q14 13 25 29t21 34h34q-5 -23 -7.5 -46t-2.5 -47q0 -2 1 -2.5t2 1.5q22 20 33 44 t21 50h216q-1 -5 -1.5 -11t-1.5 -11q-4 -33 -2 -64.5t-5 -65.5q-1 -2 1 -2t3 2q4 18 5 34t0 32v32q0 15 2 32q1 5 1.5 11t1.5 11h157q13 0 22 9t9 21v146q0 13 -9 22t-22 9h-238q-1 15 -1.5 30t-0.5 32v22l160 1q13 0 22 9t9 22v144q0 12 -9 21t-22 9h-112q5 19 9 38l9 42 h145q13 0 22.5 9t9.5 22v146q0 12 -9.5 21t-22.5 9h-522l11 71l11 78q4 32 9 60l10 55l10 53l11 55q0 5 -4 1q-22 -28 -38.5 -55t-34.5 -62l-70 -135l-60 -121h-80q-6 0 -14.5 -4.5t-11.5 -9.5l-209 -300v3l17 124q7 56 12.5 109.5t9.5 110t7 125.5q0 2 -1.5 2.5t-2.5 -1.5 q-29 -64 -49 -124t-39 -128q-22 -80 -41.5 -159.5t-35.5 -160.5q-5 -25 -9 -50l-8 -51l-36 -52q2 32 3.5 65.5t1.5 70.5v83q0 38 -1 73.5t-3 71.5t-6 77q-2 24 -5.5 43t-7.5 38q-4 18 -6.5 37.5t-2.5 42.5z" />
</font>
</defs>
</svg>
